<svg xmlns="http://www.w3.org/2000/svg" xmlns:xlink="http://www.w3.org/1999/xlink" width="300" height="190" viewBox="0 0 300 190">
    <defs>
        <path id="a" d="M5.067 18.501c-1.602 2.712-5.532 4.706-4.9 8.038.632 3.331 4.462 1.922 7.666-.571 1.135-.883 2.202-1.681 3.106-2.343a37.445 37.445 0 0 0 6.852-6.488c4.69-5.733 4.007-15.735-.366-16.333a18.983 18.983 0 0 0-2.568-.186C2.25.616 6.574 15.948 5.067 18.5z"/>
        <path id="c" d="M.105 3.097c-.07 4.73 3.067 16.097 3.067 16.097s.154 1.144.889 1.196l10.503.105C14.56 19.513 1.86 7.738 7.156 4.073c3.1-2.146.179-3.733-2.79-3.734-2.104 0-4.232.797-4.261 2.758z"/>
        <path id="e" d="M.295.157L.837 4.63l5.728.084.363.005S4.988 1.016 3.359.426A6.084 6.084 0 0 0 1.29.07C.685.069.295.157.295.157z"/>
        <path id="g" d="M5.454 18.707c-1.574 2.8-5.51 4.901-4.821 8.302.688 3.4 4.53 1.9 7.726-.7a135.321 135.321 0 0 1 3.098-2.447 38.068 38.068 0 0 0 6.815-6.744c4.646-5.941 3.803-16.17-.62-16.715a19.293 19.293 0 0 0-2.356-.155C2.283.247 6.944 16.054 5.454 18.707z"/>
        <path id="i" d="M.554 2.91c0 4.685 3.349 15.893 3.349 15.893s.173 1.131.918 1.172l10.639-.053C15.439 18.95 2.4 7.48 7.708 3.771 10.772 1.63 7.916.115 4.954.115c-2.171 0-4.4.814-4.4 2.794z"/>
        <path id="k" d="M.243.512l.613 4.465 5.73.005h.36S4.949 1.307 3.312.739A6.08 6.08 0 0 0 1.324.41C.67.41.243.512.243.512z"/>
        <path id="m" d="M3.523 1.264s.255 1.616-.462 1.773C2.344 3.195.82 1.332.418 1.309c-.402-.023 1.076 2.525 1.819 2.544.743.018 2.012-.276 1.998-1.064C4.22 2.002 3.81.617 3.81.617l-.288.647z"/>
        <path id="o" d="M3.983 1.13s.627 1.65-.161 1.977c-.423.175-1.23-.212-1.962-.598-.633-.335-1.21-.67-1.425-.64-.465.065 1.757 2.429 2.612 2.283.856-.146 2.248-.74 2.067-1.568-.18-.83-.937-2.202-.937-2.202l-.194.748z"/>
        <path id="q" d="M.413 5.513S.314 6.708.746 7.98c.534 1.57.748 2.416.748 2.416s1.449 2.73 1.488 2.112c.085-1.36-.947-6.099-.947-6.099s5.128-2.086 5.628-3.205C8.162 2.086 7.845.626 6.345.44a.775.775 0 0 0-.081-.005C4.69.434.413 5.513.413 5.513z"/>
    </defs>
    <g fill="none" fill-rule="evenodd">
        <path fill-rule="nonzero" d="M0 0h300v190H0z"/>
        <path fill="#E5DFD5" d="M161.503 158.068s-.363 5.003 1.336 6.865c5.172 5.67 10.877 4.755 20.9 4.325 8.085-.347 11.261-6.548 11.261-6.548l-1.904-5.042-1.97 4.298-5.18-3.92-6.22 4.973-1.689-8.43-10.198 5.83-3.375-5.33-2.96 2.98z"/>
        <g transform="translate(141.176 124.588)">
            <mask id="b" fill="#fff">
                <use xlink:href="#a"/>
            </mask>
            <path fill="#7AA384" d="M-.508-.61l22.654.336-.454 30.057-22.654-.336z" mask="url(#b)"/>
        </g>
        <g transform="translate(141.176 147.53)">
            <mask id="d" fill="#fff">
                <use xlink:href="#c"/>
            </mask>
            <path fill="#7AA384" d="M-.842-.746l16.724.25-.329 22.064-16.724-.25z" mask="url(#d)"/>
        </g>
        <g transform="translate(150.882 163.412)">
            <mask id="f" fill="#fff">
                <use xlink:href="#e"/>
            </mask>
            <path fill="#7AA384" d="M-.727-.934l8.782.123-.104 6.519-8.782-.123z" mask="url(#f)"/>
        </g>
        <g transform="translate(116.47 126.353)">
            <mask id="h" fill="#fff">
                <use xlink:href="#g"/>
            </mask>
            <path fill="#7AA384" d="M-.463 30.004H22.4V-.772H-.463z" mask="url(#h)"/>
        </g>
        <g transform="translate(116.47 149.294)">
            <mask id="j" fill="#fff">
                <use xlink:href="#i"/>
            </mask>
            <path fill="#7AA384" d="M-.463 20.97h16.94V-.88H-.463z" mask="url(#j)"/>
        </g>
        <g transform="translate(127.941 164.294)">
            <mask id="l" fill="#fff">
                <use xlink:href="#k"/>
            </mask>
            <path fill="#7AA384" d="M-.797 5.957h8.783v-6.52H-.797z" mask="url(#l)"/>
        </g>
        <path fill="#E5DFD5" d="M165.546 141.415c7.739-8.887 14.145-24.012 9.17-51.158-3.53-19.256-17.959-21.146-17.959-21.146s-26.423-4.217-41.588 39.27c-5.139 14.736-3.403 25.038 1.519 31.983l-.673-2.979 4.994 5.453 2.815-5.453 6.677 5.307 8.481-6.123 1.836 10.96 13.794-7.038 4.217 7.038 6.972-6.89-.255.776z"/>
        <g transform="translate(123.53 109.588)">
            <mask id="n" fill="#fff">
                <use xlink:href="#m"/>
            </mask>
            <path fill="#64846C" d="M-.754 4.959h6.093V-.488H-.754z" mask="url(#n)"/>
        </g>
        <g transform="translate(123.53 110.47)">
            <mask id="p" fill="#fff">
                <use xlink:href="#o"/>
            </mask>
            <path fill="#64846C" d="M-.788 5.448H6.29V-.907H-.788z" mask="url(#p)"/>
        </g>
        <path fill="#404942" d="M129.11 99.094l1.292-1.859 2.518 1.905 3.032.117-2.305 2.05 1.962.757-.211 1.784 1.367 1.693h-2.499l-.943 1.199-1.172.486-.179 1.48-.834-.075-2.352-4.203-2.61-3.202 1.716-.541z"/>
        <g transform="translate(125.294 99.882)">
            <mask id="r" fill="#fff">
                <use xlink:href="#q"/>
            </mask>
            <path fill="#64846C" d="M-.756 13.82h9.798V-.787H-.756z" mask="url(#r)"/>
        </g>
        <path fill="#404942" d="M130.693 98.908l-3.176-5.455s1.405-2.18 1.8-3.474c.394-1.297 1.16-3.103 1.16-3.103l.543-.43s-1.42-1.785-1.334-2.439c.085-.653.385-1.638.59-1.095.204.542-.191 1.187-.191 1.187l1.116 2.033 2.538-.762 2.174-.505 1.584-.994-2.398-6.324 3.712 8.36L141.495 87l1.256-.386-1.182.89-2.824-1.037-.61.77-.151.883-.027-1.1.458-.699-.597-1.91-6.462 2.167-2.167 4.52-1.177 2.195 3.038 5.392-.357.224zM130.773 108.993s1 .384 1.011.527c.012.143.3 1.232.3 1.232s1.77.191 2.095.251c.325.06.614.515.614.515l.903.67.758-.455-.626.67-1.516-.682-.53 2.704 3.14 2.069h-.745l.59 2.104-1.513-2.676-1.996-.963.241-3.337-1.875-.632-.85-1.997z"/>
        <path fill="#D1C8BC" d="M174.464 90.449c-3.509-19.252-17.857-21.143-17.857-21.143s-.476-.075-1.33-.102a21.647 21.647 0 0 0-.803 5.863c0 10.163 6.896 18.402 15.402 18.402 1.728 0 3.389-.345 4.94-.973-.111-.676-.225-1.355-.352-2.047M157.773 117.878c-5.98 0-10.826 6.846-10.826 15.291 0 3.843 1.006 7.352 2.663 10.038l4.935-2.532 4.194 7.037 6.932-6.89-.253.776a40.387 40.387 0 0 0 2.548-3.274c.409-1.611.633-3.346.633-5.155 0-8.445-4.847-15.291-10.826-15.291M194.86 162.312l-1.918-4.973-1.985 4.24-5.217-3.867-.672.525c-.663 1.98-1.034 4.19-1.034 6.525 0 1.364.129 2.686.366 3.944 7.492-.727 10.46-6.394 10.46-6.394M167.41 112.405c.258 1.743-.462 3.292-1.61 3.46-1.148.169-2.287-1.108-2.547-2.85-.258-1.743.463-3.293 1.61-3.46 1.148-.17 2.288 1.107 2.546 2.85M121.438 129.476c.259 1.742-.461 3.291-1.61 3.46-1.147.168-2.287-1.108-2.545-2.85-.259-1.744.462-3.294 1.61-3.462 1.146-.168 2.287 1.109 2.545 2.852M121.422 120.792c.121.815-.215 1.54-.753 1.619-.536.078-1.07-.518-1.19-1.334-.122-.815.215-1.54.752-1.619.537-.079 1.07.518 1.191 1.334M165.618 163.171c.12.815-.217 1.541-.753 1.62-.538.078-1.07-.52-1.192-1.335-.121-.815.216-1.54.753-1.62.537-.078 1.07.52 1.192 1.335M165.098 159.813c.056.38-.1.717-.35.754-.251.036-.5-.242-.555-.622-.057-.38.1-.717.35-.754.25-.037.499.241.555.622M153.314 87.323c.12.816-.216 1.541-.753 1.62-.538.078-1.07-.52-1.192-1.335-.12-.814.216-1.54.753-1.619.537-.078 1.07.52 1.192 1.334M134.079 94.043c.12.815-.216 1.54-.753 1.619-.538.078-1.07-.519-1.192-1.334-.12-.815.216-1.54.753-1.62.537-.078 1.07.52 1.192 1.335M149.456 77.242c.258 1.743-.462 3.292-1.61 3.46-1.147.169-2.287-1.108-2.545-2.85-.26-1.743.461-3.293 1.609-3.46 1.147-.169 2.287 1.108 2.546 2.85"/>
        <path fill="#E5DFD5" d="M105.608 164.906l1.936-4.242 1.284 3.183h3.6l1.218 2.238 2.495.271-4.837.588-6.149 1.168z"/>
        <path fill="#FFF" fill-opacity=".01" d="M0 189h1v1H0zM299 0h1v1h-1z"/>
    </g>
</svg>
