<svg xmlns="http://www.w3.org/2000/svg" xmlns:xlink="http://www.w3.org/1999/xlink" width="300" height="190" viewBox="0 0 300 190">
    <defs>
        <path id="a" d="M2.076.382C1.26 1.177.051 2.686.051 2.686l.755.04a.926.926 0 0 0 .74-.304c.462-.51 1.41-1.38 2.124-.86.98.716.743 4.405 1.174 4.917.431.511 1.446-3.799.622-4.72C4.826 1.043 3.626.13 2.74.13a.915.915 0 0 0-.665.253z"/>
        <path id="c" d="M1.692 1.083c-.555.91-.98 2.947-.98 2.947l.35-.525S2.417 1.5 3.563 2.137c1.147.637 1.978 4.481 2.54 4.965.562.485.3-4.088-.757-4.954C4.57 1.511 3.26.743 2.4.743c-.31 0-.56.1-.707.34z"/>
        <path id="e" d="M.362 3.08c.38 2.15 9.147 6.2 9.147 6.2s10.393.026 9.127-.505c-1.727-.723-8.624-2.094-8.624-2.094S5.13.408 3.45.16a3.368 3.368 0 0 0-.497-.037C1.438.123.02 1.14.363 3.08z"/>
        <path id="g" d="M4.71 10.454C1.26 20.05.6 26.218.6 26.218S-1.705 35.99 5.386 39.42c12.95 6.264 17.503-4.803 17.503-4.803s19.744.088 24.856-3.162c5.113-3.25 5.194-9.04 5.194-9.04l2.885.118s.602-12.53-7.695-15.686C39.83 3.69 31.75 4.966 31.75 4.966S30.74.338 29.617.292a6.15 6.15 0 0 0-.148-.002c-2.158 0-21.41.852-24.759 10.164z"/>
        <path id="i" d="M9.21 15.368s19.792.097 24.915-3.146c5.123-3.244 5.2-9.03 5.2-9.03s-12.02-1.211-19.209-.316C12.928 3.774.72.636.72.636l8.49 14.732z"/>
        <path id="k" d="M.513.502C.176.667.17 1.492.498 2.346c.327.854.867 1.412 1.203 1.248.336-.164.343-.99.015-1.842C1.426.998.972.474.638.474a.293.293 0 0 0-.125.028z"/>
        <path id="m" d="M.438.082c-.336.165-.344.99-.016 1.843.328.853.868 1.413 1.204 1.249.336-.164.343-.99.016-1.842C1.352.578.898.054.563.054a.283.283 0 0 0-.125.028z"/>
        <path id="o" d="M2.29 3.22L4.246.509.269.25z"/>
        <path id="q" d="M.074 4.295A4.465 4.465 0 0 0 8.9 5.631 4.465 4.465 0 0 0 5.155.55 4.465 4.465 0 0 0 .073 4.295z"/>
        <path id="s" d="M.075 3.478a4.466 4.466 0 0 0 3.729 5.097c1.42.22 2.776-.27 3.745-1.188a4.418 4.418 0 0 1-2.831.518A4.463 4.463 0 0 1 .99 2.81 4.427 4.427 0 0 1 2.34.27C1.174.914.297 2.059.076 3.479z"/>
        <path id="u" d="M.066 3.82A3.614 3.614 0 0 0 7.213 4.9 3.615 3.615 0 0 0 4.183.788 3.616 3.616 0 0 0 .067 3.82z"/>
        <path id="w" d="M.069 3.006a3.613 3.613 0 0 0 3.017 4.125 3.592 3.592 0 0 0 2.893-.838 3.605 3.605 0 0 1-2.124.32A3.616 3.616 0 0 1 .836 2.489 3.59 3.59 0 0 1 2.069.308a3.607 3.607 0 0 0-2 2.698z"/>
        <path id="y" d="M.465 1.346c-.087.575.31 1.113.885 1.199A1.055 1.055 0 0 0 1.666.46a1.057 1.057 0 0 0-1.202.886z"/>
        <path id="A" d="M.133 1.275a1.074 1.074 0 0 0 .901 1.223A1.075 1.075 0 0 0 1.356.372a1.075 1.075 0 0 0-1.223.902v.001z"/>
        <path id="C" d="M1.276 6.074C.13 8.644.569 10.986.569 10.986l7.729-.492.602-9.22.037-.583S2.42 3.501 1.276 6.074z"/>
        <path id="E" d="M1.044 10.744c-4.515 26.558 24.287 19.467 28.712 22.405 4.425 2.937 7.445 9.76 13.1 8.965 5.654-.795 3.609-7.4-.313-13.035a233.807 233.807 0 0 1-3.679-5.456 63.222 63.222 0 0 0-10.327-12.146C23.036 6.466 15.442.718 9.54.717c-4.015 0-7.245 2.66-8.497 10.027z"/>
        <path id="G" d="M7.118 12.293C1.442 3.203-2.963 23.4 4.914 23.909c7.878.51 27.084-3.756 27.084-3.756s1.443-.135 2.01-1.271L35.2.252c-3.042.066-22.406 21.13-28.082 12.04z"/>
        <path id="I" d="M64.348 28.424C53.264 41.678 56.14 40.989 52.443 47.449c-3.204 5.599-13.205 9.055-27.678 13.232C17.593 62.75-1.453 70.974.26 73.8c2.39 3.942 27.609-.565 44.953-2.799 6.187-.796 11.966.598 17.697 1.993 6.606 1.607 13.149 3.215 20.182 1.468 22.13-5.495 30.712-12.74 27.473-36.704-2.61-19.328-5.973-24.925-8.756-32.748L77.838.591s-2.406 14.577-13.49 27.833z"/>
        <path id="K" d="M24.883 36.092c6.043 17.614-3.482 25.994-17.902 25.51-6.04-.203-7.618.356-6.501.914 1.238.62 5.78 1.238 11.235.822C34.48 61.606 46.24 49.62 42.421 26.04 40.81 16.1 38.132 7.028 35.904.34 27.27 2 16.764 12.422 24.884 36.092z"/>
        <path id="M" d="M26.48 6.123c-7.137 4.464-16.196 8.928-19.226 3.257C2.19-.1-3.514 19.878 4.302 20.89c7.817 1.013 27.235-2.037 27.235-2.037s1.923-.04 2.149-1.25L35.852.2a.242.242 0 0 0-.024-.001c-.72 0-4.611 2.962-9.348 5.925z"/>
        <path id="O" d="M.413 1.553C-.801 3.367 2.728 12.358 2.728 12.358s1.398.872 3.238 1.11c2.272.291 7.742.38 7.01-.056-1.61-.958-8.086-2.583-8.086-2.583s.813-7.908-.228-9.25C4.098.854 3.255.373 2.409.373 1.69.373.969.718.413 1.553z"/>
        <path id="Q" d="M2.862.91s2.362.77 2.08 1.848c-.28 1.079-3.85 1.857-4.159 2.384-.31.528 4.157.286 4.695-.707.537-.993 1.012-2.912-.062-3.434C4.341.477 2.184.075 2.184.075l.678.835z"/>
        <path id="S" d="M1.202.822s3.066.862 2.927 2.07C3.989 4.097.7 5.883.469 6.521c-.23.638 3.971-.828 4.364-2.016.392-1.188.617-3.332-.462-3.59C3.896.803 3.225.771 2.623.771c-.766 0-1.42.051-1.42.051z"/>
        <path id="U" d="M.606 14.406c11.883 5.465 26.105-3.998 26.105-3.998s-4.363-.482-9.43-2.755C15.485 6.846 5.547 3.82 8.362.55 3.366 6.354 2.437 10.901.606 14.406z"/>
        <path id="W" d="M1.253 5.188C-.056 7.68.23 10.046.23 10.046l7.746.006L9.17.89 9.245.31S2.562 2.694 1.253 5.188z"/>
        <path id="Y" d="M.587 9.334C2.24 28.257 16.222 26.135 25.85 24.014c3.79-.834 6.904-1.67 8.327-1.221 5.04 1.587 9.764 7.228 14.99 4.954 5.227-2.273 1.974-9.3-3.3-13.573-1.868-1.515-4.237-2.792-5.606-3.785-4.272-3.1-8.286-5.424-13.036-7.76C23.892.99 20.113.276 16.468.276 7.932.276.138 4.196.588 9.334z"/>
    </defs>
    <g fill="none" fill-rule="evenodd">
        <path fill-rule="nonzero" d="M0 0h300v190H0z"/>
        <g transform="translate(188.4 112.762)">
            <mask id="b" fill="#fff">
                <use xlink:href="#a"/>
            </mask>
            <path fill="#64846C" d="M4.276 9.676l-6.915-7.402 5.752-5.375 6.915 7.404z" mask="url(#b)"/>
        </g>
        <g transform="translate(189.2 111.162)">
            <mask id="d" fill="#fff">
                <use xlink:href="#c"/>
            </mask>
            <path fill="#64846C" d="M4.912 10.865l-7.65-8.19 5.752-5.373 7.65 8.189z" mask="url(#d)"/>
        </g>
        <g transform="translate(170.8 106.362)">
            <mask id="f" fill="#fff">
                <use xlink:href="#e"/>
            </mask>
            <path fill="#64846C" d="M1.71 13.395L-2.373-.169l19.211-5.786 5.29 16.273z" mask="url(#f)"/>
        </g>
        <g transform="translate(147.6 65.562)">
            <mask id="h" fill="#fff">
                <use xlink:href="#g"/>
            </mask>
            <path fill="#7AA384" d="M3.72-5.374L60.464 3.32l-7.062 46.09-56.743-8.693z" mask="url(#h)"/>
        </g>
        <g transform="translate(161.2 84.762)">
            <mask id="j" fill="#fff">
                <use xlink:href="#i"/>
            </mask>
            <path fill="#74947C" d="M-2.58-6.653l43.87 8.45-3.021 19.72-36.644-5.615z" mask="url(#j)"/>
        </g>
        <g transform="translate(197.2 73.562)">
            <mask id="l" fill="#fff">
                <use xlink:href="#k"/>
            </mask>
            <path fill="#64846C" d="M-1.052-1.485l5.276.81-.959 6.257-5.276-.81z" mask="url(#l)"/>
        </g>
        <g transform="translate(193.2 74.362)">
            <mask id="n" fill="#fff">
                <use xlink:href="#m"/>
            </mask>
            <path fill="#64846C" d="M-1.127-1.905l5.276.809L3.19 5.16l-5.276-.808z" mask="url(#n)"/>
        </g>
        <g transform="translate(189.2 87.162)">
            <mask id="p" fill="#fff">
                <use xlink:href="#o"/>
            </mask>
            <path fill="#FFF" d="M-1.082-2.004l7.24 1.11-.959 6.257-7.24-1.11z" mask="url(#p)"/>
        </g>
        <g transform="translate(163.6 64.762)">
            <mask id="r" fill="#fff">
                <use xlink:href="#q"/>
            </mask>
            <path fill="#FFF" d="M-.933-2.418L11.87-.458 9.907 12.344l-12.801-1.96z" mask="url(#r)"/>
        </g>
        <g transform="translate(163.6 65.562)">
            <mask id="t" fill="#fff">
                <use xlink:href="#s"/>
            </mask>
            <path fill="#E1E0DF" d="M-2.895 9.583L8.97 11.401 10.788-.471-1.075-2.29z" mask="url(#t)"/>
        </g>
        <g transform="translate(173.2 64.762)">
            <mask id="v" fill="#fff">
                <use xlink:href="#u"/>
            </mask>
            <path fill="#FFF" d="M-1.1-2.096L10.096-.38 8.38 10.816-2.816 9.1z" mask="url(#v)"/>
        </g>
        <g transform="translate(173.2 65.562)">
            <mask id="x" fill="#fff">
                <use xlink:href="#w"/>
            </mask>
            <path fill="#E1E0DF" d="M-2.816 8.3L7.502 9.881 9.122-.684l-10.32-1.581z" mask="url(#x)"/>
        </g>
        <g transform="translate(169.2 69.562)">
            <mask id="z" fill="#fff">
                <use xlink:href="#y"/>
            </mask>
            <path fill="#6D8880" d="M-1.058-1.992l6.061.929-.929 6.06-6.061-.929z" mask="url(#z)"/>
        </g>
        <g transform="translate(177.2 68.762)">
            <mask id="B" fill="#fff">
                <use xlink:href="#A"/>
            </mask>
            <path fill="#6D8880" d="M-1.42-2.126l6.178.946-.947 6.176-6.177-.945z" mask="url(#B)"/>
        </g>
        <g transform="translate(200.4 143.162)">
            <mask id="D" fill="#fff">
                <use xlink:href="#C"/>
            </mask>
            <path fill="#64846C" d="M-1.388 12.54l.912-14.136 11.194.722-.912 14.137z" mask="url(#D)"/>
        </g>
        <g transform="translate(138 126.362)">
            <mask id="F" fill="#fff">
                <use xlink:href="#E"/>
            </mask>
            <path fill="#64846C" d="M-2.782 40.984L-.033-1.6l50.431 3.254-2.748 42.584z" mask="url(#F)"/>
        </g>
        <g transform="translate(174 145.562)">
            <mask id="H" fill="#fff">
                <use xlink:href="#G"/>
            </mask>
            <path fill="#64846C" d="M-1.569 25.17L.294-3.68l36.698 2.368-1.862 28.85z" mask="url(#H)"/>
        </g>
        <g transform="translate(70 95.162)">
            <mask id="J" fill="#fff">
                <use xlink:href="#I"/>
            </mask>
            <path fill="#7AA384" d="M-28.3 40.58L98.251-9.11 128.569 68.1 2.016 117.792z" mask="url(#J)"/>
        </g>
        <g transform="translate(138.8 107.162)">
            <mask id="L" fill="#fff">
                <use xlink:href="#K"/>
            </mask>
            <path fill="#ACC3B0" d="M-40.696 28.572L36.736-1.832 59.59 56.371l-77.432 30.403z" mask="url(#L)"/>
        </g>
        <g transform="translate(172.4 150.362)">
            <mask id="N" fill="#fff">
                <use xlink:href="#M"/>
            </mask>
            <path fill="#7AA384" d="M-2.242 21.733l3.59-27.696 36.47 4.726-3.59 27.697z" mask="url(#N)"/>
        </g>
        <g transform="translate(158 107.962)">
            <mask id="P" fill="#fff">
                <use xlink:href="#O"/>
            </mask>
            <path fill="#64846C" d="M-5.749 9.935L.684-2.685l17.876 9.11-6.433 12.621z" mask="url(#P)"/>
        </g>
        <g transform="translate(165.2 119.962)">
            <mask id="R" fill="#fff">
                <use xlink:href="#Q"/>
            </mask>
            <path fill="#64846C" d="M-2.456 5.49l4.2-8.243L9.11 1.002l-4.2 8.241z" mask="url(#R)"/>
        </g>
        <g transform="translate(167.6 120.762)">
            <mask id="T" fill="#fff">
                <use xlink:href="#S"/>
            </mask>
            <path fill="#64846C" d="M-3.55 6.458L1.095-2.66l7.367 3.754-4.647 9.118z" mask="url(#T)"/>
        </g>
        <g transform="translate(122 127.962)">
            <mask id="V" fill="#fff">
                <use xlink:href="#U"/>
            </mask>
            <path fill="#6D8880" d="M-4.768 5.01L22.13-5.552l6.864 17.479L2.095 22.488z" mask="url(#V)"/>
        </g>
        <g transform="translate(199.6 146.362)">
            <mask id="X" fill="#fff">
                <use xlink:href="#W"/>
            </mask>
            <path fill="#7AA384" d="M-1.822 11.47L0-2.577l11.124 1.442-1.82 14.048z" mask="url(#X)"/>
        </g>
        <g transform="translate(131.6 143.162)">
            <mask id="Z" fill="#fff">
                <use xlink:href="#Y"/>
            </mask>
            <path fill="#7AA384" d="M4.92 38.999L-2.93 2.066 46.504-8.439l7.85 36.933z" mask="url(#Z)"/>
        </g>
        <path fill="#E5E3E1" d="M166.687 166.286s.096-.913-.628-.913c-.723 0-2.185.974-2.185.974s.163-1.152-.687-1.152c-.85 0-2.012 1.152-2.012 1.152s.644-1.225-.27-1.611c-.917-.386-1.688-.482-1.688-.482s.386-.579 0-1.252c-.386-.676-.964-.82-.964-.82s1.06-.772.723-1.832c-.337-1.06-1.184-1.01-1.184-1.01s1.28-.676 1.28-1.447-.771-1.688-.771-1.688.82-.481.868-1.252c.048-.772-.382-1.542-.382-1.542s.96.24 1.346-.29c.386-.53.144-1.288.144-1.288s.675-.062 1.494-.543c.82-.483.916-1.06.916-1.06s.77.819 1.59.53c.82-.29 1.109-.82 1.109-.82s.706 1.218 1.59.62l.884-.597s.217 1.415.679 1.299c.461-.117 1.25-.63 1.25-.63s-.21 1.26.272 1.2c.482-.06 1.104-.248 1.104-.248s-.255 1.795.59 1.646c.713-.127 1.532 1.492 1.532 1.492l.484-3.866-11.03-3.046-7.331 5.601 1.157 9.397 3.662 5.254 5.735-.772.723-1.004zM123.121 139.069s-2.078-.032-1.823.689c.255.722 2.227.64 2.227.64s-1.038 1.65 0 1.862c1.038.212 2.165-.382 2.165-.382s-.576 1.654.23 1.95c.805.297 1.907 0 1.907 0s-.848.51-.508 1.57c.339 1.058 2.247.422 2.247.422s-.721.636-.51 1.57c.213.932 2.29.848 2.29.848s-.721.212-.551 1.526c.17 1.314 1.95 1.399 1.95 1.399s-1.102.593-.974 1.908c.126 1.314 1.737 1.23 1.737 1.23s-1.62 1.314-1.339 2.458c.28 1.145 1.763 1.145 1.763 1.145s-1.865.976-1.95 1.739c-.085.762 1.06 1.908 1.06 1.908s-1.356-.298-1.866.508c-.508.805.595 1.993.595 1.993s-1.23-.636-1.824 0c-.593.635.636 1.441.636 1.441s-1.764-.008-1.95.806c-.186.814-.254 1.569 1.23 1.441 1.483-.127 7.946-8.819 5.796-13.567-2.15-4.749-4.248-11.713-7.164-13.213-2.915-1.499-5.374-1.891-5.374-1.891"/>
        <path fill="#EFEFEF" d="M167.02 165.932c-.852.216-2.004.383-2.48.432-.338.034-.671.087-1.003.162-1.328.302-5.377.556-5.413-7.54-.043-9.686 5.341-10.304 10.068-9.377 2.922.573 4.623 2.65 5.427 4.76 1.292.816 2.858 1.766 4.18 2.837.158.129.315.26.47.393.493-.673.869-1.219.943-1.405 1.635-4.12 3.75-9.896 4.317-13.11 1.472-8.33-3.06-18.37-3.06-18.37s-17.533 4.151-27.656 3.446c-10.123-.707-18.443-6.89-18.443-6.89s-3.737 5.453-5.593 7.947c-1.857 2.495-5.838 9.498-5.838 9.498s9.627 4.953 11.502 15.08c1.875 10.128-6.677 12.752-3.937 14.392 2.74 1.64 21.333 6.858 35.232-.163.737-.372 1.742-.97 2.591-1.49-.512-.254-.79-.413-1.308-.602"/>
        <path fill="#E5E3E1" d="M126.79 129.517s3.436-5.967 5.717-3.653c2.28 2.314 6.6 5.305 15.335 7.274 8.911 2.008 13.194-1.086 13.613 4.714.418 5.8-2.337 11.914-9.558 9.958-7.221-1.956-27.67-9.104-27.724-11.34-.053-2.236 2.616-6.953 2.616-6.953"/>
        <path fill="#EFEFEF" d="M130.363 128.514s-3.722 5.366-3.569 5.976c.152.61 9.602 4.739 10.974 4.579 1.372-.16 3.063-4.996 2.294-5.931-.77-.935-9.7-4.624-9.7-4.624M146.825 135.238s-2.514 6.027-2.236 6.592c.277.564 10.383 2.619 11.69 2.175 1.308-.443 1.947-5.527.999-6.28-.948-.753-10.453-2.487-10.453-2.487"/>
        <path fill="#80D8E6" d="M133.828 122.36c-.356-.501-.202-1.222.404-1.321.063-.01.88-.266.944-.269.647-.031 1.122.282 1.122.282s7.13 5.315 12.044 5.717c4.914.4 18.672 1.865 27.17-1.31 4.83-1.806 5.337-.458 5.337-.458s.086.864-1.419 1.516c-1.504.652-13.714 3.16-21.982 2.992-8.268-.167-14.525-2.45-18.807-4.232-2.473-1.03-4.282-2.172-4.813-2.917M122.607 139.07s7.992 4.783 9.747 9.931c1.755 5.148 3.336 9.756-.583 15.05-3.92 5.295-1.447 4.294-1.447 4.294s4.19-5.121 4.563-9.87c.372-4.748-1.396-10.335-3.212-12.895-1.816-2.561-8.686-7.496-9.068-7.263-.383.233 0 .752 0 .752M167.02 165.932s-4.629.996-5.845.416c-1.217-.582-3.279-2.744-3.05-7.362.227-4.618 1.11-9.238 5.837-9.596 4.725-.358 7.92 1.14 9.263 4.095 1.343 2.956.851-.67.255-1.267-.596-.596-2.803-3.855-7.385-3.482-4.583.374-7.38.478-8.106 5.892-.725 5.414-1.062 10.05 2.15 11.656 3.212 1.606 8.188.25 8.188.25l-1.308-.602z"/>
        <path fill="#DCD058" d="M193.866 110.65s-7.136 9.43-5.475 10.86c1.66 1.432 7.54-9.627 7.54-9.627l-2.065-1.233z"/>
        <path fill="#DCD058" d="M193.403 108.446s-.537 2.38 1.07 3.548c1.608 1.167 3.934-.053 3.934-.053s-1.9-.22-3.038-1.049-1.966-2.446-1.966-2.446"/>
        <path fill="#4EFEDF" d="M206.126 107.83a7.321 7.321 0 1 1-13.354-6.005 7.321 7.321 0 0 1 13.354 6.005"/>
        <path fill="#6AAEBA" d="M195.223 110.82l.017.016a3.73 3.73 0 0 0 3.367.946 8.3 8.3 0 0 0 5.821-4.715 8.307 8.307 0 0 0-.438-7.662 3.502 3.502 0 0 0-2.635-1.694 7.304 7.304 0 0 0-.228-.02c-.179-.013-.277.199-.165.339a7.653 7.653 0 0 1-5.595 12.441c-.179.009-.272.223-.144.348"/>
        <path fill="#39C6AE" d="M197.795 98.68l.045 1.25 1.055.672-1.175.43-.313 1.21-.771-.984-1.248.076.698-1.037-.46-1.165 1.204.344zM196.262 105.728l.036 1.012.855.542-.951.348-.253.98-.624-.798-1.01.063.564-.84-.37-.942.973.279zM200.638 103.203l.036 1.012.854.542-.95.348-.253.98-.624-.797-1.01.062.564-.84-.37-.942.972.279zM206.239 102.164l-.53.788.774-.047a7.501 7.501 0 0 0-.244-.74M206.641 106.156l-.403.333-.974-.279.372.942-.565.84 1.004-.062c.016-.034.035-.065.05-.1.247-.547.411-1.11.516-1.674M203.376 110.439l-.78.644-.973-.279.354.9a7.299 7.299 0 0 0 1.42-.703l-.02-.562z"/>
        <path fill="#FFF" fill-opacity=".01" d="M0 189h1v1H0zM299 0h1v1h-1z"/>
    </g>
</svg>
