<svg width="608" height="414" viewBox="0 0 608 414" fill="none" xmlns="http://www.w3.org/2000/svg">
<g filter="url(#filter0_d)">
<rect x="133" y="36" width="342" height="342" rx="8" fill="white"/>
<rect x="133.5" y="36.5" width="341" height="341" rx="7.5" stroke="#F0F4F7"/>
</g>
<g filter="url(#filter1_d)">
<rect x="60" y="96" width="488" height="252" rx="8" fill="white"/>
</g>
<path d="M368 120C368 117.791 369.791 116 372 116H524C526.209 116 528 117.791 528 120V202C528 204.209 526.209 206 524 206H372C369.791 206 368 204.209 368 202V120Z" fill="#70AAFC"/>
<g style="mix-blend-mode:multiply" opacity="0.8">
<ellipse cx="447.999" cy="150.359" rx="14.4451" ry="14.359" fill="#70AAFC"/>
<path d="M448 168.309C425.901 168.309 407.666 184.752 405 206.001H491C488.334 184.752 470.099 168.309 448 168.309Z" fill="#70AAFC"/>
</g>
<path d="M459.042 191.603C459.343 193.44 461 194.845 462.998 194.845C464.977 194.845 466.62 193.468 466.945 191.658C466.987 191.489 467.004 191.353 466.999 191.237C466.999 191.103 466.9 191 466.762 191H466.538H459.496H459.238C459.1 191 459.001 191.103 459.001 191.236C459.001 191.236 459 191.236 459 191.236C459 191.239 459 191.242 459.001 191.245C458.997 191.346 459.01 191.463 459.042 191.603H459.042Z" fill="#70AAFC"/>
<path d="M464.967 197.199C464.816 196.28 463.987 195.578 462.988 195.578C461.999 195.578 461.177 196.266 461.015 197.171C460.994 197.256 460.985 197.324 460.988 197.382C460.988 197.448 461.037 197.5 461.106 197.5H461.218H464.739H464.868C464.937 197.5 464.987 197.448 464.987 197.382C464.987 197.382 464.987 197.382 464.987 197.382C464.987 197.38 464.987 197.379 464.987 197.377C464.989 197.327 464.982 197.269 464.967 197.199Z" fill="#70AAFC"/>
<rect x="347" y="108" width="1" height="228" fill="#F6F8FA"/>
<rect x="368.5" y="316.5" width="159" height="23" rx="3.5" fill="white" stroke="#F0F4F7"/>
<rect x="510" y="322" width="12" height="12" rx="4" fill="#F0F4F7"/>
<rect x="368" y="252" width="12" height="12" rx="6" fill="#FFA1A1"/>
<rect x="388" y="256" width="74" height="4" fill="#F6F8FA"/>
<rect x="368" y="232" width="12" height="12" rx="6" fill="#1BD697"/>
<rect x="368" y="232" width="12" height="12" rx="6" fill="#2D81F7"/>
<mask id="mask0" mask-type="alpha" maskUnits="userSpaceOnUse" x="368" y="232" width="12" height="12">
<rect x="368" y="232" width="12" height="12" rx="6" fill="#70AAFC"/>
</mask>
<g mask="url(#mask0)">
<g style="mix-blend-mode:multiply">
<ellipse cx="374.018" cy="236.173" rx="2.18957" ry="2.17263" fill="#2D81F7"/>
</g>
<g style="mix-blend-mode:multiply">
<path d="M374.018 238.887C370.668 238.887 367.904 241.375 367.5 244.59H380.536C380.132 241.375 377.368 238.887 374.018 238.887Z" fill="#2D81F7"/>
</g>
<path d="M375.384 241.251C375.435 241.563 375.716 241.801 376.056 241.801C376.391 241.801 376.67 241.567 376.726 241.26C376.733 241.231 376.736 241.208 376.735 241.189C376.735 241.166 376.718 241.148 376.694 241.148H376.656H375.461H375.417C375.394 241.148 375.377 241.166 375.377 241.189C375.377 241.189 375.377 241.189 375.377 241.189C375.377 241.189 375.377 241.19 375.377 241.19C375.376 241.207 375.379 241.227 375.384 241.251L375.384 241.251Z" fill="#2D81F7"/>
<path d="M376.389 242.203C376.363 242.047 376.223 241.928 376.053 241.928C375.885 241.928 375.746 242.044 375.718 242.198C375.715 242.212 375.713 242.224 375.714 242.234C375.714 242.245 375.722 242.254 375.734 242.254H375.753H376.35H376.372C376.384 242.254 376.392 242.245 376.392 242.234C376.393 242.234 376.393 242.234 376.393 242.234C376.393 242.234 376.393 242.233 376.393 242.233C376.393 242.225 376.392 242.215 376.389 242.203Z" fill="#2D81F7"/>
</g>
<rect x="428" y="214" width="40" height="10" rx="5" fill="#FFEED7"/>
<rect x="428" y="272" width="40" height="10" rx="5" fill="#FFEED7"/>
<rect x="419" y="290" width="60" height="10" rx="5" fill="#FFEED7"/>
<rect x="140" y="176" width="25.4" height="92" fill="#F6F8FA"/>
<rect x="174" y="197" width="25" height="71" fill="#F6F8FA"/>
<rect x="208" y="232" width="25" height="36" fill="#F6F8FA"/>
<rect x="242" y="209" width="25" height="59" fill="#F6F8FA"/>
<path d="M392.12 241.07C393.21 241.07 394.27 240.71 394.91 240.19V237.13H391.96V238.33H393.56V239.38C393.1 239.66 392.63 239.78 392.12 239.78C390.78 239.78 389.96 238.76 389.96 237.46C389.96 236.01 390.89 235.14 392.06 235.14C392.84 235.14 393.44 235.45 393.88 235.87L394.88 235.03C394.15 234.2 393.06 233.81 392.06 233.81C389.84 233.81 388.49 235.38 388.49 237.46C388.49 239.74 390.07 241.07 392.12 241.07ZM398.519 241.08C400.039 241.08 401.119 240.06 401.119 238.56C401.119 237.06 400.039 236.04 398.519 236.04C396.969 236.04 395.929 237.1 395.929 238.56C395.929 240.02 396.969 241.08 398.519 241.08ZM398.519 239.91C397.779 239.91 397.249 239.32 397.249 238.56C397.249 237.79 397.759 237.21 398.519 237.21C399.249 237.21 399.789 237.76 399.789 238.56C399.789 239.35 399.229 239.91 398.519 239.91ZM404.496 241.08C406.016 241.08 407.096 240.06 407.096 238.56C407.096 237.06 406.016 236.04 404.496 236.04C402.946 236.04 401.906 237.1 401.906 238.56C401.906 240.02 402.946 241.08 404.496 241.08ZM404.496 239.91C403.756 239.91 403.226 239.32 403.226 238.56C403.226 237.79 403.736 237.21 404.496 237.21C405.226 237.21 405.766 237.76 405.766 238.56C405.766 239.35 405.206 239.91 404.496 239.91ZM411.672 233.64V236.67H411.642C411.282 236.25 410.772 236.04 410.172 236.04C408.862 236.04 407.872 237.09 407.872 238.57C407.872 240.08 408.862 241.08 410.212 241.08C410.862 241.08 411.372 240.84 411.712 240.41H411.732V241H412.982V233.64H411.672ZM410.452 239.91C409.722 239.91 409.202 239.37 409.202 238.58C409.202 237.74 409.752 237.21 410.452 237.21C411.202 237.21 411.742 237.8 411.742 238.58C411.742 239.38 411.172 239.91 410.452 239.91ZM422.881 236.04C422.181 236.04 421.581 236.31 421.181 236.82H421.161C420.861 236.28 420.351 236.04 419.711 236.04C419.161 236.04 418.631 236.29 418.251 236.77H418.241V236.12H416.931V241H418.241V238.56C418.241 237.68 418.681 237.21 419.271 237.21C419.881 237.21 420.131 237.7 420.131 238.48V241H421.441V238.56C421.441 237.68 421.891 237.21 422.441 237.21C423.051 237.21 423.291 237.7 423.291 238.48V241H424.601V238.16C424.601 236.67 423.941 236.04 422.881 236.04ZM428.178 241.08C429.698 241.08 430.778 240.06 430.778 238.56C430.778 237.06 429.698 236.04 428.178 236.04C426.628 236.04 425.588 237.1 425.588 238.56C425.588 240.02 426.628 241.08 428.178 241.08ZM428.178 239.91C427.438 239.91 426.908 239.32 426.908 238.56C426.908 237.79 427.418 237.21 428.178 237.21C428.908 237.21 429.448 237.76 429.448 238.56C429.448 239.35 428.888 239.91 428.178 239.91ZM434.624 236.04C434.044 236.04 433.514 236.32 433.144 236.84H433.134V236.12H431.824V241H433.134V238.73C433.134 238.01 433.574 237.46 434.384 237.46C434.454 237.46 434.594 237.46 434.724 237.47V236.05C434.704 236.04 434.664 236.04 434.624 236.04ZM438.464 236.04C437.864 236.04 437.304 236.28 436.904 236.75H436.884V236.12H435.574V241H436.884V238.54C436.884 237.67 437.334 237.21 437.994 237.21C438.604 237.21 438.934 237.5 438.934 238.43V241H440.244V238.1C440.244 236.6 439.514 236.04 438.464 236.04ZM442.212 235.43C442.662 235.43 443.032 235.07 443.032 234.63C443.032 234.19 442.662 233.83 442.212 233.83C441.772 233.83 441.402 234.19 441.402 234.63C441.402 235.07 441.772 235.43 442.212 235.43ZM441.552 241H442.862V236.12H441.552V241ZM447.136 236.04C446.536 236.04 445.976 236.28 445.576 236.75H445.556V236.12H444.246V241H445.556V238.54C445.556 237.67 446.006 237.21 446.666 237.21C447.276 237.21 447.606 237.5 447.606 238.43V241H448.916V238.1C448.916 236.6 448.186 236.04 447.136 236.04ZM453.634 236.12V236.62H453.604C453.214 236.23 452.694 236.04 452.144 236.04C450.834 236.04 449.884 237.07 449.884 238.51C449.884 239.93 450.864 240.91 452.214 240.91C452.804 240.91 453.294 240.71 453.634 240.34H453.664V240.83C453.664 241.43 453.194 241.92 452.274 241.92C451.654 241.92 451.174 241.73 450.694 241.46L450.384 242.57C450.964 242.89 451.624 243.06 452.394 243.06C454.264 243.06 454.934 241.96 454.934 240.44V236.12H453.634ZM452.454 239.73C451.754 239.73 451.214 239.24 451.214 238.47C451.214 237.73 451.724 237.23 452.454 237.23C453.144 237.23 453.684 237.71 453.684 238.46C453.684 239.2 453.174 239.73 452.454 239.73ZM456.499 238.67H457.459L457.699 233.64H456.269L456.499 238.67ZM456.959 241.08C457.399 241.08 457.769 240.73 457.769 240.29C457.769 239.85 457.399 239.49 456.959 239.49C456.509 239.49 456.149 239.85 456.149 240.29C456.149 240.73 456.509 241.08 456.959 241.08Z" fill="#3C4852"/>
<path d="M133.5 44C133.5 39.8579 136.858 36.5 141 36.5H467C471.142 36.5 474.5 39.8579 474.5 44V75.5H133.5V44Z" fill="white" stroke="#F0F4F7"/>
<rect x="431.5" y="46.5" width="19" height="19" rx="2.54094" stroke="#F0F4F7"/>
<path d="M157.083 51.2057C157.686 54.8798 160.999 57.6896 164.997 57.6896C168.953 57.6896 172.24 54.9364 172.891 51.317C172.974 50.9771 173.009 50.7057 172.998 50.4732C172.998 50.2068 172.799 50 172.524 50H172.076H157.992H157.476C157.201 50 157.002 50.2065 157.002 50.4726C157.001 50.4726 157.001 50.4726 157 50.4725C157 50.4785 157.001 50.4844 157.001 50.4904C156.994 50.6929 157.02 50.925 157.083 51.2057H157.083Z" fill="#2D81F7"/>
<path d="M168.929 62.3972C168.627 60.5601 166.971 59.1552 164.972 59.1552C162.994 59.1552 161.35 60.5318 161.025 62.3415C160.983 62.5114 160.966 62.6471 160.971 62.7634C160.971 62.8966 161.071 63 161.208 63H161.432H168.474H168.732C168.87 63 168.969 62.8968 168.969 62.7637C168.97 62.7637 168.97 62.7637 168.97 62.7637C168.97 62.7608 168.97 62.7578 168.97 62.7548C168.973 62.6535 168.96 62.5375 168.929 62.3972Z" fill="#08BD80"/>
<defs>
<filter id="filter0_d" x="97" y="0" width="414" height="414" filterUnits="userSpaceOnUse" color-interpolation-filters="sRGB">
<feFlood flood-opacity="0" result="BackgroundImageFix"/>
<feColorMatrix in="SourceAlpha" type="matrix" values="0 0 0 0 0 0 0 0 0 0 0 0 0 0 0 0 0 0 127 0"/>
<feOffset/>
<feGaussianBlur stdDeviation="18"/>
<feColorMatrix type="matrix" values="0 0 0 0 0.941176 0 0 0 0 0.956863 0 0 0 0 0.968627 0 0 0 1 0"/>
<feBlend mode="normal" in2="BackgroundImageFix" result="effect1_dropShadow"/>
<feBlend mode="normal" in="SourceGraphic" in2="effect1_dropShadow" result="shape"/>
</filter>
<filter id="filter1_d" x="23.7015" y="77.8507" width="560.597" height="324.597" filterUnits="userSpaceOnUse" color-interpolation-filters="sRGB">
<feFlood flood-opacity="0" result="BackgroundImageFix"/>
<feColorMatrix in="SourceAlpha" type="matrix" values="0 0 0 0 0 0 0 0 0 0 0 0 0 0 0 0 0 0 127 0"/>
<feOffset dy="18.1493"/>
<feGaussianBlur stdDeviation="18.1493"/>
<feColorMatrix type="matrix" values="0 0 0 0 0.941176 0 0 0 0 0.956863 0 0 0 0 0.968627 0 0 0 1 0"/>
<feBlend mode="normal" in2="BackgroundImageFix" result="effect1_dropShadow"/>
<feBlend mode="normal" in="SourceGraphic" in2="effect1_dropShadow" result="shape"/>
</filter>
</defs>
</svg>
