<svg xmlns="http://www.w3.org/2000/svg" xmlns:xlink="http://www.w3.org/1999/xlink" width="1620" height="301" viewBox="0 0 1620 301">
  <defs>
    <clipPath id="clip-path">
      <rect id="Rectangle_1501" data-name="Rectangle 1501" width="1620" height="301" rx="25" transform="translate(150 5601.99)" fill="#e7f4ff"/>
    </clipPath>
  </defs>
  <g id="Illustration_-_we_care_about_your_safety" data-name="Illustration - we care about your safety" transform="translate(-150 -5601.99)" clip-path="url(#clip-path)">
    <g id="Group_17914" data-name="Group 17914" transform="translate(287.52 5544.16)">
      <circle id="Ellipse_369" data-name="Ellipse 369" cx="230.149" cy="230.149" r="230.149" transform="translate(953.262 -83.994)" fill="rgba(21,81,174,0.25)"/>
      <g id="Group_17903" data-name="Group 17903" transform="translate(1204.661 97.89)">
        <g id="Group_17900" data-name="Group 17900" transform="translate(5.93 189.045)">
          <path id="Path_13105" data-name="Path 13105" d="M1441.751,395.834l4.908,71.756h-50.825V456.81l-3.051,10.78H1325.1l13.543-71.756Z" transform="translate(-1325.096 -395.834)" fill="#f73c4f"/>
          <path id="Path_13106" data-name="Path 13106" d="M1340.75,410.121l2.7-14.287h103.111l.557,2.165C1439.3,399.094,1368.229,410.716,1340.75,410.121Z" transform="translate(-1329.903 -395.834)" fill="#ba2f42"/>
          <path id="Path_13107" data-name="Path 13107" d="M1427.182,474.684l3.058-17.694,15.248-2.949" transform="translate(-1356.444 -413.708)" fill="none" stroke="#ba2f42" stroke-linecap="round" stroke-linejoin="round" stroke-width="1.5"/>
          <line id="Line_1" data-name="Line 1" x1="10.589" y2="61.306" transform="translate(8.99 10.451)" fill="none" stroke="#ba2f42" stroke-linecap="round" stroke-linejoin="round" stroke-width="1.5"/>
          <path id="Path_13108" data-name="Path 13108" d="M1360.512,410.916s-2.786,24.541-13.5,25.428" transform="translate(-1331.826 -400.465)" fill="none" stroke="#ba2f42" stroke-linecap="round" stroke-linejoin="round" stroke-width="1.5"/>
          <path id="Path_13109" data-name="Path 13109" d="M1441.762,425.783h0V395.834h7.412v22.537A7.412,7.412,0,0,1,1441.762,425.783Z" transform="translate(-1360.921 -395.834)" fill="none" stroke="#ba2f42" stroke-linecap="round" stroke-linejoin="round" stroke-width="1.5"/>
          <line id="Line_2" data-name="Line 2" y2="11.971" transform="translate(80.841 29.949)" fill="none" stroke="#ba2f42" stroke-linecap="round" stroke-linejoin="round" stroke-width="1.5"/>
        </g>
        <g id="Group_17902" data-name="Group 17902">
          <path id="Path_13110" data-name="Path 13110" d="M1652.213,223.678l-31.446,3.983a4.575,4.575,0,0,1-5.1-3.952h0a4.574,4.574,0,0,1,3.952-5.1l31.447-3.982a4.575,4.575,0,0,1,5.1,3.952h0A4.575,4.575,0,0,1,1652.213,223.678Z" transform="translate(-1408.383 -151.133)" fill="#ffa297"/>
          <g id="Group_17901" data-name="Group 17901" transform="translate(194.187 48.755)">
            <path id="Path_13111" data-name="Path 13111" d="M1609.843,227.481c-3.133,7.132-10.138,24.266-12.942,40.775a8.344,8.344,0,0,0,8.216,9.756h29.64a8.333,8.333,0,0,0,8.3-7.574,43.629,43.629,0,0,0-8.12-30.057,23.764,23.764,0,0,1-4.208-11.266,5.738,5.738,0,0,0-5.7-5.067H1615.1A5.742,5.742,0,0,0,1609.843,227.481Z" transform="translate(-1596.781 -202.792)" fill="#ffd774"/>
            <path id="Path_13112" data-name="Path 13112" d="M1604.108,268.256c2.8-16.509,9.808-33.643,12.941-40.775a5.742,5.742,0,0,1,5.262-3.433H1615.1a5.742,5.742,0,0,0-5.261,3.433c-3.133,7.132-10.138,24.266-12.942,40.775a8.344,8.344,0,0,0,8.216,9.756h7.2A8.343,8.343,0,0,1,1604.108,268.256Z" transform="translate(-1596.781 -202.792)" fill="#e4911f"/>
            <rect id="Rectangle_6808" data-name="Rectangle 6808" width="12.61" height="5.764" transform="translate(17.141 15.492)" fill="#f8efea"/>
            <path id="Path_13113" data-name="Path 13113" d="M1647.239,195.774l-33.866-2.4v8.046l6.965,3.243v4.2h9.968V205.5l4.129-.791,7.833,14.721,3.177-.738-3.577-15.407,5.371-1.028Z" transform="translate(-1601.876 -193.372)" fill="#f73c4f"/>
            <path id="Path_13114" data-name="Path 13114" d="M1623.425,209.663l9.968.841v3.363h-9.968Z" transform="translate(-1604.963 -198.375)" fill="#ba2f42"/>
            <line id="Line_3" data-name="Line 3" y1="1.423" x2="7.433" transform="translate(32.559 9.915)" fill="none" stroke="#ba2f42" stroke-linecap="round" stroke-linejoin="round" stroke-width="1.5"/>
            <path id="Path_13115" data-name="Path 13115" d="M1662.247,197.791l1.621.721v3.828l-1.621.405Z" transform="translate(-1616.885 -194.729)" fill="#faab44"/>
          </g>
          <path id="Path_13116" data-name="Path 13116" d="M1650.548,241.912a3.428,3.428,0,0,0,.987-2.323c0-1.862-1.712-3.455-4.138-4.117a3.539,3.539,0,0,0,1.21-2.553c0-2.456-2.976-4.448-6.645-4.448s-6.645,1.991-6.645,4.448c0,1.862,1.711,3.455,4.138,4.117a3.537,3.537,0,0,0-1.209,2.553c0,1.915,1.81,3.542,4.345,4.168a2.981,2.981,0,0,0-.629,1.783c0,2.221,2.69,4.021,6.007,4.021s6.009-1.8,6.009-4.021C1653.977,243.937,1652.574,242.559,1650.548,241.912Z" transform="translate(-1414.427 -155.395)" fill="#ffa297"/>
          <path id="Path_13117" data-name="Path 13117" d="M1577.916,215.591c-2.615-.216-5.22.511-7.864.434-2.6-.074-5.022-.318-7.595-.222-6.6.245-8.774,4.728-12.372,8.731a59.915,59.915,0,0,0-6.5,8.165c-.871,1.425-33.184,48.44-33.184,48.44l-3.779-5.967-43.839,27L1481.21,331.4c9.848,11.754,27.21,10.765,27.21,10.765,41.347-1.825,54.743-83.64,55.36-87.557a22.255,22.255,0,0,0,2.444-5.142,28.519,28.519,0,0,0,1.293-7.4c.1-2.1-.59-4.16.058-6.142,1.266-3.867,3.569-7.87,3.361-12.04,2.851-.352,7.914-.956,10.106-2.673C1584.035,218.864,1581.349,215.876,1577.916,215.591Z" transform="translate(-1361.447 -151.428)" fill="#ffa297"/>
          <path id="Path_13118" data-name="Path 13118" d="M1389.712,156.059c-.371-5.565-2.059-10.961-1.2-16.666.588-3.878,1.717-9.343,6.413-9.248.085-4.108,6.79-4.941,9.714-5.058,3.041-.123,6.086.228,9.1-.01,2.327-.184,3.646-1.184,5.756-1.822,3.243-.982,3.382,1.188,4.666,3.041,1.708,2.465,7.42-.254,10.106.545a7.633,7.633,0,0,1,5.564,8.747c-.4,2.9-2.306,4.627-3.248,7.112,2.438.065,3.4,2.3,2.691,4.471-.879,2.716-3.918,4.735-6.389,5.869a41.057,41.057,0,0,1-5.462,1.682c-2.647.8-5.134,2.086-7.857,2.615a91.9,91.9,0,0,1-17.58,1.421,35.917,35.917,0,0,1-10.061-1.429,8.165,8.165,0,0,1-1.518-.618C1389.818,156.4,1389.861,156.132,1389.712,156.059Z" transform="translate(-1338.566 -123.011)" fill="#641216"/>
          <path id="Path_13119" data-name="Path 13119" d="M1506.624,301.594l-43.839,27,16.068,25.488C1484.7,327.839,1506.624,301.594,1506.624,301.594Z" transform="translate(-1361.447 -177.85)" fill="#f55c2b"/>
          <path id="Path_13120" data-name="Path 13120" d="M1387.988,214.693a44.713,44.713,0,0,0-13.214.071c-13.013,2.011-46.649,8.5-50.961,27.9-4.842,21.781-7.275,104.575-7.275,104.575h126.434l-3.495-55.629,23.6-17.87-23.6-32.993S1427.413,220.38,1387.988,214.693Z" transform="translate(-1316.538 -151.024)" fill="#69a4c2"/>
          <path id="Path_13121" data-name="Path 13121" d="M1412.285,237.389c17.485-.954,19.85-10.768,19.809-16.171a105.285,105.285,0,0,0-24.813-6.525,44.715,44.715,0,0,0-13.215.071c-3.647.563-8.913,1.479-14.7,2.932h0S1380.987,239.1,1412.285,237.389Z" transform="translate(-1335.831 -151.024)" fill="#fff"/>
          <path id="Path_13122" data-name="Path 13122" d="M1414.774,231.265c10.111,0,13.239-2.424,14.807-12.092a110.556,110.556,0,0,0-19.281-4.48,44.716,44.716,0,0,0-13.215.071c-2.262.349-4.961.838-7.89,1.5C1389.4,227.322,1403.67,231.265,1414.774,231.265Z" transform="translate(-1338.849 -151.024)" fill="#ffa297"/>
          <rect id="Rectangle_6809" data-name="Rectangle 6809" width="22.22" height="31.155" transform="translate(57.9 39.708)" fill="#ffa297"/>
          <path id="Path_13123" data-name="Path 13123" d="M1400.1,180.316v8.853s11.486,13.817,22.221,14.651v-23.5Z" transform="translate(-1342.197 -140.608)" fill="#f55c2b"/>
          <path id="Path_13124" data-name="Path 13124" d="M1527.578,310.205s-6.639,5.469-8.862,10.87" transform="translate(-1378.622 -180.494)" fill="none" stroke="#f55c2b" stroke-linecap="round" stroke-linejoin="round" stroke-width="1.5"/>
          <path id="Path_13125" data-name="Path 13125" d="M1572.661,290.344v-.212" transform="translate(-1395.187 -174.33)" fill="none"/>
          <path id="Path_13126" data-name="Path 13126" d="M1362.919,448.3h-46.38l2.2-115.988h44.177Z" transform="translate(-1316.538 -187.281)" fill="#ffa297"/>
          <path id="Path_13127" data-name="Path 13127" d="M1319.54,332.308h44.177l-44.578,7.444Z" transform="translate(-1317.337 -187.281)" fill="#f55c2b"/>
          <line id="Line_4" data-name="Line 4" y1="28.706" x2="1.271" transform="translate(46.38 116.321)" fill="none" stroke="#376f92" stroke-linecap="round" stroke-linejoin="round" stroke-width="1.5"/>
          <line id="Line_5" data-name="Line 5" x1="2.7" y1="24.778" transform="translate(120.239 115.802)" fill="none" stroke="#376f92" stroke-linecap="round" stroke-linejoin="round" stroke-width="1.5"/>
          <path id="Path_13128" data-name="Path 13128" d="M1406.107,153.284c-1.354,8.577-13.735,10.96-13.735,10.96l-2-6.048a4.58,4.58,0,0,0-3.8-.391c-2.657.972-3.824,4.459-2.605,7.789,1.127,3.077,3.9,4.938,6.407,4.435,1.755,10.917,10.545,19.22,21.133,19.22,11.85,0,21.458-10.4,21.458-23.228a24.8,24.8,0,0,0-1.75-9.2C1422.513,159.364,1406.107,153.284,1406.107,153.284Z" transform="translate(-1337.096 -132.307)" fill="#ffa297"/>
          <path id="Path_13129" data-name="Path 13129" d="M1395.236,166.122s-8.458,25.012,22.98,28.842c0,0,13.141,2.19,16.44-5.236a21.216,21.216,0,0,0,.773-14.134,70.2,70.2,0,0,1-28.49-2.465s-4.606-4.448-4.765-9.53Z" transform="translate(-1340.386 -135.475)" fill="#641216"/>
          <line id="Line_6" data-name="Line 6" x1="6.178" y2="1.097" transform="translate(203.311 72.455)" fill="none" stroke="#f55c2b" stroke-linecap="round" stroke-linejoin="round" stroke-width="1.5"/>
          <path id="Path_13130" data-name="Path 13130" d="M1610.281,246.121a12.767,12.767,0,0,1-6.979,6.353" transform="translate(-1404.596 -160.815)" fill="none" stroke="#f55c2b" stroke-linecap="round" stroke-linejoin="round" stroke-width="1.5"/>
          <path id="Path_13131" data-name="Path 13131" d="M1641.288,240.1s4.4-2.108,7.942-1.564" transform="translate(-1416.261 -158.458)" fill="none" stroke="#f55c2b" stroke-linecap="round" stroke-linejoin="round" stroke-width="1.5"/>
          <path id="Path_13132" data-name="Path 13132" d="M1645.813,249.706a17.169,17.169,0,0,1,7.958-1.845" transform="translate(-1417.651 -161.345)" fill="none" stroke="#f55c2b" stroke-linecap="round" stroke-linejoin="round" stroke-width="1.5"/>
          <path id="Path_13133" data-name="Path 13133" d="M1444.7,154.433l-38.752-.273v-7.506l38.752.273Z" transform="translate(-1343.994 -130.271)" fill="#f73c4f"/>
          <path id="Path_13134" data-name="Path 13134" d="M1410.578,143.79l.09,19.6a6.291,6.291,0,0,0,3.435,5.165l2.081,1.053a6.29,6.29,0,0,1,3.44,5.221l.5,7.943a5.24,5.24,0,0,0,5.121,4.912l20.775.416.218-44.313Z" transform="translate(-1345.416 -129.392)" fill="none" stroke="#fff" stroke-miterlimit="10" stroke-width="1.5"/>
          <rect id="Rectangle_6810" data-name="Rectangle 6810" width="12.927" height="3.177" transform="translate(49.028 18.383)" fill="#fff"/>
          <rect id="Rectangle_6811" data-name="Rectangle 6811" width="5.926" height="43.999" transform="translate(78.995 14.398)" fill="#fff" opacity="0.5"/>
          <rect id="Rectangle_6812" data-name="Rectangle 6812" width="2.963" height="43.999" transform="translate(87.254 14.398)" fill="#fff" opacity="0.5"/>
        </g>
      </g>
      <g id="Group_17909" data-name="Group 17909" transform="translate(952.208 93.401)">
        <g id="Group_17904" data-name="Group 17904" transform="translate(55 188.452)">
          <path id="Path_13135" data-name="Path 13135" d="M1050.044,388.5l-18.462,77.3h61.156l3.224-11.613,3.051,11.613H1159l-9.02-77.3Z" transform="translate(-1031.581 -388.499)" fill="#2a878e"/>
          <path id="Path_13136" data-name="Path 13136" d="M1159.407,401.3l-1.494-12.8h-99.934l-.557,2.332C1065.234,392.011,1131.929,401.942,1159.407,401.3Z" transform="translate(-1039.516 -388.499)" fill="#20707b"/>
          <path id="Path_13137" data-name="Path 13137" d="M1116.379,473.439l-3.058-19.06-15.248-3.177" transform="translate(-1051.999 -407.754)" fill="none" stroke="#89c4c0" stroke-linecap="round" stroke-linejoin="round" stroke-width="1.5"/>
          <line id="Line_7" data-name="Line 7" x2="12.014" y2="74.928" transform="translate(106.489 2.37)" fill="none" stroke="#89c4c0" stroke-linecap="round" stroke-linejoin="round" stroke-width="1.5"/>
          <path id="Path_13138" data-name="Path 13138" d="M1172.625,391.92s3.861,35.325,14.573,36.279" transform="translate(-1074.893 -389.55)" fill="none" stroke="#89c4c0" stroke-linecap="round" stroke-linejoin="round" stroke-width="1.5"/>
        </g>
        <path id="Path_13139" data-name="Path 13139" d="M1002.271,295.022s-25.2,47.666,1.906,67.143c0,0,10.571,4.228,20.534-1.066s21.4-31.705,21.4-31.705l-18.637-18.911-4.081,4.78,1.319-20.241Z" transform="translate(-964.309 -171.342)" fill="#ffa297"/>
        <path id="Path_13140" data-name="Path 13140" d="M991.871,330.211c10.067-9.479,32.425-27.605,32.425-27.605h0l.494-7.583h-22.441S993.249,312.242,991.871,330.211Z" transform="translate(-964.388 -171.342)" fill="#f55c2b"/>
        <path id="Path_13141" data-name="Path 13141" d="M1041.555,317.334l-4.08,4.78s12.08,21.84,12.366,33.634a156.678,156.678,0,0,0,10.351-19.5Z" transform="translate(-978.392 -178.194)" fill="#f55c2b"/>
        <g id="Group_17905" data-name="Group 17905" transform="translate(4.603 110.935)">
          <path id="Path_13142" data-name="Path 13142" d="M993.588,282.46s-6.737-9.36-17.014-4.361c-7.937,3.86-14.621.4-15.766,3.751s7.464,5.927,13.413,5.532c0,0-12.7,11.162-15,19.383s6.912,1.035,6.912,1.035-5.594,6.02-3.974,8c1.991,2.434,5.967.858,7.971-1.192,0,0-.583,4.012,3.09,3.4,2.284-.378,7.01-4.241,7.01-4.241s-3.578,4.591-.887,5.207,6.942-1.311,13.579-8.454S1015.168,289.224,993.588,282.46Z" transform="translate(-958.852 -276.63)" fill="#ffa297"/>
          <path id="Path_13143" data-name="Path 13143" d="M981.032,292.148s7.865,3.967,12.462,1.866" transform="translate(-965.663 -281.395)" fill="none" stroke="#f55c2b" stroke-linecap="round" stroke-linejoin="round" stroke-width="1.5"/>
          <line id="Line_8" data-name="Line 8" y1="10.697" x2="10.06" transform="translate(7.281 20.474)" fill="none" stroke="#f55c2b" stroke-linecap="round" stroke-linejoin="round" stroke-width="1.5"/>
          <path id="Path_13144" data-name="Path 13144" d="M975.127,325.213c.08-.423,13.469-14.05,13.469-14.05" transform="translate(-963.849 -287.234)" fill="none" stroke="#f55c2b" stroke-linecap="round" stroke-linejoin="round" stroke-width="1.5"/>
          <line id="Line_9" data-name="Line 9" y1="9.896" x2="9.083" transform="translate(21.377 27.247)" fill="none" stroke="#f55c2b" stroke-linecap="round" stroke-linejoin="round" stroke-width="1.5"/>
          <line id="Line_10" data-name="Line 10" x2="18.024" y2="9.772" transform="translate(15.912 19.287)" fill="none" stroke="#f55c2b" stroke-linecap="round" stroke-linejoin="round" stroke-width="1.5"/>
        </g>
        <path id="Path_13145" data-name="Path 13145" d="M1162.281,188.649c-4.014-22.905-32.2-18.951-33.789-23.421s4.13-11.678,0-25.85c-3.1-10.64-15.153-11.62-20.968-11.447a32.566,32.566,0,0,0-.527-3.339c-.128-1.037-.774-6.994-2.887-5.9-1.862.962-.321,4.67-.284,6.174-.448-1.758-3.945-9.835-6.575-7.389-.906.843-.747,2.208-.238,3.57-6.3-4.452-15-7.208-22.63-.453-8.11,7.179-6.34,17.285-4.57,22.661a6.3,6.3,0,0,1-1.105,6.006c-3.28,3.955-5.656,10.662-5.656,10.662-19.06-.549-30.5,20.982-23.507,41.636s31.767,23.051,31.767,23.051c17.154,17.009,47.969,5.653,47.969,5.653C1156.766,235.455,1166.3,211.553,1162.281,188.649Z" transform="translate(-978.392 -116.532)" fill="#641216"/>
        <path id="Path_13146" data-name="Path 13146" d="M1085.517,217.366s-36.214,2.149-46.8,13.651-27.736,51.482-27.736,51.482l17.783,13.244a46.963,46.963,0,0,0,11.648,13.342l-.635,29.079h107.533l-3.479-39.022a74.323,74.323,0,0,1,.162-9.486c1.137-13.892,17.24-56.9-33.43-65.815Z" transform="translate(-970.255 -147.496)" fill="#ffd774"/>
        <path id="Path_13147" data-name="Path 13147" d="M1053.45,347.64s35.505-10.618,68.05,0" transform="translate(-983.297 -186.051)" fill="none" stroke="#e4911f" stroke-linecap="round" stroke-linejoin="round" stroke-width="1.5"/>
        <path id="Path_13148" data-name="Path 13148" d="M1107.743,246.327c14.491,0,26.918-10.8,27.363-21.893-.933-.223-1.878-.428-2.851-.594l-25.042-6.474a166.1,166.1,0,0,0-25.359,3.781,16.107,16.107,0,0,0-.225,2.639C1081.629,235.182,1092.969,246.327,1107.743,246.327Z" transform="translate(-991.95 -147.496)" fill="#fff"/>
        <path id="Path_13149" data-name="Path 13149" d="M1132.85,215.247l-9.286-2.4,1.281-22.459h-21.774l-4.257,19.731c-3.185.419-6.869.99-10.682,1.757a13.778,13.778,0,0,0-.68,4.262c0,9.677,10.169,17.522,22.713,17.522s22.714-7.845,22.714-17.522C1132.88,215.839,1132.869,215.543,1132.85,215.247Z" transform="translate(-993.738 -139.212)" fill="#ffa297"/>
        <path id="Path_13150" data-name="Path 13150" d="M1104.694,207.4c17.249-.818,25.359-15.5,25.359-15.5h0l.087-1.52h-21.775Z" transform="translate(-999.033 -139.212)" fill="#f55c2b"/>
        <path id="Path_13151" data-name="Path 13151" d="M1131.32,165.528a4.541,4.541,0,0,0-3.659.409c-.006.012-1.846,3.9-1.806,6.437,0,0-1.762-4.659-3.879-5.083-1.689-.337-6.046-.033-10.518-1.71a12.046,12.046,0,0,1-3.371-1.689l-.016-.009a2.919,2.919,0,0,1-.278-.207c-4.986-3.718-7.385-10.468-7.385-10.468l-6.138,5.061a9.635,9.635,0,0,0-3.5,7.042c-.027.671-.03,1.409-.03,2.276,0,12.386,8.628,22.427,19.272,22.427,7.519,0,14.028-5.012,17.2-12.321h0c2.68.9,5.773-1.085,6.906-4.444S1134,166.433,1131.32,165.528Z" transform="translate(-994.747 -127.794)" fill="#ffa297"/>
        <path id="Path_13152" data-name="Path 13152" d="M1124.661,167.291c-1.689-.337-6.046-.033-10.518-1.71a12.05,12.05,0,0,1-3.371-1.689l-.015-.009a2.961,2.961,0,0,1-.278-.207c-4.986-3.718-7.385-10.468-7.385-10.468l-3.611,2.978c2.219,3.456,7.261,10.262,12.63,10.417,4.869.141,9.977.527,12.776.762A1.913,1.913,0,0,0,1124.661,167.291Z" transform="translate(-997.433 -127.794)" fill="#f55c2b"/>
        <path id="Path_13153" data-name="Path 13153" d="M1146.255,284.192c-9.054,12.441-17.36,23.841-17.36,23.841l38.313,29.2" transform="translate(-1006.464 -168.017)" fill="none" stroke="#063d51" stroke-linecap="round" stroke-linejoin="round" stroke-width="1.5"/>
        <g id="Group_17906" data-name="Group 17906" transform="translate(0 100.561)">
          <path id="Path_13154" data-name="Path 13154" d="M997.736,282.276v-.006A4.061,4.061,0,0,0,990,280.536a5.71,5.71,0,0,0-1.305-.214v-.014a3.678,3.678,0,0,0-7.357,0c0,.051.013.1.015.149a3.845,3.845,0,1,0-.453,7.484,4.409,4.409,0,1,0,7.96,3.71c.065,0,.13-.008.194-.015A5.16,5.16,0,0,0,998.672,290a3.936,3.936,0,0,0-.936-7.727Z" transform="translate(-959.656 -266.256)" fill="#fff"/>
          <path id="Path_13155" data-name="Path 13155" d="M995.411,266.458a2.4,2.4,0,1,0-2.4-2.4A2.4,2.4,0,0,0,995.411,266.458Z" transform="translate(-964.738 -261.658)" fill="#fff"/>
          <path id="Path_13156" data-name="Path 13156" d="M982.462,269.381a1.43,1.43,0,1,0-1.429-1.43A1.43,1.43,0,0,0,982.462,269.381Z" transform="translate(-961.059 -263.152)" fill="#fff"/>
          <path id="Path_13157" data-name="Path 13157" d="M970.439,304.7a2.7,2.7,0,1,0-5.278-1.181c-.019,0-.037-.006-.058-.006a3.268,3.268,0,1,0,2.154,5.707,3.381,3.381,0,1,0,3.181-4.52Z" transform="translate(-955.165 -273.851)" fill="#fff"/>
          <circle id="Ellipse_370" data-name="Ellipse 370" cx="1.88" cy="1.88" r="1.88" transform="translate(15.881 23.119)" fill="#fff"/>
          <path id="Path_13158" data-name="Path 13158" d="M1012.089,274.774a1.112,1.112,0,1,0,1.111,1.112A1.113,1.113,0,0,0,1012.089,274.774Z" transform="translate(-970.255 -265.686)" fill="#fff"/>
          <path id="Path_13159" data-name="Path 13159" d="M985.632,315.347a1.756,1.756,0,1,0,1.755,1.755A1.755,1.755,0,0,0,985.632,315.347Z" transform="translate(-961.933 -278.145)" fill="#fff"/>
          <path id="Path_13160" data-name="Path 13160" d="M954.175,312.89a1.967,1.967,0,1,0,1.967,1.967A1.966,1.966,0,0,0,954.175,312.89Z" transform="translate(-952.208 -277.39)" fill="#fff"/>
          <path id="Path_13161" data-name="Path 13161" d="M967.9,320.414a1.354,1.354,0,1,0,1.354,1.354A1.354,1.354,0,0,0,967.9,320.414Z" transform="translate(-956.612 -279.701)" fill="#fff"/>
        </g>
        <g id="Group_17907" data-name="Group 17907" transform="translate(21.526 101.45)">
          <path id="Path_13162" data-name="Path 13162" d="M1083.659,309.738l-43.922-25.626s-6.989-12.972-13.183-14.718-15.249-4.448-17.314-6.353c0,0-4.13-1.112-3.971,4.129s8.736,6.195,9.372,8.9c0,0-27.8.953-28.114,3.971s1.524,5.209,10.8,6.3c0,0-13.184-.586-13.978,2.431s4.765,5.4,9.689,5.242c0,0-4.924,0-4.765,2.7s10.006,3.335,10.006,3.335,1.112,3.813,8.736,4.288,20.172,1.43,22.078,2.383c0,0,29.544,40.5,49.08,45.268,0,0,16.519,1.747,24.779-2.859S1122.49,330.7,1122.49,330.7L1088.5,304.655Z" transform="translate(-983.273 -262.942)" fill="#ffa297"/>
          <path id="Path_13163" data-name="Path 13163" d="M1156.9,362.1a134.967,134.967,0,0,0,12.225-12.913l-33.992-26.049S1159.275,347.284,1156.9,362.1Z" transform="translate(-1029.905 -281.427)" fill="#f55c2b"/>
          <line id="Line_11" data-name="Line 11" x2="11.516" y2="0.764" transform="translate(14.054 23.398)" fill="none" stroke="#f55c2b" stroke-linecap="round" stroke-linejoin="round" stroke-width="1.5"/>
          <line id="Line_12" data-name="Line 12" x2="15.938" transform="translate(8.996 31.074)" fill="none" stroke="#f55c2b" stroke-linecap="round" stroke-linejoin="round" stroke-width="1.5"/>
          <line id="Line_13" data-name="Line 13" x2="10.563" y2="0.582" transform="translate(15.007 37.107)" fill="none" stroke="#f55c2b" stroke-linecap="round" stroke-linejoin="round" stroke-width="1.5"/>
          <path id="Path_13164" data-name="Path 13164" d="M1028.541,281.247s4.368.4,4.209-1.43" transform="translate(-997.174 -268.124)" fill="none" stroke="#f55c2b" stroke-linecap="round" stroke-linejoin="round" stroke-width="1.5"/>
          <path id="Path_13165" data-name="Path 13165" d="M1049.4,325.734s5,.238,6.115-.874" transform="translate(-1003.579 -281.955)" fill="none" stroke="#f55c2b" stroke-linecap="round" stroke-linejoin="round" stroke-width="1.5"/>
        </g>
        <path id="Path_13166" data-name="Path 13166" d="M1025,283.682a2.612,2.612,0,0,0-.418.042,3.155,3.155,0,0,0,.087-.714,3.193,3.193,0,1,0-6.386,0c0,.08.017.155.024.234a3.966,3.966,0,1,0,5.044,5,2.583,2.583,0,1,0,1.65-4.566Z" transform="translate(-971.682 -166.673)" fill="#fff"/>
        <g id="Group_17908" data-name="Group 17908" transform="translate(6.051 75.592)">
          <path id="Path_13167" data-name="Path 13167" d="M970.2,250.159a4.64,4.64,0,1,1-9.262,0c0-2.725,4.631-8.154,4.631-8.154S970.2,247.435,970.2,250.159Z" transform="translate(-960.94 -230.654)" fill="#69a4c2"/>
          <path id="Path_13168" data-name="Path 13168" d="M991.708,262.409a3.427,3.427,0,1,1-6.84,0c0-2.012,3.42-6.022,3.42-6.022S991.708,260.4,991.708,262.409Z" transform="translate(-968.288 -235.071)" fill="#69a4c2"/>
          <path id="Path_13169" data-name="Path 13169" d="M987.712,231.646a3.427,3.427,0,1,1-6.84,0c0-2.012,3.42-6.022,3.42-6.022S987.712,229.634,987.712,231.646Z" transform="translate(-967.061 -225.624)" fill="#69a4c2"/>
        </g>
        <path id="Path_13170" data-name="Path 13170" d="M1102.074,148.3s-1.464-9.8-5.911-11.066" transform="translate(-996.413 -122.891)" fill="none" stroke="#440a10" stroke-linecap="round" stroke-linejoin="round" stroke-width="1.5"/>
        <line id="Line_14" data-name="Line 14" y1="8.502" x2="1.322" transform="translate(72.141 105.361)" fill="none" stroke="#e4911f" stroke-linecap="round" stroke-linejoin="round" stroke-width="1.5"/>
      </g>
      <g id="Group_17913" data-name="Group 17913" transform="translate(1073.122 97.89)">
        <path id="Path_13171" data-name="Path 13171" d="M1325.209,484.978H1201.22l4.228-34.017h116.944Z" transform="translate(-1149.588 -223.717)" fill="#376f92"/>
        <path id="Path_13172" data-name="Path 13172" d="M1323.205,450.961H1206.262l-2.39,19.229h0c4.559-4.165,119.333-8.425,119.333-8.425l.84-.671Z" transform="translate(-1150.402 -223.717)" fill="#063d51"/>
        <rect id="Rectangle_6813" data-name="Rectangle 6813" width="9.398" height="22.753" transform="translate(108.04 238.048)" fill="none" stroke="#063d51" stroke-linecap="round" stroke-linejoin="round" stroke-width="1.5"/>
        <path id="Path_13173" data-name="Path 13173" d="M1332.8,289.173a93.466,93.466,0,0,1-6.4-9.4c-8.244-13.753-25.882-23.848-41.2-26.615-16.911-3.053-33.822-7.319-33.822-7.319h-8.925s-16.911,4.266-33.821,7.319c-15.324,2.767-32.961,12.862-41.2,26.615a93.59,93.59,0,0,1-6.4,9.4c-7.961,10.222-23.617,33.736-12.288,48.3,0,0,14.562,14.8,36.64,4.932v56.369h123.071V342.408c22.078,9.865,36.64-4.932,36.64-4.932C1356.412,322.91,1340.757,299.4,1332.8,289.173Z" transform="translate(-1132.249 -160.728)" fill="#f73c4f"/>
        <circle id="Ellipse_371" data-name="Ellipse 371" cx="26.423" cy="26.423" r="26.423" transform="translate(0.278 126.368)" fill="#f73c4f"/>
        <path id="Path_13174" data-name="Path 13174" d="M1311.836,252.169c-14.984-2.908-28.555-6.331-28.555-6.331h-8.925s-11.882,3-25.686,5.765a32.993,32.993,0,0,0,63.166.566Z" transform="translate(-1164.159 -160.728)" fill="#fff"/>
        <path id="Path_13175" data-name="Path 13175" d="M1307.847,250.7c-11.824-2.477-21.263-4.858-21.263-4.858h-8.925s-7.867,1.984-18.233,4.214a25.295,25.295,0,0,0,48.421.644Z" transform="translate(-1167.462 -160.728)" fill="#ffa297"/>
        <path id="Path_13176" data-name="Path 13176" d="M1302.828,241.371h-29.9l1.409-38.44h27.083Z" transform="translate(-1171.607 -147.553)" fill="#ffa297"/>
        <path id="Path_13177" data-name="Path 13177" d="M1274.829,202.931l-.292,7.986h0s8,11.234,28.081,11.234l-.7-19.22Z" transform="translate(-1172.102 -147.553)" fill="#f55c2b"/>
        <ellipse id="Ellipse_372" data-name="Ellipse 372" cx="5.681" cy="7.119" rx="5.681" ry="7.119" transform="translate(88.31 35.591)" fill="#ffa297"/>
        <ellipse id="Ellipse_373" data-name="Ellipse 373" cx="5.681" cy="7.119" rx="5.681" ry="7.119" transform="translate(130.235 35.591)" fill="#ffa297"/>
        <path id="Path_13178" data-name="Path 13178" d="M1307.843,140.491a17.319,17.319,0,0,0-2.229-4.941c-.87-1.2-2.356-2.088-3.156-3.115a3.222,3.222,0,0,0,.745-3.509c-1.135-3.509-4.461-3.6-7.713-3.766a21.374,21.374,0,0,0-3.782.154c-.143-.867-.809-1.462-2.351-1.479-2.983-.033-5.328,1.251-7.538,2.925.639-2.428-.02-5.157-2.964-2.912a14.631,14.631,0,0,0-5.369,10,12.1,12.1,0,0,0-5.894-1.081c-2.414.1-4.976,2.272-6.488,4.108-2.752,3.344-2.847,7.714-3.05,11.839a26.745,26.745,0,0,0,2.108,12.847c1.018,2.215,2.434,4.4,3.554,6.436l36.362,1.013a10.812,10.812,0,0,0,4.8-4.712c1.41-2.25,1.353-5.5,1.474-8.145.075-1.629-.243-2.244.533-3.55C1308.906,149.2,1308.994,144.21,1307.843,140.491Z" transform="translate(-1167.024 -123.011)" fill="#641216"/>
        <path id="Path_13179" data-name="Path 13179" d="M1287.012,165.659c-10.992,1.906-13.641-7.046-13.641-7.046-8.671,5.4-10.081,10.921-10.986,14.937-.021.5-.035,1-.035,1.5,0,15.5,9.674,28.067,21.608,28.067s21.608-12.566,21.608-28.067a35.715,35.715,0,0,0-.624-6.669,5,5,0,0,0-4.608-4.057C1297.214,164.153,1292.81,164.654,1287.012,165.659Z" transform="translate(-1168.36 -133.944)" fill="#ffa297"/>
        <path id="Path_13180" data-name="Path 13180" d="M1310.032,169.9c-.074-.509-.156-1.015-.251-1.514a5,5,0,0,0-4.608-4.057c-3.121-.175-7.525.326-13.323,1.33-10.993,1.906-13.641-7.046-13.641-7.046l-.105.067a13.779,13.779,0,0,0,2.349,5.343,14.3,14.3,0,0,0,8.845,5.656c4.6.847,9.236-.516,13.87-.5A32.247,32.247,0,0,1,1310.032,169.9Z" transform="translate(-1173.197 -133.944)" fill="#f55c2b"/>
        <g id="Group_17910" data-name="Group 17910" transform="translate(0 32.673)">
          <path id="Path_13181" data-name="Path 13181" d="M1211.666,187.334c2.151-2.171-.172-4.329-.172-4.329-3.039-2.114-2.246-10.921-8.235-12.683-3.663-1.077-9.034,3.575-12.658,7.353l-1.493-.718a6.322,6.322,0,0,0-6.811,0c-6.459-3.758-10.686-.47-10.686-.47h-2.936c-7.516.7-5.167,7.281-8.925,12.448s-4.11,8.338-5.99,22.431-33.586,54.255-25.836,77.742,27.245,20.434,27.245,20.434c26.892-5.167,25.836-36.053,27.245-51.2s5.989-39.459,5.989-39.459c9.512,1.409,16.323-9.395,17.5-15.149s5.167-9.512,6.811-11.157C1214.139,191.149,1214.323,188.841,1211.666,187.334Zm-9.757,4.3c-.822,2.584-5.637,3.406-5.637,3.406l1.333-9.293c-.031.152-.042.039.028-.92l2.58-2.743,1.99,3.033a6.763,6.763,0,0,0,2.2,2.91A8.425,8.425,0,0,0,1201.908,191.635Z" transform="translate(-1126.707 -170.163)" fill="#ffa297"/>
          <path id="Path_13182" data-name="Path 13182" d="M1188.718,179.289s6.283,1.585,6.107,6.518.416,20.417-7.5,18.495c-6.157-1.5-4.924-7.75-4.571-11.625" transform="translate(-1143.815 -172.966)" fill="none" stroke="#f55c2b" stroke-linecap="round" stroke-linejoin="round" stroke-width="1.5"/>
          <path id="Path_13183" data-name="Path 13183" d="M1198.4,199.751s1.6,3.526,6.617,3.262,5.9-6.342,5.725-9.952-.176-10.511-6.43-13.094" transform="translate(-1148.722 -173.174)" fill="none" stroke="#f55c2b" stroke-linecap="round" stroke-linejoin="round" stroke-width="1.5"/>
          <path id="Path_13184" data-name="Path 13184" d="M1214.874,207.335a4.094,4.094,0,0,0,4.009,2.724c3.347.176,4.462-3.993,4.462-3.993" transform="translate(-1153.781 -181.188)" fill="none" stroke="#f55c2b" stroke-linecap="round" stroke-linejoin="round" stroke-width="1.5"/>
          <path id="Path_13185" data-name="Path 13185" d="M1218.917,181s7.13,2.725,7.031,7.154" transform="translate(-1155.022 -173.492)" fill="none" stroke="#f55c2b" stroke-linecap="round" stroke-linejoin="round" stroke-width="1.5"/>
          <path id="Path_13186" data-name="Path 13186" d="M1208.042,239.169s-4.08-1.526-5.138-2.936c0,0-8.807,2.466-12.242.881" transform="translate(-1146.346 -190.452)" fill="none" stroke="#f55c2b" stroke-linecap="round" stroke-linejoin="round" stroke-width="1.5"/>
          <path id="Path_13187" data-name="Path 13187" d="M1211.184,212.337s1.8,4.492,0,8.632" transform="translate(-1152.648 -183.114)" fill="none" stroke="#f55c2b" stroke-linecap="round" stroke-linejoin="round" stroke-width="1.5"/>
          <path id="Path_13188" data-name="Path 13188" d="M1238.837,195.358s3.513-2.443,7.261-.694" transform="translate(-1161.139 -177.493)" fill="none" stroke="#f55c2b" stroke-linecap="round" stroke-linejoin="round" stroke-width="1.5"/>
          <path id="Path_13189" data-name="Path 13189" d="M1232.342,185.59a19.076,19.076,0,0,1-1-4.013" transform="translate(-1158.836 -173.668)" fill="none" stroke="#f55c2b" stroke-linecap="round" stroke-linejoin="round" stroke-width="1.5"/>
        </g>
        <path id="Path_13190" data-name="Path 13190" d="M1203.373,379.759a65.049,65.049,0,0,0,6.87-12.287" transform="translate(-1150.25 -198.079)" fill="none" stroke="#ba2f42" stroke-linecap="round" stroke-linejoin="round" stroke-width="1.5"/>
        <path id="Path_13191" data-name="Path 13191" d="M1151.657,366.85s31.373,6.782,39.476-27.744" transform="translate(-1134.368 -189.369)" fill="none" stroke="#ba2f42" stroke-linecap="round" stroke-linejoin="round" stroke-width="1.5"/>
        <circle id="Ellipse_374" data-name="Ellipse 374" cx="26.423" cy="26.423" r="26.423" transform="translate(176.238 126.368)" fill="#f73c4f"/>
        <g id="Group_17911" data-name="Group 17911" transform="translate(142.331 32.673)">
          <path id="Path_13192" data-name="Path 13192" d="M1333.139,192.575c1.644,1.644,5.636,5.4,6.811,11.157s7.986,16.558,17.5,15.149c0,0,4.58,24.309,5.989,39.459s.352,46.034,27.245,51.2c0,0,19.495,3.053,27.245-20.434s-23.957-63.65-25.836-77.742-2.231-17.263-5.989-22.431-1.409-11.743-8.925-12.448h-2.936s-4.228-3.288-10.687.47a6.322,6.322,0,0,0-6.812,0l-1.493.718c-3.623-3.778-8.995-8.43-12.657-7.353-5.989,1.762-5.2,10.569-8.235,12.683,0,0-2.322,2.158-.171,4.329C1331.527,188.841,1331.712,191.149,1333.139,192.575Zm8.308-4.547a6.774,6.774,0,0,0,2.2-2.91l1.99-3.033,2.579,2.743c.07.96.059,1.072.027.92l1.333,9.293s-4.814-.822-5.636-3.406A8.432,8.432,0,0,0,1341.447,188.028Z" transform="translate(-1332.113 -170.163)" fill="#ffa297"/>
          <path id="Path_13193" data-name="Path 13193" d="M1390.2,179.289s-6.283,1.585-6.107,6.518-.416,20.417,7.5,18.495c6.157-1.5,4.924-7.75,4.571-11.625" transform="translate(-1348.074 -172.966)" fill="none" stroke="#f55c2b" stroke-linecap="round" stroke-linejoin="round" stroke-width="1.5"/>
          <path id="Path_13194" data-name="Path 13194" d="M1380.541,199.751s-1.6,3.526-6.617,3.262-5.9-6.342-5.725-9.952.177-10.511,6.43-13.094" transform="translate(-1343.188 -173.174)" fill="none" stroke="#f55c2b" stroke-linecap="round" stroke-linejoin="round" stroke-width="1.5"/>
          <path id="Path_13195" data-name="Path 13195" d="M1365.791,207.335a4.094,4.094,0,0,1-4.009,2.724c-3.348.176-4.463-3.993-4.463-3.993" transform="translate(-1339.853 -181.188)" fill="none" stroke="#f55c2b" stroke-linecap="round" stroke-linejoin="round" stroke-width="1.5"/>
          <path id="Path_13196" data-name="Path 13196" d="M1362.385,181s-7.129,2.725-7.031,7.154" transform="translate(-1339.25 -173.492)" fill="none" stroke="#f55c2b" stroke-linecap="round" stroke-linejoin="round" stroke-width="1.5"/>
          <path id="Path_13197" data-name="Path 13197" d="M1368.674,239.169s4.081-1.526,5.138-2.936c0,0,8.808,2.466,12.242.881" transform="translate(-1343.34 -190.452)" fill="none" stroke="#f55c2b" stroke-linecap="round" stroke-linejoin="round" stroke-width="1.5"/>
          <path id="Path_13198" data-name="Path 13198" d="M1372.88,212.337s-1.8,4.492,0,8.632" transform="translate(-1344.385 -183.114)" fill="none" stroke="#f55c2b" stroke-linecap="round" stroke-linejoin="round" stroke-width="1.5"/>
          <path id="Path_13199" data-name="Path 13199" d="M1342.365,195.358s-3.513-2.443-7.261-.694" transform="translate(-1333.032 -177.493)" fill="none" stroke="#f55c2b" stroke-linecap="round" stroke-linejoin="round" stroke-width="1.5"/>
          <path id="Path_13200" data-name="Path 13200" d="M1351.633,185.59a19.113,19.113,0,0,0,1-4.013" transform="translate(-1338.107 -173.668)" fill="none" stroke="#f55c2b" stroke-linecap="round" stroke-linejoin="round" stroke-width="1.5"/>
        </g>
        <path id="Path_13201" data-name="Path 13201" d="M1378,379.759a65.021,65.021,0,0,1-6.87-12.287" transform="translate(-1201.764 -198.079)" fill="none" stroke="#ba2f42" stroke-linecap="round" stroke-linejoin="round" stroke-width="1.5"/>
        <path id="Path_13202" data-name="Path 13202" d="M1415.268,366.85s-31.373,6.782-39.476-27.744" transform="translate(-1203.195 -189.369)" fill="none" stroke="#ba2f42" stroke-linecap="round" stroke-linejoin="round" stroke-width="1.5"/>
        <line id="Line_15" data-name="Line 15" x1="0.405" y2="3.291" transform="translate(100.914 87.235)" fill="none" stroke="#f55c2b" stroke-linecap="round" stroke-linejoin="round" stroke-width="1.5"/>
        <line id="Line_16" data-name="Line 16" x2="0.222" y2="5.417" transform="translate(130.901 85.109)" fill="none" stroke="#f55c2b" stroke-linecap="round" stroke-linejoin="round" stroke-width="1.5"/>
        <rect id="Rectangle_6814" data-name="Rectangle 6814" width="123.072" height="27.643" transform="translate(53.124 184.416)" fill="#fff"/>
        <g id="Group_17912" data-name="Group 17912" transform="translate(84.959 45.998)">
          <path id="Path_13203" data-name="Path 13203" d="M1259.67,192.635l-10.354,1.6,14.713,10.232" transform="translate(-1249.316 -190.389)" fill="none" stroke="#2a878e" stroke-linecap="round" stroke-linejoin="round" stroke-width="1.5"/>
          <path id="Path_13204" data-name="Path 13204" d="M1319.016,192.635l10.354,1.6-14.714,10.232" transform="translate(-1269.38 -190.389)" fill="none" stroke="#2a878e" stroke-linecap="round" stroke-linejoin="round" stroke-width="1.5"/>
          <path id="Path_13205" data-name="Path 13205" d="M1262.351,191.054c3.166,11.531,8.23,21.519,21.608,21.519,13.622,0,18.442-9.988,21.608-21.519l-21.608-1.66Z" transform="translate(-1253.319 -189.394)" fill="#89c4c0"/>
          <path id="Path_13206" data-name="Path 13206" d="M1309.934,191.314c-2.995,10.907-7.421,20.757-19.424,21.756.676.057,1.372.092,2.1.092,13.622,0,18.442-9.988,21.608-21.519Z" transform="translate(-1261.965 -189.984)" fill="#2a878e"/>
          <line id="Line_17" data-name="Line 17" x2="30.722" transform="translate(16.36 8.147)" fill="none" stroke="#2a878e" stroke-linecap="round" stroke-linejoin="round" stroke-width="1.5"/>
          <line id="Line_18" data-name="Line 18" x2="25.062" transform="translate(19.948 15.076)" fill="none" stroke="#2a878e" stroke-linecap="round" stroke-linejoin="round" stroke-width="1.5"/>
        </g>
      </g>
    </g>
    <g id="Vector_Smart_Object1" data-name="Vector Smart Object1" transform="translate(857.253 5786)" opacity="0.8">
      <path id="Subtraction_4" data-name="Subtraction 4" d="M4668.884-1783a8.945,8.945,0,0,1-5.639-2.009,8.821,8.821,0,0,1-3.223-6,8.821,8.821,0,0,1,1.97-6.514,8.9,8.9,0,0,1,4.135-2.823,152.08,152.08,0,0,0,.346-20.8,57.754,57.754,0,0,1-16.021-4.356,52.313,52.313,0,0,0-3.938,9.776l.029.022.049.039a4.242,4.242,0,0,1,1.549,2.884,4.24,4.24,0,0,1-.947,3.131,4.274,4.274,0,0,1-3.318,1.567,4.3,4.3,0,0,1-2.71-.966,4.243,4.243,0,0,1-1.551-2.883,4.238,4.238,0,0,1,.948-3.13,4.274,4.274,0,0,1,3.319-1.568c.136,0,.273.006.408.019a51.885,51.885,0,0,0,3.9-9.917,69.078,69.078,0,0,1-12.258-7.537,152.09,152.09,0,0,0-14.111,17.964,8.858,8.858,0,0,1-.633,10.387,8.892,8.892,0,0,1-6.9,3.26,8.942,8.942,0,0,1-5.638-2.01,8.823,8.823,0,0,1-3.224-6,8.817,8.817,0,0,1,1.971-6.513,8.89,8.89,0,0,1,6.9-3.26,8.882,8.882,0,0,1,3.186.587,150.519,150.519,0,0,0,14.835-17.37,69.4,69.4,0,0,1-9.237-9.725,26.638,26.638,0,0,0-9.407,5.422,7.34,7.34,0,0,1-1.369,6.722,7.355,7.355,0,0,1-5.707,2.7,7.393,7.393,0,0,1-4.663-1.663,7.293,7.293,0,0,1-2.665-4.957,7.289,7.289,0,0,1,1.629-5.384,7.352,7.352,0,0,1,5.708-2.7,7.306,7.306,0,0,1,4.47,1.511,26.837,26.837,0,0,0,8.4-6.789,56.672,56.672,0,0,1-5.889-12.448,155.111,155.111,0,0,0-20.1,4.4,8.869,8.869,0,0,1-1.936,4.446,8.892,8.892,0,0,1-6.9,3.26,8.938,8.938,0,0,1-5.637-2.01,8.824,8.824,0,0,1-3.225-6,8.819,8.819,0,0,1,1.97-6.513,8.894,8.894,0,0,1,6.9-3.26,8.943,8.943,0,0,1,5.639,2.011,8.845,8.845,0,0,1,2.15,2.564,153.5,153.5,0,0,0,19.936-3.159,47.227,47.227,0,0,1-.878-17.223,120.556,120.556,0,0,0-13.358-1.7,6.11,6.11,0,0,1-.518.736,6.071,6.071,0,0,1-4.711,2.225,6.1,6.1,0,0,1-3.849-1.372,6.026,6.026,0,0,1-2.2-4.1,6.016,6.016,0,0,1,1.345-4.444,6.067,6.067,0,0,1,4.71-2.226,6.1,6.1,0,0,1,3.85,1.373,6.064,6.064,0,0,1,2.117,3.526,118.366,118.366,0,0,0,13.149,2.864,47.415,47.415,0,0,1,5.257-13.818,154.775,154.775,0,0,0-17.268-8.928,8.9,8.9,0,0,1-6.008,2.319,8.94,8.94,0,0,1-5.637-2.009,8.822,8.822,0,0,1-3.224-6,8.818,8.818,0,0,1,1.97-6.514,8.893,8.893,0,0,1,6.9-3.26,8.943,8.943,0,0,1,5.637,2.009,8.88,8.88,0,0,1,3.108,8.574,153.983,153.983,0,0,0,16.828,10.117c.884-1.289,1.85-2.573,2.869-3.816a56.876,56.876,0,0,1,7.833-7.847c-3.766-4.646-7.163-8.332-9.35-10.606a6.6,6.6,0,0,1-2.565.516,6.619,6.619,0,0,1-4.173-1.487,6.533,6.533,0,0,1-2.388-4.44,6.527,6.527,0,0,1,1.459-4.821,6.583,6.583,0,0,1,5.109-2.414,6.617,6.617,0,0,1,4.173,1.488,6.6,6.6,0,0,1,2.28,3.742,6.593,6.593,0,0,1-.544,4.272c2.475,3.807,5.49,8,8.488,11.82a56.233,56.233,0,0,1,14.512-7.648,315.721,315.721,0,0,0-10.543-30.273,6.567,6.567,0,0,1-3.791-1.477,6.538,6.538,0,0,1-2.387-4.441,6.529,6.529,0,0,1,1.458-4.821,6.589,6.589,0,0,1,5.112-2.414,6.616,6.616,0,0,1,4.172,1.487,6.535,6.535,0,0,1,2.387,4.442,6.528,6.528,0,0,1-1.46,4.821,6.648,6.648,0,0,1-.935.933,310.4,310.4,0,0,0,9.262,30.7,56.875,56.875,0,0,1,15.2-2.182,32.253,32.253,0,0,0-.681-6.737,5.533,5.533,0,0,1-.864-.579,5.385,5.385,0,0,1-1.968-3.661,5.382,5.382,0,0,1,1.2-3.976,5.43,5.43,0,0,1,4.214-1.99,5.458,5.458,0,0,1,3.441,1.227,5.39,5.39,0,0,1,1.969,3.663,5.381,5.381,0,0,1-1.2,3.974,5.4,5.4,0,0,1-1.958,1.505,31.5,31.5,0,0,0,.225,6.711,56.569,56.569,0,0,1,12.308,2.249,264.141,264.141,0,0,0,15.12-37.056,8.875,8.875,0,0,1-.869-12.177,8.892,8.892,0,0,1,6.9-3.261,8.94,8.94,0,0,1,5.637,2.009,8.825,8.825,0,0,1,3.224,6,8.817,8.817,0,0,1-1.97,6.513,8.894,8.894,0,0,1-6.9,3.26c-.138,0-.277,0-.415-.01a261.971,261.971,0,0,0-15.6,36.536,56.519,56.519,0,0,1,13.517,7.889,22.846,22.846,0,0,0,3.223-4.92,5.132,5.132,0,0,1,.891-4.947,5.17,5.17,0,0,1,4.012-1.9,5.194,5.194,0,0,1,3.275,1.168,5.127,5.127,0,0,1,1.873,3.485,5.126,5.126,0,0,1-1.144,3.784,5.171,5.171,0,0,1-4.011,1.895,5.207,5.207,0,0,1-.682-.045,22.393,22.393,0,0,0-4.226,4.2,56.257,56.257,0,0,1,8.717,10.1,97.043,97.043,0,0,0,11.553-7.654,6.6,6.6,0,0,1,1.431-5.062,6.585,6.585,0,0,1,5.11-2.414,6.617,6.617,0,0,1,4.173,1.488,6.534,6.534,0,0,1,2.388,4.443,6.523,6.523,0,0,1-1.459,4.818,6.586,6.586,0,0,1-5.11,2.414,6.578,6.578,0,0,1-3.464-.982,95.45,95.45,0,0,0-12.386,6.556,56.1,56.1,0,0,1,5.558,13.738,102.862,102.862,0,0,0,23.614-3.951,8.821,8.821,0,0,1,1.978-4.818,8.893,8.893,0,0,1,6.9-3.261,8.939,8.939,0,0,1,5.637,2.009,8.824,8.824,0,0,1,3.224,6,8.818,8.818,0,0,1-1.971,6.513,8.9,8.9,0,0,1-6.9,3.259,8.939,8.939,0,0,1-5.637-2.01,8.839,8.839,0,0,1-2.124-2.518,102.89,102.89,0,0,0-23.545,4.589,56.492,56.492,0,0,1,.189,15.167c2.915.448,5.869.832,8.544,1.109a4.315,4.315,0,0,1,.421-.614,4.274,4.274,0,0,1,3.317-1.567,4.3,4.3,0,0,1,2.71.966,4.241,4.241,0,0,1,1.55,2.881,4.24,4.24,0,0,1-.948,3.132,4.275,4.275,0,0,1-3.317,1.567,4.293,4.293,0,0,1-2.709-.966,4.262,4.262,0,0,1-1.52-2.637c-2.593-.662-5.473-1.318-8.328-1.9a55.9,55.9,0,0,1-4.1,13.86c12.848,8.893,28.34,15.639,34.4,18.126a8.883,8.883,0,0,1,6.113-2.415,8.942,8.942,0,0,1,5.638,2.009,8.824,8.824,0,0,1,3.223,6,8.816,8.816,0,0,1-1.97,6.51,8.9,8.9,0,0,1-6.9,3.26,8.94,8.94,0,0,1-5.637-2.009,8.886,8.886,0,0,1-2.689-3.723,8.925,8.925,0,0,1-.489-4.424,192.763,192.763,0,0,0-34.63-17.614,56.9,56.9,0,0,1-5.026,7.192,55.16,55.16,0,0,1-4.128,4.507c3.11,3.231,5.7,5.72,7.322,7.239a4.337,4.337,0,0,1,.772-.069,4.3,4.3,0,0,1,2.709.966,4.239,4.239,0,0,1,1.549,2.88,4.24,4.24,0,0,1-.946,3.133,4.278,4.278,0,0,1-3.319,1.567,4.3,4.3,0,0,1-2.71-.966,4.241,4.241,0,0,1-1.55-2.883,4.238,4.238,0,0,1,.947-3.13l.008-.01c-1.87-2.335-4.023-4.885-6.227-7.373a47.431,47.431,0,0,1-15.462,9.413,48.952,48.952,0,0,0,3.359,8.3,6.6,6.6,0,0,1,2.894,1.363,6.534,6.534,0,0,1,2.387,4.439,6.531,6.531,0,0,1-1.458,4.822,6.583,6.583,0,0,1-5.109,2.414,6.622,6.622,0,0,1-4.176-1.489,6.531,6.531,0,0,1-2.386-4.438,6.53,6.53,0,0,1,1.458-4.822,6.561,6.561,0,0,1,1.295-1.206,47.988,47.988,0,0,0-2.335-8.094,47.876,47.876,0,0,1-12.27,1.577c-.525,0-1.058-.008-1.583-.025a154.472,154.472,0,0,0,.91,20.519,8.9,8.9,0,0,1,2.729,1.523,8.823,8.823,0,0,1,3.224,6,8.821,8.821,0,0,1-1.969,6.513A8.9,8.9,0,0,1,4668.884-1783Zm-14.157-56.823c-2.53,0-4.53,1.014-5.35,2.714a4.6,4.6,0,0,0-.085,3.574,10.253,10.253,0,0,0,5.343,5.418,11.633,11.633,0,0,0,4.977,1.193c2.531,0,4.53-1.014,5.348-2.712a4.6,4.6,0,0,0,.086-3.576,10.252,10.252,0,0,0-5.343-5.418A11.638,11.638,0,0,0,4654.727-1839.823Zm36.216-3.654a11.123,11.123,0,0,0-5.9,1.885,10.241,10.241,0,0,0-4.612,6.047,4.593,4.593,0,0,0,.54,3.536,5.138,5.138,0,0,0,4.531,2.089,11.129,11.129,0,0,0,5.9-1.885,10.246,10.246,0,0,0,4.613-6.049,4.6,4.6,0,0,0-.54-3.537A5.14,5.14,0,0,0,4690.943-1843.477Zm-23.524-5.6a3.7,3.7,0,0,0-2.87,1.356,3.663,3.663,0,0,0-.819,2.708,3.667,3.667,0,0,0,1.341,2.492,3.711,3.711,0,0,0,2.343.835,3.7,3.7,0,0,0,2.87-1.355,3.665,3.665,0,0,0,.818-2.708,3.667,3.667,0,0,0-1.34-2.493A3.714,3.714,0,0,0,4667.419-1849.075Zm-41.565-15.129a4.2,4.2,0,0,0-2.048.509,4.611,4.611,0,0,0-2.153,2.869,10.225,10.225,0,0,0,1.2,7.5c1.735,3.14,4.647,5.25,7.245,5.25a4.2,4.2,0,0,0,2.046-.509,4.613,4.613,0,0,0,2.154-2.871,10.225,10.225,0,0,0-1.2-7.5C4631.363-1862.095,4628.453-1864.2,4625.854-1864.2Zm87.062-5.046c-2.8,0-6.043,2.846-7.883,6.92-1.428,3.166-1.763,6.585-.876,8.925a4.217,4.217,0,0,0,2.149,2.468,3.665,3.665,0,0,0,1.51.316c2.8,0,6.043-2.847,7.88-6.921,1.428-3.165,1.764-6.585.877-8.925a4.215,4.215,0,0,0-2.148-2.468A3.66,3.66,0,0,0,4712.916-1869.25Zm-63.148,7.513a5.135,5.135,0,0,0-3.985,1.883,5.089,5.089,0,0,0-1.138,3.76,5.1,5.1,0,0,0,1.863,3.464,5.161,5.161,0,0,0,3.255,1.16,5.134,5.134,0,0,0,3.985-1.882,5.087,5.087,0,0,0,1.138-3.76,5.1,5.1,0,0,0-1.862-3.464A5.163,5.163,0,0,0,4649.767-1861.738Zm38.172-.034a3.7,3.7,0,0,0-2.869,1.355,3.666,3.666,0,0,0-.819,2.707,3.67,3.67,0,0,0,1.34,2.494,3.719,3.719,0,0,0,2.343.835,3.7,3.7,0,0,0,2.871-1.356,3.667,3.667,0,0,0,.818-2.708,3.666,3.666,0,0,0-1.34-2.491A3.717,3.717,0,0,0,4687.939-1861.771Zm-20.287-7.472a5.749,5.749,0,0,0-4.463,2.109,5.707,5.707,0,0,0-1.274,4.212,5.709,5.709,0,0,0,2.084,3.879,5.784,5.784,0,0,0,3.646,1.3,5.75,5.75,0,0,0,4.463-2.109,5.7,5.7,0,0,0,1.275-4.21,5.708,5.708,0,0,0-2.085-3.88A5.784,5.784,0,0,0,4667.652-1869.243Zm-12.529-14.268a7.414,7.414,0,0,0-3.745,1.02,7.369,7.369,0,0,0-3.427,4.516,7.332,7.332,0,0,0,.769,5.606,7.423,7.423,0,0,0,6.386,3.653,7.412,7.412,0,0,0,3.743-1.02,7.369,7.369,0,0,0,3.427-4.516,7.335,7.335,0,0,0-.769-5.607A7.422,7.422,0,0,0,4655.123-1883.511Zm41.723.128a4.72,4.72,0,0,0-3.665,1.732,4.684,4.684,0,0,0-1.047,3.46,4.688,4.688,0,0,0,1.712,3.186,4.752,4.752,0,0,0,3,1.068,4.726,4.726,0,0,0,3.667-1.732,4.681,4.681,0,0,0,1.047-3.458,4.689,4.689,0,0,0-1.713-3.187A4.752,4.752,0,0,0,4696.846-1883.384Zm-68.725-15a7.366,7.366,0,0,0-5.305,2.7,14.622,14.622,0,0,0-3.32,6.866,14.21,14.21,0,0,0,.6,8.195,6.6,6.6,0,0,0,4.6,4.276,5.246,5.246,0,0,0,1.042.1,7.366,7.366,0,0,0,5.305-2.7,14.636,14.636,0,0,0,3.321-6.865,14.216,14.216,0,0,0-.6-8.2,6.594,6.594,0,0,0-4.6-4.275A5.258,5.258,0,0,0,4628.121-1898.384Zm53.133-4.6a10.275,10.275,0,0,0-7.971,3.764,10.183,10.183,0,0,0-2.274,7.521,10.19,10.19,0,0,0,3.724,6.926,10.322,10.322,0,0,0,6.506,2.32,10.272,10.272,0,0,0,7.975-3.765,10.18,10.18,0,0,0,2.275-7.518,10.192,10.192,0,0,0-3.724-6.927A10.327,10.327,0,0,0,4681.254-1902.983Zm25.718-1.675a4.033,4.033,0,0,0-1.1.153,4.593,4.593,0,0,0-2.728,2.306,10.342,10.342,0,0,0-.509,7.656c1.146,4.009,4.052,6.919,6.91,6.919a4.061,4.061,0,0,0,1.1-.153,5.072,5.072,0,0,0,3.275-3.579,11.122,11.122,0,0,0-.042-6.383C4712.733-1901.748,4709.828-1904.658,4706.972-1904.658Zm-56.334,9.051a3.9,3.9,0,0,0-3.03,1.431,3.866,3.866,0,0,0-.864,2.856,3.87,3.87,0,0,0,1.415,2.632,3.923,3.923,0,0,0,2.475.882,3.9,3.9,0,0,0,3.027-1.43,3.87,3.87,0,0,0,.865-2.857,3.871,3.871,0,0,0-1.415-2.632A3.919,3.919,0,0,0,4650.638-1895.607Zm15.09-13.912a4.931,4.931,0,0,0-3.827,1.807,4.884,4.884,0,0,0-1.092,3.609,4.89,4.89,0,0,0,1.787,3.323,4.955,4.955,0,0,0,3.125,1.114,4.928,4.928,0,0,0,3.825-1.807,4.883,4.883,0,0,0,1.093-3.608,4.889,4.889,0,0,0-1.787-3.326A4.958,4.958,0,0,0,4665.728-1909.519Zm-12.529-7.906a11.219,11.219,0,0,0-6.334,2.243,10.445,10.445,0,0,0-4.379,6.4,4.685,4.685,0,0,0,.735,3.573,5.117,5.117,0,0,0,4.311,1.9,11.222,11.222,0,0,0,6.332-2.24,10.455,10.455,0,0,0,4.38-6.4,4.692,4.692,0,0,0-.736-3.576A5.114,5.114,0,0,0,4653.2-1917.426Zm23.151-6.824a9.773,9.773,0,0,0-4.788,1.146,4.668,4.668,0,0,0-2.425,3.073,4.53,4.53,0,0,0,.782,3.434,10.555,10.555,0,0,0,6.694,4.043,13.044,13.044,0,0,0,2.606.268,9.781,9.781,0,0,0,4.789-1.146,4.67,4.67,0,0,0,2.425-3.072,5.053,5.053,0,0,0-1.705-4.557,11.418,11.418,0,0,0-5.772-2.922A13.083,13.083,0,0,0,4676.35-1924.25Z" transform="translate(-4575.747 1981)" fill="#2c7bf4" stroke="rgba(0,0,0,0)" stroke-miterlimit="10" stroke-width="1"/>
    </g>
    <g id="Vector_Smart_Object1_copy" data-name="Vector Smart Object1 copy" transform="translate(1008 5606.372)">
      <path id="Subtraction_5" data-name="Subtraction 5" d="M4485.035-1673.744a5.765,5.765,0,0,1-3.635-1.295,5.687,5.687,0,0,1-2.078-3.866,5.684,5.684,0,0,1,1.271-4.2,5.726,5.726,0,0,1,2.665-1.82,97.737,97.737,0,0,0,.223-13.409,37.245,37.245,0,0,1-10.326-2.809,33.785,33.785,0,0,0-2.538,6.3l.008.006.042.034a2.738,2.738,0,0,1,1,1.859,2.733,2.733,0,0,1-.61,2.018,2.758,2.758,0,0,1-2.14,1.01,2.764,2.764,0,0,1-1.746-.623,2.737,2.737,0,0,1-1-1.86,2.733,2.733,0,0,1,.611-2.017,2.754,2.754,0,0,1,2.138-1.009c.087,0,.176,0,.264.013a33.294,33.294,0,0,0,2.513-6.392,44.692,44.692,0,0,1-7.9-4.859,98.091,98.091,0,0,0-9.095,11.579,5.711,5.711,0,0,1-.409,6.695,5.73,5.73,0,0,1-4.448,2.1,5.764,5.764,0,0,1-3.635-1.3,5.684,5.684,0,0,1-2.078-3.864,5.684,5.684,0,0,1,1.27-4.2,5.735,5.735,0,0,1,4.449-2.1,5.723,5.723,0,0,1,2.054.379,97.19,97.19,0,0,0,9.562-11.2,44.881,44.881,0,0,1-5.954-6.271,17.209,17.209,0,0,0-6.063,3.5,4.728,4.728,0,0,1-.883,4.333,4.736,4.736,0,0,1-3.677,1.738,4.765,4.765,0,0,1-3.006-1.072,4.7,4.7,0,0,1-1.719-3.2,4.694,4.694,0,0,1,1.051-3.468,4.739,4.739,0,0,1,3.679-1.738,4.709,4.709,0,0,1,2.882.975,17.271,17.271,0,0,0,5.414-4.376,36.587,36.587,0,0,1-3.795-8.024,100.1,100.1,0,0,0-12.954,2.836,5.7,5.7,0,0,1-1.247,2.866,5.732,5.732,0,0,1-4.449,2.1,5.759,5.759,0,0,1-3.634-1.3,5.686,5.686,0,0,1-2.079-3.866,5.683,5.683,0,0,1,1.271-4.2,5.732,5.732,0,0,1,4.449-2.1,5.762,5.762,0,0,1,3.634,1.3,5.735,5.735,0,0,1,1.386,1.653,98.952,98.952,0,0,0,12.851-2.037,30.381,30.381,0,0,1-.566-11.1,77.828,77.828,0,0,0-8.611-1.095,3.951,3.951,0,0,1-.334.475,3.913,3.913,0,0,1-3.037,1.434,3.935,3.935,0,0,1-2.48-.884,3.88,3.88,0,0,1-1.419-2.638,3.881,3.881,0,0,1,.867-2.866,3.913,3.913,0,0,1,3.038-1.435,3.935,3.935,0,0,1,2.48.884,3.915,3.915,0,0,1,1.364,2.273,76.525,76.525,0,0,0,8.476,1.846,30.57,30.57,0,0,1,3.389-8.909,99.923,99.923,0,0,0-11.13-5.753,5.736,5.736,0,0,1-3.873,1.495,5.76,5.76,0,0,1-3.633-1.3,5.686,5.686,0,0,1-2.079-3.866,5.683,5.683,0,0,1,1.271-4.2,5.733,5.733,0,0,1,4.45-2.1,5.765,5.765,0,0,1,3.634,1.295,5.725,5.725,0,0,1,2,5.527,99.48,99.48,0,0,0,10.847,6.521c.565-.824,1.187-1.652,1.848-2.46a36.691,36.691,0,0,1,5.05-5.058c-2.43-3-4.618-5.373-6.026-6.836a4.261,4.261,0,0,1-1.654.332,4.27,4.27,0,0,1-2.691-.959,4.214,4.214,0,0,1-1.538-2.863,4.208,4.208,0,0,1,.941-3.107,4.242,4.242,0,0,1,3.293-1.556,4.263,4.263,0,0,1,2.689.959,4.215,4.215,0,0,1,1.12,5.166c1.593,2.452,3.536,5.159,5.47,7.62a36.206,36.206,0,0,1,9.355-4.93,203.335,203.335,0,0,0-6.8-19.515,4.22,4.22,0,0,1-2.443-.951,4.213,4.213,0,0,1-1.538-2.862,4.209,4.209,0,0,1,.94-3.108,4.246,4.246,0,0,1,3.295-1.556,4.265,4.265,0,0,1,2.69.959,4.213,4.213,0,0,1,1.538,2.862,4.209,4.209,0,0,1-.94,3.108,4.224,4.224,0,0,1-.6.6,200.476,200.476,0,0,0,5.971,19.788,36.656,36.656,0,0,1,9.794-1.405,20.788,20.788,0,0,0-.438-4.343,3.593,3.593,0,0,1-.557-.373,3.475,3.475,0,0,1-1.269-2.36,3.472,3.472,0,0,1,.775-2.563,3.5,3.5,0,0,1,2.717-1.283,3.518,3.518,0,0,1,2.219.791,3.475,3.475,0,0,1,1.269,2.36,3.473,3.473,0,0,1-.775,2.563,3.464,3.464,0,0,1-1.263.969,20.3,20.3,0,0,0,.146,4.327,36.42,36.42,0,0,1,7.934,1.45,170.184,170.184,0,0,0,9.746-23.888,5.72,5.72,0,0,1-.56-7.848,5.732,5.732,0,0,1,4.449-2.1,5.76,5.76,0,0,1,3.633,1.3,5.686,5.686,0,0,1,2.078,3.865,5.686,5.686,0,0,1-1.27,4.2,5.728,5.728,0,0,1-4.446,2.1c-.088,0-.179,0-.271-.006a168.856,168.856,0,0,0-10.059,23.552,36.409,36.409,0,0,1,8.713,5.085,14.754,14.754,0,0,0,2.077-3.171,3.307,3.307,0,0,1,.574-3.189,3.333,3.333,0,0,1,2.586-1.222,3.349,3.349,0,0,1,2.111.753,3.306,3.306,0,0,1,1.207,2.247,3.3,3.3,0,0,1-.738,2.439,3.336,3.336,0,0,1-2.587,1.222,3.369,3.369,0,0,1-.438-.029,14.448,14.448,0,0,0-2.723,2.706,36.37,36.37,0,0,1,5.618,6.507,62.444,62.444,0,0,0,7.447-4.933,4.252,4.252,0,0,1,.922-3.263,4.244,4.244,0,0,1,3.294-1.556,4.263,4.263,0,0,1,2.689.959,4.21,4.21,0,0,1,1.539,2.861,4.208,4.208,0,0,1-.94,3.109,4.245,4.245,0,0,1-3.294,1.555,4.242,4.242,0,0,1-2.233-.633,61.681,61.681,0,0,0-7.983,4.225,36.183,36.183,0,0,1,3.583,8.856,66.241,66.241,0,0,0,15.22-2.547,5.7,5.7,0,0,1,1.276-3.106,5.732,5.732,0,0,1,4.449-2.1,5.76,5.76,0,0,1,3.633,1.3,5.686,5.686,0,0,1,2.078,3.864,5.684,5.684,0,0,1-1.271,4.2,5.734,5.734,0,0,1-4.449,2.1,5.761,5.761,0,0,1-3.633-1.295,5.671,5.671,0,0,1-1.369-1.624,66.265,66.265,0,0,0-15.178,2.958,36.329,36.329,0,0,1,.122,9.775c1.848.285,3.753.533,5.509.717a2.889,2.889,0,0,1,.271-.4,2.754,2.754,0,0,1,2.139-1.011,2.77,2.77,0,0,1,1.747.622,2.732,2.732,0,0,1,1,1.858,2.734,2.734,0,0,1-.611,2.019,2.754,2.754,0,0,1-2.138,1.01,2.771,2.771,0,0,1-1.748-.623,2.753,2.753,0,0,1-.979-1.7c-1.664-.425-3.52-.848-5.368-1.223a36.047,36.047,0,0,1-2.642,8.934,125.825,125.825,0,0,0,22.177,11.684,5.726,5.726,0,0,1,3.94-1.556,5.763,5.763,0,0,1,3.634,1.3,5.688,5.688,0,0,1,2.078,3.865,5.685,5.685,0,0,1-1.271,4.2,5.734,5.734,0,0,1-4.449,2.1,5.761,5.761,0,0,1-3.633-1.295,5.688,5.688,0,0,1-2.049-5.252,127.81,127.81,0,0,0-22.322-11.354,36.614,36.614,0,0,1-3.239,4.635,35.7,35.7,0,0,1-2.661,2.9c2.014,2.092,3.679,3.693,4.721,4.667a2.787,2.787,0,0,1,.5-.045,2.77,2.77,0,0,1,1.747.622,2.732,2.732,0,0,1,1,1.857,2.735,2.735,0,0,1-.61,2.019,2.756,2.756,0,0,1-2.139,1.011,2.766,2.766,0,0,1-1.746-.623,2.733,2.733,0,0,1-1-1.859,2.731,2.731,0,0,1,.61-2.018l.006-.007c-1.215-1.515-2.6-3.159-4.014-4.752a30.566,30.566,0,0,1-9.967,6.067,31.5,31.5,0,0,0,2.165,5.348,4.254,4.254,0,0,1,1.865.879,4.215,4.215,0,0,1,1.539,2.862,4.209,4.209,0,0,1-.939,3.108,4.248,4.248,0,0,1-3.294,1.556,4.266,4.266,0,0,1-2.691-.96,4.21,4.21,0,0,1-1.539-2.862,4.2,4.2,0,0,1,.94-3.107,4.271,4.271,0,0,1,.834-.777,30.922,30.922,0,0,0-1.5-5.218,30.857,30.857,0,0,1-7.9,1.016c-.339,0-.685-.005-1.027-.016a99.516,99.516,0,0,0,.587,13.226,5.724,5.724,0,0,1,1.759.982,5.688,5.688,0,0,1,2.078,3.866,5.685,5.685,0,0,1-1.27,4.2A5.735,5.735,0,0,1,4485.035-1673.744Zm-9.126-36.627a3.626,3.626,0,0,0-3.447,1.749,2.962,2.962,0,0,0-.056,2.3,6.607,6.607,0,0,0,3.444,3.491,7.5,7.5,0,0,0,3.208.77,3.629,3.629,0,0,0,3.448-1.748,2.963,2.963,0,0,0,.056-2.3,6.609,6.609,0,0,0-3.445-3.493A7.5,7.5,0,0,0,4475.909-1710.372Zm23.345-2.355a7.176,7.176,0,0,0-3.805,1.214,6.6,6.6,0,0,0-2.972,3.9,2.964,2.964,0,0,0,.348,2.281,3.311,3.311,0,0,0,2.92,1.346,7.171,7.171,0,0,0,3.805-1.215,6.606,6.606,0,0,0,2.973-3.9,2.964,2.964,0,0,0-.347-2.28A3.316,3.316,0,0,0,4499.253-1712.727Zm-15.162-3.608a2.383,2.383,0,0,0-1.85.874,2.36,2.36,0,0,0-.528,1.744,2.365,2.365,0,0,0,.864,1.607,2.393,2.393,0,0,0,1.512.539,2.381,2.381,0,0,0,1.848-.873,2.36,2.36,0,0,0,.528-1.745,2.361,2.361,0,0,0-.864-1.607A2.394,2.394,0,0,0,4484.091-1716.335Zm-26.793-9.753a2.711,2.711,0,0,0-1.32.328,2.974,2.974,0,0,0-1.388,1.851,6.59,6.59,0,0,0,.775,4.831c1.118,2.025,3,3.385,4.67,3.385a2.707,2.707,0,0,0,1.317-.328,2.976,2.976,0,0,0,1.389-1.851,6.593,6.593,0,0,0-.775-4.833C4460.85-1724.728,4458.973-1726.088,4457.3-1726.088Zm56.119-3.252c-1.806,0-3.9,1.834-5.081,4.46a7.987,7.987,0,0,0-.564,5.753,2.721,2.721,0,0,0,1.385,1.591,2.365,2.365,0,0,0,.973.2c1.806,0,3.9-1.834,5.081-4.461a7.987,7.987,0,0,0,.565-5.753,2.718,2.718,0,0,0-1.385-1.59A2.361,2.361,0,0,0,4513.417-1729.34Zm-40.7,4.842a3.313,3.313,0,0,0-2.57,1.214,3.285,3.285,0,0,0-.732,2.423,3.286,3.286,0,0,0,1.2,2.232,3.326,3.326,0,0,0,2.1.748,3.309,3.309,0,0,0,2.569-1.214,3.278,3.278,0,0,0,.733-2.422,3.284,3.284,0,0,0-1.2-2.234A3.328,3.328,0,0,0,4472.713-1724.5Zm24.605-.022a2.381,2.381,0,0,0-1.849.874,2.362,2.362,0,0,0-.529,1.745,2.361,2.361,0,0,0,.864,1.606,2.391,2.391,0,0,0,1.509.539,2.387,2.387,0,0,0,1.851-.875,2.359,2.359,0,0,0,.529-1.743,2.367,2.367,0,0,0-.864-1.609A2.4,2.4,0,0,0,4497.318-1724.519Zm-13.078-4.816a3.71,3.71,0,0,0-2.877,1.359,3.681,3.681,0,0,0-.821,2.717,3.678,3.678,0,0,0,1.344,2.5,3.729,3.729,0,0,0,2.351.838,3.708,3.708,0,0,0,2.877-1.359,3.675,3.675,0,0,0,.821-2.715,3.679,3.679,0,0,0-1.344-2.5A3.728,3.728,0,0,0,4484.241-1729.335Zm-8.075-9.2a4.781,4.781,0,0,0-2.414.657,4.776,4.776,0,0,0-1.714,6.525,4.785,4.785,0,0,0,4.116,2.354,4.782,4.782,0,0,0,2.414-.656,4.778,4.778,0,0,0,1.714-6.525A4.785,4.785,0,0,0,4476.166-1738.532Zm26.893.083a3.042,3.042,0,0,0-2.362,1.116,3.023,3.023,0,0,0-.675,2.231,3.021,3.021,0,0,0,1.1,2.053,3.06,3.06,0,0,0,1.931.688,3.049,3.049,0,0,0,2.364-1.117,3.017,3.017,0,0,0,.674-2.229,3.022,3.022,0,0,0-1.1-2.053A3.062,3.062,0,0,0,4503.059-1738.45Zm-44.3-9.669c-2.456,0-4.845,2.651-5.558,6.167a9.165,9.165,0,0,0,.388,5.283,4.253,4.253,0,0,0,2.967,2.757,3.367,3.367,0,0,0,.671.067c2.456,0,4.846-2.653,5.561-6.168a8.557,8.557,0,0,0-.918-6.284,3.864,3.864,0,0,0-2.439-1.755A3.4,3.4,0,0,0,4458.758-1748.118Zm34.25-2.965a6.619,6.619,0,0,0-5.137,2.427,6.562,6.562,0,0,0-1.466,4.848,6.568,6.568,0,0,0,2.4,4.464,6.657,6.657,0,0,0,4.2,1.5,6.62,6.62,0,0,0,5.137-2.426,6.561,6.561,0,0,0,1.467-4.846,6.568,6.568,0,0,0-2.4-4.465A6.657,6.657,0,0,0,4493.008-1751.084Zm16.577-1.08a2.6,2.6,0,0,0-.711.1,3.272,3.272,0,0,0-2.113,2.308,7.165,7.165,0,0,0,.026,4.115c.74,2.584,2.613,4.459,4.455,4.459a2.612,2.612,0,0,0,.711-.1,3.271,3.271,0,0,0,2.111-2.308,7.165,7.165,0,0,0-.026-4.115C4513.3-1750.288,4511.426-1752.164,4509.585-1752.164Zm-36.312,5.835a2.515,2.515,0,0,0-1.952.922,2.494,2.494,0,0,0-.558,1.841,2.5,2.5,0,0,0,.912,1.7,2.531,2.531,0,0,0,1.595.569,2.513,2.513,0,0,0,1.952-.922,2.492,2.492,0,0,0,.557-1.842,2.5,2.5,0,0,0-.912-1.7A2.527,2.527,0,0,0,4473.273-1746.329ZM4483-1755.3a3.176,3.176,0,0,0-2.466,1.166,3.148,3.148,0,0,0-.7,2.327,3.15,3.15,0,0,0,1.152,2.142,3.157,3.157,0,0,0,2.015.718,3.18,3.18,0,0,0,2.466-1.164,3.15,3.15,0,0,0,.7-2.326,3.153,3.153,0,0,0-1.152-2.144A3.192,3.192,0,0,0,4483-1755.3Zm-8.077-5.1a7.23,7.23,0,0,0-4.083,1.446,6.73,6.73,0,0,0-2.823,4.125,3.021,3.021,0,0,0,.474,2.3,3.3,3.3,0,0,0,2.778,1.226,7.237,7.237,0,0,0,4.082-1.444,6.735,6.735,0,0,0,2.824-4.127,3.024,3.024,0,0,0-.475-2.305A3.3,3.3,0,0,0,4474.924-1760.393Zm14.923-4.4a6.3,6.3,0,0,0-3.086.739,3.011,3.011,0,0,0-1.563,1.981,3.257,3.257,0,0,0,1.1,2.936,7.359,7.359,0,0,0,3.721,1.883,8.4,8.4,0,0,0,1.682.173,6.305,6.305,0,0,0,3.085-.739,3.009,3.009,0,0,0,1.563-1.979,3.258,3.258,0,0,0-1.1-2.938,7.363,7.363,0,0,0-3.72-1.884A8.43,8.43,0,0,0,4489.848-1764.792Z" transform="translate(-4425 1801.372)" fill="#2c7bf4" stroke="rgba(0,0,0,0)" stroke-miterlimit="10" stroke-width="1"/>
    </g>
    <g id="Vector_Smart_Object1_copy-2" data-name="Vector Smart Object1 copy" transform="translate(1131.36 5769.866)">
      <path id="Subtraction_5-2" data-name="Subtraction 5" d="M27.584,58.64a2.649,2.649,0,0,1-1.67-.595,2.631,2.631,0,0,1,.853-4.541,44.9,44.9,0,0,0,.1-6.161,17.115,17.115,0,0,1-4.745-1.29,15.51,15.51,0,0,0-1.166,2.9l0,0,.02.015a1.265,1.265,0,0,1-.8,2.245,1.27,1.27,0,0,1-.8-.286,1.265,1.265,0,0,1,.8-2.245c.04,0,.081,0,.121.006a15.3,15.3,0,0,0,1.155-2.937,20.53,20.53,0,0,1-3.631-2.233,45.065,45.065,0,0,0-4.179,5.32,2.64,2.64,0,1,1-1.285-1.05,44.644,44.644,0,0,0,4.393-5.144,20.628,20.628,0,0,1-2.735-2.881,7.907,7.907,0,0,0-2.786,1.606,2.182,2.182,0,1,1-.769-1.117,7.934,7.934,0,0,0,2.488-2.011,16.812,16.812,0,0,1-1.744-3.687,46,46,0,0,0-5.952,1.3A2.636,2.636,0,0,1,2.638,38.14a2.646,2.646,0,0,1-1.67-.6,2.632,2.632,0,0,1,1.673-4.67,2.644,2.644,0,0,1,2.307,1.355,45.473,45.473,0,0,0,5.9-.936,13.961,13.961,0,0,1-.26-5.1,35.747,35.747,0,0,0-3.956-.5,1.8,1.8,0,0,1-2.689.471,1.8,1.8,0,0,1,1.142-3.188,1.8,1.8,0,0,1,1.767,1.451,35.169,35.169,0,0,0,3.894.848,14.048,14.048,0,0,1,1.557-4.093,45.906,45.906,0,0,0-5.114-2.643,2.628,2.628,0,1,1,.814-1.445,45.709,45.709,0,0,0,4.984,3c.26-.379.545-.759.849-1.13a16.858,16.858,0,0,1,2.32-2.324c-1.116-1.378-2.122-2.469-2.769-3.141a1.96,1.96,0,0,1-2-.288,1.949,1.949,0,0,1,1.239-3.458,1.959,1.959,0,0,1,1.236.441,1.937,1.937,0,0,1,.515,2.374c.732,1.127,1.625,2.37,2.513,3.5a16.636,16.636,0,0,1,4.3-2.265,93.418,93.418,0,0,0-3.123-8.966,1.949,1.949,0,0,1,.116-3.895,1.96,1.96,0,0,1,1.236.441,1.947,1.947,0,0,1,0,3.019,92.107,92.107,0,0,0,2.744,9.092,16.842,16.842,0,0,1,4.5-.646,9.553,9.553,0,0,0-.2-2,1.657,1.657,0,0,1-.256-.171A1.607,1.607,0,0,1,27.23,9.822a1.616,1.616,0,0,1,1.019.363,1.606,1.606,0,0,1-.354,2.707,9.326,9.326,0,0,0,.067,1.988,16.735,16.735,0,0,1,3.645.666A78.2,78.2,0,0,0,36.086,4.571a2.643,2.643,0,1,1,1.785.694c-.041,0-.082,0-.124,0a77.583,77.583,0,0,0-4.622,10.821,16.725,16.725,0,0,1,4,2.336,6.78,6.78,0,0,0,.954-1.457,1.531,1.531,0,0,1,1.452-2.027,1.539,1.539,0,0,1,.97.346A1.53,1.53,0,0,1,39.531,18a1.553,1.553,0,0,1-.2-.013,6.637,6.637,0,0,0-1.251,1.243,16.71,16.71,0,0,1,2.581,2.99,28.7,28.7,0,0,0,3.422-2.267,1.954,1.954,0,0,1,3.173-1.774,1.951,1.951,0,0,1-2.265,3.167,28.341,28.341,0,0,0-3.668,1.941,16.627,16.627,0,0,1,1.646,4.069,30.435,30.435,0,0,0,6.993-1.17,2.64,2.64,0,1,1,2.627,2.873,2.647,2.647,0,0,1-1.669-.595,2.606,2.606,0,0,1-.629-.746,30.447,30.447,0,0,0-6.974,1.359,16.693,16.693,0,0,1,.056,4.491c.849.131,1.724.245,2.531.329a1.322,1.322,0,0,1,.124-.182,1.263,1.263,0,1,1-.271,1c-.764-.2-1.617-.39-2.466-.562a16.567,16.567,0,0,1-1.214,4.1,57.813,57.813,0,0,0,10.19,5.368,2.628,2.628,0,1,1-.8,1.542,58.728,58.728,0,0,0-10.256-5.217,16.826,16.826,0,0,1-1.488,2.13,16.4,16.4,0,0,1-1.223,1.334c.925.961,1.69,1.7,2.169,2.144a1.271,1.271,0,0,1,1.031.265,1.266,1.266,0,0,1-.8,2.245,1.271,1.271,0,0,1-.8-.286A1.264,1.264,0,0,1,39.909,46l0,0c-.558-.7-1.2-1.451-1.844-2.183A14.044,14.044,0,0,1,33.488,46.6a14.473,14.473,0,0,0,.995,2.457,1.954,1.954,0,0,1,1.564,1.719A1.95,1.95,0,0,1,34.1,52.92a1.961,1.961,0,0,1-1.236-.441,1.945,1.945,0,0,1-.275-2.742,1.963,1.963,0,0,1,.383-.357,14.207,14.207,0,0,0-.691-2.4,14.176,14.176,0,0,1-3.631.467c-.156,0-.315,0-.472-.007a45.736,45.736,0,0,0,.27,6.077,2.632,2.632,0,0,1-.864,5.121ZM23.391,41.811a1.666,1.666,0,0,0-1.584.8,1.361,1.361,0,0,0-.026,1.059,3.036,3.036,0,0,0,1.582,1.6,3.448,3.448,0,0,0,1.474.354,1.667,1.667,0,0,0,1.584-.8,1.361,1.361,0,0,0,.025-1.059,3.036,3.036,0,0,0-1.583-1.6A3.447,3.447,0,0,0,23.391,41.811Zm10.726-1.082a3.3,3.3,0,0,0-1.748.558A3.032,3.032,0,0,0,31,43.078a1.362,1.362,0,0,0,.16,1.048,1.521,1.521,0,0,0,1.342.618,3.3,3.3,0,0,0,1.748-.558A3.035,3.035,0,0,0,35.619,42.4a1.361,1.361,0,0,0-.16-1.048A1.524,1.524,0,0,0,34.117,40.729ZM27.15,39.072a1.1,1.1,0,1,0,.694.247A1.095,1.095,0,0,0,27.15,39.072ZM14.84,34.59a1.245,1.245,0,0,0-.607.151,1.366,1.366,0,0,0-.638.85,3.028,3.028,0,0,0,.356,2.22A2.74,2.74,0,0,0,16.1,39.367a1.244,1.244,0,0,0,.605-.151,1.367,1.367,0,0,0,.638-.85,3.029,3.029,0,0,0-.356-2.22A2.739,2.739,0,0,0,14.84,34.59ZM40.624,33.1a3.093,3.093,0,0,0-2.334,2.049,3.67,3.67,0,0,0-.259,2.643,1.25,1.25,0,0,0,.636.731,1.086,1.086,0,0,0,.447.093,3.092,3.092,0,0,0,2.334-2.049,3.67,3.67,0,0,0,.26-2.643,1.249,1.249,0,0,0-.636-.731A1.084,1.084,0,0,0,40.624,33.1Zm-18.7,2.225A1.52,1.52,0,1,0,23.1,37.8a1.518,1.518,0,0,0-.214-2.139A1.529,1.529,0,0,0,21.923,35.321Zm11.305-.01a1.1,1.1,0,1,0,.694.247A1.094,1.094,0,0,0,33.228,35.311ZM27.219,33.1a1.706,1.706,0,1,0,1.08.385A1.7,1.7,0,0,0,27.219,33.1Zm-3.71-4.226A2.188,2.188,0,1,0,25.4,29.954,2.2,2.2,0,0,0,23.509,28.873Zm12.356.038a1.4,1.4,0,1,0,.887.316A1.4,1.4,0,0,0,35.865,28.91ZM15.511,24.468c-1.128,0-2.226,1.218-2.554,2.834a4.212,4.212,0,0,0,.178,2.427A1.954,1.954,0,0,0,14.5,31a1.549,1.549,0,0,0,.308.031c1.128,0,2.227-1.219,2.555-2.834a3.932,3.932,0,0,0-.422-2.887A1.776,1.776,0,0,0,15.82,24.5,1.561,1.561,0,0,0,15.511,24.468Zm15.737-1.362a3.046,3.046,0,1,0,1.929.687A3.041,3.041,0,0,0,31.247,23.106Zm7.617-.5a1.2,1.2,0,0,0-.327.045,1.5,1.5,0,0,0-.971,1.061,3.292,3.292,0,0,0,.012,1.891c.34,1.187,1.2,2.049,2.047,2.049a1.2,1.2,0,0,0,.327-.045,1.5,1.5,0,0,0,.97-1.061,3.292,3.292,0,0,0-.012-1.891C40.57,23.471,39.71,22.609,38.864,22.609ZM22.18,25.29a1.157,1.157,0,1,0,.732.261A1.156,1.156,0,0,0,22.18,25.29ZM26.65,21.17a1.462,1.462,0,1,0,.925.33A1.459,1.459,0,0,0,26.65,21.17Zm-3.711-2.341a3.322,3.322,0,0,0-1.876.664,3.092,3.092,0,0,0-1.3,1.9,1.388,1.388,0,0,0,.218,1.059,1.514,1.514,0,0,0,1.276.563,3.325,3.325,0,0,0,1.875-.664,3.094,3.094,0,0,0,1.3-1.9,1.389,1.389,0,0,0-.218-1.059A1.514,1.514,0,0,0,22.939,18.828ZM29.8,16.807a2.9,2.9,0,0,0-1.418.339,1.384,1.384,0,0,0-.718.91,1.5,1.5,0,0,0,.5,1.349,3.382,3.382,0,0,0,1.71.865,3.86,3.86,0,0,0,.773.08,2.9,2.9,0,0,0,1.418-.34,1.383,1.383,0,0,0,.718-.909,1.5,1.5,0,0,0-.505-1.35,3.384,3.384,0,0,0-1.709-.865A3.874,3.874,0,0,0,29.8,16.807Z" transform="translate(0 0)" fill="#2c7bf4" stroke="rgba(0,0,0,0)" stroke-miterlimit="10" stroke-width="1"/>
    </g>
  </g>
</svg>
