<svg xmlns="http://www.w3.org/2000/svg" xmlns:xlink="http://www.w3.org/1999/xlink" width="200" height="127" viewBox="0 0 200 127">
    <defs>
        <path id="a" d="M7.738 4.625s-5.356-1.16-6.354-.547c-.998.612-1.494 1.94-.341 2.91 1.151.969 7.578-.766 7.578-.766S15.554.014 14.967.014c-1.396 0-7.229 4.61-7.229 4.61z"/>
        <path id="c" d="M1.187.884C.743 1.578.188 2.949.188 2.949l.542-.456s.78-1.51 1.293-1.37c.514.14.343 2.36.567 2.537.224.177.817-2.624.388-2.93a1.697 1.697 0 0 0-.93-.298c-.325 0-.648.119-.86.452z"/>
        <path id="e" d="M.828.956C.52 1.644.27 2.953.27 2.953l.477-.489S1.21.995 1.812 1.044c.604.046 1 2.056 1.295 2.18.293.124.209-2.47-.344-2.678a2.473 2.473 0 0 0-.826-.143c-.46 0-.925.139-1.11.553z"/>
        <path id="g" d="M17.247.228c-.77.086-14.56 2.626-15.91 9.524C-.011 16.65.185 20.921.185 20.921s-.552 6.9 4.637 8.497c9.478 2.916 11.425-5.1 11.425-5.1s13.461-2.001 16.605-4.75c3.144-2.748 2.594-6.7 2.594-6.7l1.979-.221s-.898-8.6-6.88-9.884c-5.984-1.286-11.355.428-11.355.428S18.049.227 17.279.227l-.032.001z"/>
        <path id="i" d="M16.287.228C15.517.314 1.02 2.753.377 9.752c-.114 1.242 17.85-6.561 17.85-6.561S17.089.227 16.319.226l-.031.002z"/>
        <path id="k" d="M16.287.228C15.517.314 1.02 2.753.377 9.752c-.114 1.242 17.85-6.561 17.85-6.561S17.088.227 16.319.227l-.031.001z"/>
        <path id="m" d="M10.45 1.829C5.646 3.191.366 10.094.366 10.094l3.956 1.385s13.495-2 16.647-4.745C24.122 3.989 23.571.038 23.571.038S15.254.468 10.45 1.83z"/>
        <path id="o" d="M.271.36c-.211.148-.13.71.183 1.258.312.547.738.872.95.725.212-.147.13-.71-.182-1.257C.96.627.62.326.392.326a.207.207 0 0 0-.12.035z"/>
        <path id="q" d="M.382.095C.17.243.252.805.564 1.353c.313.547.738.871.95.725.213-.147.13-.71-.181-1.257C1.07.363.73.061.5.061a.205.205 0 0 0-.119.034z"/>
        <path id="s" d="M.154.443L1.84 2.256 2.89.203z"/>
        <path id="u" d="M.11.725l1.698 1.74L2.847.413z"/>
        <path id="w" d="M1.368.423L.066.713 2.026 2.2 2.803.148z"/>
        <path id="y" d="M2.884.304a2.565 2.565 0 1 0 .009 5.131A2.565 2.565 0 1 0 2.89.304h-.006z"/>
        <path id="A" d="M.323 2.39a2.566 2.566 0 0 0 2.561 2.57c.826.001 1.553-.395 2.024-1a2.547 2.547 0 0 1-1.564.54 2.566 2.566 0 0 1-2.56-2.57c0-.59.21-1.127.546-1.56A2.551 2.551 0 0 0 .323 2.39z"/>
        <path id="C" d="M2.141.457a2.038 2.038 0 0 0 .007 4.076A2.038 2.038 0 0 0 2.145.456h-.004z"/>
        <path id="E" d="M.107 2.016A2.039 2.039 0 0 0 2.14 4.058c.618 0 1.166-.28 1.54-.716-.328.227-.726.361-1.156.36a2.038 2.038 0 0 1-2.034-2.04c0-.507.193-.965.5-1.321C.46.709.107 1.32.107 2.016z"/>
        <path id="G" d="M.655.436a.607.607 0 0 0 .002 1.213.605.605 0 1 0 0-1.213H.655z"/>
        <path id="I" d="M.851.34a.607.607 0 0 0 .002 1.213.608.608 0 0 0 0-1.213H.85z"/>
        <path id="K" d="M.29.27l.682 5.296 6.37.005h.401S5.521 1.213 3.701.54a6.379 6.379 0 0 0-2.21-.39C.766.15.29.27.29.27z"/>
        <path id="M" d="M6.043 21.325C4.219 24.499-.341 26.879.457 30.734c.798 3.854 5.25 2.153 8.952-.794a161.322 161.322 0 0 1 3.59-2.773 43.64 43.64 0 0 0 7.897-7.643C26.28 12.791 32.828 1.9 20.18.58c-.866-.09-1.68-.133-2.44-.133C2.268.445 7.782 18.3 6.043 21.325z"/>
        <path id="O" d="M.16 3.34c0 5.442 3.788 18.463 3.788 18.463s.156.987.963 1.327l12.867-.007C17.598 21.033 2.25 8.649 8.25 4.34 11.712 1.855 8.484.093 5.136.093 2.68.093.16 1.039.16 3.34z"/>
        <path id="Q" d="M66.035 15.54C54.87 21.642 51.453 25.263 48.23 28.753c-1.718 1.858-12.826 1.432-23.573 1.006-9.429-.374-18.58-.748-20.867.421-4.895 2.502-3.941 3.178-.567 2.803 3.373-.376 11.514-.89 19.397 5.08 7.883 5.97 21.85 21.926 38.602 20.745 16.752-1.18 29.755-7.13 33.987-24.429 3.412-13.952 2.82-22.05 3.018-28.163L82.776.09s-5.574 9.346-16.74 15.45z"/>
        <path id="S" d="M44.06 25.853c-.6 13.7-13.912 11.112-23.5 12.689-3.27.538-7.722-.3-11.682-1.136-3.958-.837-7.422-1.674-8.72-1.137 6.543 4.484 14.171 8.073 22.485 7.49 16.773-1.173 30.293-7.004 34.022-24.196 1.572-7.248 2.177-14.188 2.45-19.373a6.57 6.57 0 0 0-1.192-.11c-6.118 0-13.109 8.491-13.864 25.773z"/>
        <path id="U" d="M5.88 21.339c-1.792 3.17-6.272 5.548-5.488 9.397.784 3.85 5.158 2.151 8.795-.792 1.288-1.043 2.5-1.986 3.527-2.77a43.14 43.14 0 0 0 7.758-7.633c5.288-6.725 4.33-18.301-.704-18.92a21.995 21.995 0 0 0-2.682-.174C2.27.445 7.578 18.337 5.88 21.339z"/>
        <path id="W" d="M.3 3.335c0 5.434 3.807 18.437 3.807 18.437s.196 1.31 1.044 1.358l12.089-.06C17.217 21.941 2.4 8.635 8.432 4.333c3.48-2.482.236-4.241-3.13-4.242C2.833.092.3 1.037.3 3.335z"/>
        <path id="Y" d="M.129.672c1.439 2.009 5.42 2.486 5.42 2.486s-.4-.668-.998-1.838a5.141 5.141 0 0 1-.36-.872C2.619.473 1.242.541.129.672z"/>
        <path id="aa" d="M.044.67c.34 1.37.717 2.71 1.124 3.905 1.957 5.74 12.428 5.612 12.428 5.612S12.108 6.87 10 3.683c-.414-.626-.803-1.945-1.163-3.66C7.01.52 3.85.68.044.671z"/>
        <path id="ac" d="M.178 4.577C6.148 9.28 11.019 7.48 11.019 7.48s-.578-.13-3.18-3.359C7.124 3.237 6.42 1.875 5.774.365A45.679 45.679 0 0 1 .178 4.577z"/>
        <path id="ae" d="M5.546 4.761S4.732 3.05 4.757.152C3.16.098 1.607.051.125.018c1.69 3.393 5.42 4.743 5.42 4.743z"/>
        <path id="ag" d="M6.962 7.743s-.268-2.789-.535-5.707c-.036-.394.053-.912.228-1.506C4.522.458 2.342.373.186.29c1.675 5.662 6.776 7.453 6.776 7.453z"/>
        <path id="ai" d="M.203 6.182c4.145 1.291 10.841.639 10.841.639S9.617 5.653 7.542 3.966C6.66 3.246 5.848 1.722 5.21.21A48.028 48.028 0 0 1 .203 6.182z"/>
        <path id="ak" d="M.075 7.192c6.674 6.946 18.971 4.286 18.971 4.286s-2.861-1.505-5.723-4.427C12.308 6.015 11.05 3.401 9.846.46 5.204 3.136 2.272 5.283.075 7.192z"/>
        <path id="am" d="M.159.27L.84 5.567l6.37.005h.402S5.39 1.213 3.569.54A6.377 6.377 0 0 0 1.36.15C.634.15.16.27.16.27z"/>
        <path id="ao" d="M5.151 2.51S-.475 9.923.101 9.81c1.372-.264 6.22-5.9 6.22-5.9s5.48.12 6.343-.67c.863-.791 1.098-2.19-.218-2.922C12.3.237 12.096.2 11.848.2 9.874.2 5.151 2.51 5.151 2.51z"/>
        <path id="aq" d="M.384 3.16c.478.218 1.425.274 1.729-.492C2.417 1.902 2.7.452 2.7.452L2.256 1s-.478 1.632-1.009 1.59C.717 2.553.462.342.208.21A.038.038 0 0 0 .192.205c-.24 0-.276 2.741.192 2.955z"/>
        <path id="as" d="M2.917.721s-.173 1.53-.775 1.599C1.54 2.388.768.49.456.424.144.358.72 2.89 1.303 2.988c.582.099 1.651-.038 1.822-.77.17-.734.169-2.067.169-2.067l-.377.57z"/>
    </defs>
    <g fill="none" fill-rule="evenodd">
        <path fill-rule="nonzero" d="M0 0h200v126.667H0z"/>
        <path fill="#FFF" fill-opacity=".01" d="M0 126h1v1H0zM199.333 0h1v1h-1z"/>
        <path fill="#A51008" d="M28.424 41.986s-4.032 1.925-.578 1.925c2.226 0 29.138 16.752 51.213 8.57 24.426-9.054 40.19-13.019 40.19-13.019l-74.514 4.903-16.31-4.903v2.524z"/>
        <g transform="translate(124.938 42.12)">
            <mask id="b" fill="#fff">
                <use xlink:href="#a"/>
            </mask>
            <path fill="#64846C" d="M6.317 11.846L-1.84 6.479l7.6-11.553L16.668.409z" mask="url(#b)"/>
        </g>
        <g transform="translate(138.226 40.696)">
            <mask id="d" fill="#fff">
                <use xlink:href="#c"/>
            </mask>
            <path fill="#64846C" d="M2.249 5.687L-1.35 3.32l3.132-4.761 3.6 2.367z" mask="url(#d)"/>
        </g>
        <g transform="translate(139.175 39.747)">
            <mask id="f" fill="#fff">
                <use xlink:href="#e"/>
            </mask>
            <path fill="#64846C" d="M2.427 5.756l-3.981-2.62 3.132-4.76L5.559.994z" mask="url(#f)"/>
        </g>
        <g transform="translate(111.175 16.018)">
            <mask id="h" fill="#fff">
                <use xlink:href="#g"/>
            </mask>
            <path fill="#7AA384" d="M-.989 31.211h39.568V-.929H-.989z" mask="url(#h)"/>
        </g>
        <path fill="#BC1309" d="M130.352 19.209s-1.172-3.048-1.941-2.963c-.77.086-15.267 2.525-15.91 9.524-.114 1.241 17.851-6.561 17.851-6.561"/>
        <g transform="translate(112.124 16.018)">
            <mask id="j" fill="#fff">
                <use xlink:href="#i"/>
            </mask>
            <path fill="#BC1309" d="M-27.08 30.436h79.504v-52.463H-27.08z" mask="url(#j)"/>
        </g>
        <g transform="translate(112.124 16.018)">
            <mask id="l" fill="#fff">
                <use xlink:href="#k"/>
            </mask>
            <path fill="#BC1309" d="M-1.95 31.211H37.62V-.929H-1.95z" mask="url(#l)"/>
        </g>
        <g transform="translate(123.04 28.832)">
            <mask id="n" fill="#fff">
                <use xlink:href="#m"/>
            </mask>
            <path fill="#74947C" d="M-.79 12.634h25.553V-1.117H-.789z" mask="url(#n)"/>
        </g>
        <g transform="translate(142.972 19.34)">
            <mask id="p" fill="#fff">
                <use xlink:href="#o"/>
            </mask>
            <path fill="#64846C" d="M-1.002 3.533h3.68V-.83h-3.68z" mask="url(#p)"/>
        </g>
        <g transform="translate(140.124 20.29)">
            <mask id="r" fill="#fff">
                <use xlink:href="#q"/>
            </mask>
            <path fill="#64846C" d="M-.891 3.268h3.68v-4.363h-3.68z" mask="url(#r)"/>
        </g>
        <g transform="translate(142.972 28.357)">
            <mask id="t" fill="#fff">
                <use xlink:href="#s"/>
            </mask>
            <path fill="#FFF" d="M-1.002 3.411h5.048V-.952h-5.048z" mask="url(#t)"/>
        </g>
        <g transform="translate(138.226 28.832)">
            <mask id="v" fill="#fff">
                <use xlink:href="#u"/>
            </mask>
            <path fill="#FFF" d="M-1.045 3.62h5.048V-.742h-5.048z" mask="url(#v)"/>
        </g>
        <g transform="translate(133.48 29.78)">
            <mask id="x" fill="#fff">
                <use xlink:href="#w"/>
            </mask>
            <path fill="#FFF" d="M-1.09 3.356H3.96v-4.364H-1.09z" mask="url(#x)"/>
        </g>
        <g transform="translate(119.718 16.967)">
            <mask id="z" fill="#fff">
                <use xlink:href="#y"/>
            </mask>
            <path fill="#FFF" d="M-.833 6.59h7.442V-.85H-.833z" mask="url(#z)"/>
        </g>
        <g transform="translate(119.718 17.442)">
            <mask id="B" fill="#fff">
                <use xlink:href="#A"/>
            </mask>
            <path fill="#E1E0DF" d="M-.833 6.116h6.896V-.786H-.833z" mask="url(#B)"/>
        </g>
        <g transform="translate(126.362 16.018)">
            <mask id="D" fill="#fff">
                <use xlink:href="#C"/>
            </mask>
            <path fill="#FFF" d="M-1.049 5.687h6.387V-.7h-6.387z" mask="url(#D)"/>
        </g>
        <g transform="translate(126.362 16.493)">
            <mask id="F" fill="#fff">
                <use xlink:href="#E"/>
            </mask>
            <path fill="#E1E0DF" d="M-1.049 5.213h5.887V-.814H-1.05z" mask="url(#F)"/>
        </g>
        <g transform="translate(123.04 17.442)">
            <mask id="H" fill="#fff">
                <use xlink:href="#G"/>
            </mask>
            <path fill="#6D8880" d="M-1.106 2.803h3.523V-.72h-3.523z" mask="url(#H)"/>
        </g>
        <g transform="translate(128.26 16.493)">
            <mask id="J" fill="#fff">
                <use xlink:href="#I"/>
            </mask>
            <path fill="#6D8880" d="M-.91 2.71h3.524V-.815H-.909z" mask="url(#J)"/>
        </g>
        <g transform="translate(105.955 109.035)">
            <mask id="L" fill="#fff">
                <use xlink:href="#K"/>
            </mask>
            <path fill="#64846C" d="M-.866 6.726H8.9v-7.732H-.866z" mask="url(#L)"/>
        </g>
        <g transform="translate(95.04 65.374)">
            <mask id="N" fill="#fff">
                <use xlink:href="#M"/>
            </mask>
            <path fill="#64846C" d="M-.792 34.125h29.414V-.709H-.792z" mask="url(#N)"/>
        </g>
        <g transform="translate(94.565 91.476)">
            <mask id="P" fill="#fff">
                <use xlink:href="#O"/>
            </mask>
            <path fill="#64846C" d="M-.995 24.285h19.928V-1.063H-.995z" mask="url(#P)"/>
        </g>
        <g transform="translate(28.599 34.052)">
            <mask id="R" fill="#fff">
                <use xlink:href="#Q"/>
            </mask>
            <path fill="#7AA384" d="M-.753 60.027H99.381V-1.066H-.753z" mask="url(#R)"/>
        </g>
        <g transform="translate(67.514 49.238)">
            <mask id="T" fill="#fff">
                <use xlink:href="#S"/>
            </mask>
            <path fill="#ACC3B0" d="M-.997 44.977H60.27V-1.075H-.997z" mask="url(#T)"/>
        </g>
        <g transform="translate(86.972 65.374)">
            <mask id="V" fill="#fff">
                <use xlink:href="#U"/>
            </mask>
            <path fill="#7AA384" d="M-.855 34.125h26.026V-.709H-.855z" mask="url(#V)"/>
        </g>
        <g transform="translate(86.972 91.476)">
            <mask id="X" fill="#fff">
                <use xlink:href="#W"/>
            </mask>
            <path fill="#7AA384" d="M-.855 24.285h19.25V-1.063H-.854z" mask="url(#X)"/>
        </g>
        <g transform="translate(34.294 63.001)">
            <mask id="Z" fill="#fff">
                <use xlink:href="#Y"/>
            </mask>
            <path fill="#6D8880" d="M-1.027 4.314h7.732V-.708h-7.732z" mask="url(#Z)"/>
        </g>
        <g transform="translate(66.565 63.476)">
            <mask id="ab" fill="#fff">
                <use xlink:href="#aa"/>
            </mask>
            <path fill="#6D8880" d="M-1.111 11.343h15.862V-1.132H-1.11z" mask="url(#ab)"/>
        </g>
        <g transform="translate(96.938 43.543)">
            <mask id="ad" fill="#fff">
                <use xlink:href="#ac"/>
            </mask>
            <path fill="#6D8880" d="M-.977 8.973h13.152V-.79H-.977z" mask="url(#ad)"/>
        </g>
        <g transform="translate(43.785 63.476)">
            <mask id="af" fill="#fff">
                <use xlink:href="#ae"/>
            </mask>
            <path fill="#6D8880" d="M-1.03 5.917H6.7v-7.054H-1.03z" mask="url(#af)"/>
        </g>
        <g transform="translate(51.853 63.476)">
            <mask id="ah" fill="#fff">
                <use xlink:href="#ag"/>
            </mask>
            <path fill="#6D8880" d="M-.97 8.898h9.087V-.866H-.97z" mask="url(#ah)"/>
        </g>
        <g transform="translate(105.48 35.001)">
            <mask id="aj" fill="#fff">
                <use xlink:href="#ai"/>
            </mask>
            <path fill="#6D8880" d="M-.952 8.14H12.2V-.945H-.952z" mask="url(#aj)"/>
        </g>
        <g transform="translate(81.277 51.137)">
            <mask id="al" fill="#fff">
                <use xlink:href="#ak"/>
            </mask>
            <path fill="#6D8880" d="M-1.081 13.134h21.283V-.696H-1.081z" mask="url(#al)"/>
        </g>
        <g transform="translate(99.31 109.035)">
            <mask id="an" fill="#fff">
                <use xlink:href="#am"/>
            </mask>
            <path fill="#7AA384" d="M-.997 6.726h9.764v-7.732H-.997z" mask="url(#an)"/>
        </g>
        <path fill="#BC1309" d="M119.25 39.462s-5.006-1.75-6.626-2.958c-1.621-1.208-1.25-2.362-1.25-2.362s-25.303-5.62-37.99-1.156C60.7 37.45 53.16 41.454 39.845 37.45c-13.317-4.005-30.937-1.676-30.937-1.676s7.126 1.957 15.534 2.572c5.386.394-4.054 7.542-8.059 7.728-4.004.186-6.1 2.13-6.1 2.13s15.119-1.665 17.564.103c9.287 6.711 29.18 11.433 39.827 5.645 10.646-5.789 25.582-11.161 31.796-11.966 6.214-.803 19.78-2.524 19.78-2.524"/>
        <g transform="translate(101.684 48.764)">
            <mask id="ap" fill="#fff">
                <use xlink:href="#ao"/>
            </mask>
            <path fill="#64846C" d="M6.344-3.449L15.374.27l-5.265 12.787-11.752-3.31z" mask="url(#ap)"/>
        </g>
        <g transform="translate(100.26 56.357)">
            <mask id="ar" fill="#fff">
                <use xlink:href="#aq"/>
            </mask>
            <path fill="#64846C" d="M.158-1.846L4.14-.206l-2.17 5.27-3.983-1.64z" mask="url(#ar)"/>
        </g>
        <g transform="translate(98.836 57.78)">
            <mask id="at" fill="#fff">
                <use xlink:href="#as"/>
            </mask>
            <path fill="#64846C" d="M.642-2.19L5.05-.378l-2.17 5.27-4.407-1.814z" mask="url(#at)"/>
        </g>
        <path fill="#C5AF00" d="M120.55 39.462a1.666 1.666 0 1 1-3.332 0 1.666 1.666 0 0 1 3.333 0"/>
        <path fill="#D8E184" d="M124.2 68.183l-9-14.528 4.903-5.418 6.66.827s-.138 4.254-.528 8.72c-.49 5.592-1.203 7.502-1.203 7.502l-.831 2.897z"/>
        <path fill="#BC1309" d="M117.548 53.77l3.433-3.675 5.714.63c.047-1.029.068-1.66.068-1.66l-6.66-.828-4.904 5.418 9.007 15.023.341-1.656-6.999-13.252z"/>
    </g>
</svg>
