<svg xmlns="http://www.w3.org/2000/svg" xmlns:xlink="http://www.w3.org/1999/xlink" width="173.932" height="56.722" viewBox="0 0 173.932 56.722">
  <defs>
    <linearGradient id="linear-gradient" x1="0.5" x2="0.5" y2="1" gradientUnits="objectBoundingBox">
      <stop offset="0" stop-color="#db261b"/>
      <stop offset="1" stop-color="#ea7e12"/>
    </linearGradient>
    <linearGradient id="linear-gradient-2" x1="0.5" x2="0.5" y2="1" gradientUnits="objectBoundingBox">
      <stop offset="0" stop-color="#e87612"/>
      <stop offset="1" stop-color="#e87712"/>
    </linearGradient>
  </defs>
  <g id="logo" transform="translate(-150 -21.983)">
    <g id="logo_word" transform="translate(222.666 43)">
      <path id="Path_11649" data-name="Path 11649" d="M255.834,499.064a3.091,3.091,0,0,1,1.934.482,1.73,1.73,0,0,1,.816,1.374c.01.147.019.294.019.442q0,5.926,0,11.852a.921.921,0,0,1-.069.489,3.121,3.121,0,0,1-1.911-.462,1.714,1.714,0,0,1-.727-1.532q0-2.021,0-4.043c0-.147.008-.3,0-.443a6.981,6.981,0,0,1,.613-3.71.159.159,0,0,0-.018-.22c-.209.061-.207.268-.266.42q-.995,2.578-1.98,5.159-.722,1.884-1.442,3.768c-.04.1-.074.209-.12.309a1.172,1.172,0,0,1-1.119.759,1.123,1.123,0,0,1-1.113-.758c-.3-.735-.575-1.476-.858-2.216q-1.293-3.382-2.587-6.762c-.063-.162-.073-.365-.249-.469-.188.066-.075.2-.043.263a6.753,6.753,0,0,1,.5,3.241c-.025,1.458-.028,2.917,0,4.375a1.968,1.968,0,0,1-1.98,2.295,1.715,1.715,0,0,1-.654.007c-.116-.13-.071-.285-.071-.427q0-5.981,0-11.963a1.974,1.974,0,0,1,1.577-2.113,4.816,4.816,0,0,1,.539-.11,1.593,1.593,0,0,1,.6-.041.849.849,0,0,1,.235.435q1.945,4.876,3.885,9.755a1.322,1.322,0,0,1,.024,1.15.936.936,0,0,0-.148.718C252.8,507.111,254.291,503.1,255.834,499.064Z" transform="translate(-244.495 -499.014)" fill="#242323"/>
      <path id="Path_11650" data-name="Path 11650" d="M346.316,509.476a3.609,3.609,0,0,0-.457-.845,1.244,1.244,0,0,1-.2-.673c.007-2.842,0-5.685.005-8.527a.427.427,0,0,1,.083-.35,3.223,3.223,0,0,1,1.774.376,1.6,1.6,0,0,1,.83,1.238,4.369,4.369,0,0,1,.04.551q0,5.205,0,10.41a1.945,1.945,0,0,1-1.564,2c-.533.141-.544.138-.845-.332q-3.337-5.219-6.674-10.438c-.1-.15-.157-.331-.321-.424-.125.055-.124.132-.072.223a1.511,1.511,0,0,0,.112.19,3.359,3.359,0,0,1,.635,2.327c-.042,2.066-.013,4.134-.015,6.2a6.448,6.448,0,0,1-.032.662,1.607,1.607,0,0,1-.951,1.332,3.439,3.439,0,0,1-1.637.328c-.142-.147-.1-.3-.1-.444,0-3.986.014-7.973-.011-11.959a2.172,2.172,0,0,1,2.269-2.259c.259-.014.352.147.462.319q1.117,1.747,2.236,3.494,1.982,3.1,3.968,6.194C345.953,509.222,345.991,509.455,346.316,509.476Z" transform="translate(-281.594 -499.035)" fill="#242323"/>
      <path id="Path_11651" data-name="Path 11651" d="M289.575,506.432c0,.72-.013,1.44,0,2.159a4.483,4.483,0,0,1-1.732,3.664,6.353,6.353,0,0,1-3.531,1.435,6.867,6.867,0,0,1-4.6-1.021,4.658,4.658,0,0,1-2.3-4.206c.03-1.42.023-2.842,0-4.262a4.462,4.462,0,0,1,1.692-3.627,7.178,7.178,0,0,1,8.449-.262,4.594,4.594,0,0,1,1.975,3.079,4.082,4.082,0,0,1,.044.605C289.577,504.808,289.575,505.62,289.575,506.432Zm-9.409-.033c0,.738.009,1.475,0,2.214a2.346,2.346,0,0,0,1.532,2.341,4.4,4.4,0,0,0,3.649-.022,2.344,2.344,0,0,0,1.486-2.315c-.013-1.457,0-2.915,0-4.371a2.469,2.469,0,0,0-1.859-2.563,4.74,4.74,0,0,0-2.724-.062,2.532,2.532,0,0,0-2.077,2.731C280.164,505.034,280.165,505.716,280.166,506.4Z" transform="translate(-257.707 -499.034)" fill="#242323"/>
      <path id="Path_11652" data-name="Path 11652" d="M318.951,499.127a1.753,1.753,0,0,1,.023.187c0,3.028.024,6.055-.006,9.082a4.959,4.959,0,0,1-3.19,4.759,6.745,6.745,0,0,1-5.639.005,4.979,4.979,0,0,1-3.2-4.859c0-2.344.028-4.689-.011-7.033a1.931,1.931,0,0,1,1.739-2.118,2.192,2.192,0,0,1,1.035-.032v.6q0,4.209,0,8.417a4.054,4.054,0,0,0,.077.991,2.664,2.664,0,0,0,1.731,1.939,3.971,3.971,0,0,0,2.869,0,2.624,2.624,0,0,0,1.8-2.311,6.846,6.846,0,0,0,.035-.718c0-2.216.036-4.432-.01-6.645a2.024,2.024,0,0,1,2.117-2.287A1.056,1.056,0,0,1,318.951,499.127Z" transform="translate(-269.554 -499.035)" fill="#242323"/>
      <path id="Path_11653" data-name="Path 11653" d="M405.081,499.353c-.508.92-.988,1.791-1.47,2.661q-1.662,3-3.331,5.991a1.784,1.784,0,0,0-.25.942c.018.885-.011,1.772.01,2.657a1.884,1.884,0,0,1-1.659,2.017,5.109,5.109,0,0,1-.6.1,4.116,4.116,0,0,1-.427,0c-.152-.153-.093-.329-.093-.487,0-1.476-.008-2.953,0-4.429a1.52,1.52,0,0,0-.209-.782q-2.265-4.054-4.514-8.117c-.089-.16-.177-.322-.262-.475.043-.168.179-.18.3-.217a3.331,3.331,0,0,1,1.695-.078,2.131,2.131,0,0,1,1.446,1.188l1.35,2.537c.441.83.867,1.669,1.331,2.485a.779.779,0,0,1,.027.869c-.128.217-.22.454-.353.735.3-.034.311-.25.379-.384q1.5-2.957,2.985-5.922c.091-.181.177-.366.283-.537a2.046,2.046,0,0,1,1.569-1.008A3.216,3.216,0,0,1,405.081,499.353Z" transform="translate(-303.815 -499.033)" fill="#242323"/>
      <path id="Path_11654" data-name="Path 11654" d="M376.793,499.357a2.357,2.357,0,0,1-.206,1.348,1.848,1.848,0,0,1-1.8,1.059c-.755.026-1.512.008-2.267.009h-.6v.63c0,3.006-.038,6.013.015,9.018a2.07,2.07,0,0,1-2.027,2.386,2.9,2.9,0,0,1-.739.021c-.035-.55-.01-1.114-.014-1.675s0-1.143,0-1.715v-8.659h-4.831a1.927,1.927,0,0,1,1.642-2.4,2.93,2.93,0,0,1,.441-.024h10.381Z" transform="translate(-292.58 -499.152)" fill="#242323"/>
    </g>
    <g id="logo_symbol" transform="translate(-87.891 -247.252)">
      <path id="Path_12307" data-name="Path 12307" d="M284.708,276.076a4.171,4.171,0,0,0,.422-.685q1.527-2.629,3.045-5.264a2.083,2.083,0,0,1,.507-.6,1.193,1.193,0,0,1,1.563-.006,1.986,1.986,0,0,1,.492.577c.7,1.216,1.413,2.429,2.1,3.656.234.42.477.835.7,1.259.219.409.47.8.7,1.2q1.1,1.892,2.2,3.785a.607.607,0,0,0,.127.189c.086-.05.116-.144.166-.22.3-.453.616-.891.914-1.344a1.473,1.473,0,0,1,2.5.138,17.386,17.386,0,0,1,.792,1.814c.28.775.6,1.536.88,2.308s.573,1.521.858,2.282c.19.509.345,1.031.531,1.54a31.646,31.646,0,0,1,1.082,3.768,10.872,10.872,0,0,1,.144,3.986c-.03.218-.055.437-.1.653a16.527,16.527,0,0,1-.412,1.643,15.568,15.568,0,0,1-.52,1.6,15.162,15.162,0,0,1-10.931,9.068,15.374,15.374,0,0,1-11.79-2.31,14.494,14.494,0,0,1-5.05-5.526,12.963,12.963,0,0,1-1.411-4.661,11.475,11.475,0,0,1,.344-4.3c.475-1.732,1.1-3.41,1.723-5.091.487-1.32,1.02-2.622,1.554-3.922.458-1.114.945-2.216,1.417-3.324.544-1.277,1.127-2.537,1.692-3.8a2.278,2.278,0,0,1,.555-.781,1.2,1.2,0,0,1,1.679-.028,2.367,2.367,0,0,1,.519.653Z" transform="translate(-26.299)" fill="url(#linear-gradient)"/>
      <path id="Path_12308" data-name="Path 12308" d="M250.06,421.321l-1.79-.481q-3.026-.809-6.053-1.616c-.753-.2-1.517-.363-2.254-.612a2.9,2.9,0,0,1-2.041-2.5,3.018,3.018,0,0,1,2.632-3.392,2.813,2.813,0,0,1,1.109.068c.866.231,1.74.436,2.6.7.813.247,1.636.46,2.456.678.858.228,1.716.459,2.576.68.606.156,1.211.325,1.814.493q.964.267,1.936.512c.449.113.9.236,1.342.356l1.2.32c.573.151,1.142.312,1.716.461.454.118.906.244,1.359.368.556.152,1.119.279,1.673.438.452.13.907.247,1.361.37a.935.935,0,0,0,.533-.021c.473-.143.953-.266,1.43-.393.423-.113.848-.222,1.272-.331.448-.115.9-.215,1.343-.347.972-.292,1.958-.533,2.936-.8,1.814-.5,3.632-.975,5.449-1.461q3.7-.988,7.4-1.977a2.986,2.986,0,0,1,2.762.506,2.889,2.889,0,0,1,1.113,3,2.851,2.851,0,0,1-2.139,2.316c-1.888.532-3.789,1.02-5.684,1.526l-4.044,1.079c-.071.019-.139.047-.2.069a.091.091,0,0,0,.062.112c.543.11,1.073.271,1.606.416.6.162,1.2.317,1.791.486.366.1.74.2,1.112.289.449.11.892.247,1.341.363.567.146,1.134.291,1.7.451.586.167,1.18.305,1.763.483.335.1.677.178,1.005.306a1.932,1.932,0,0,1,.3.134,3.039,3.039,0,0,1-1.007,5.581,2.987,2.987,0,0,1-1.333-.045l-8.358-2.23q-5.821-1.554-11.641-3.113a.959.959,0,0,0-.52,0q-9.925,2.656-19.851,5.307a2.989,2.989,0,0,1-3.082-.8,3.038,3.038,0,0,1,1.507-5.075c.922-.252,1.848-.487,2.772-.731.512-.135,1.024-.276,1.536-.413s1.009-.266,1.513-.4q1.892-.5,3.782-1.013A.334.334,0,0,0,250.06,421.321Z" transform="translate(0 -104.041)" fill="url(#linear-gradient-2)"/>
    </g>
  </g>
</svg>
