<?xml version="1.0" encoding="UTF-8"?>
<svg width="81px" height="74px" viewBox="0 0 81 74" version="1.1" xmlns="http://www.w3.org/2000/svg" xmlns:xlink="http://www.w3.org/1999/xlink">
    <!-- Generator: Sketch 59.1 (86144) - https://sketch.com -->
    <title>Path</title>
    <desc>Created with Sketch.</desc>
    <g id="Homepage" stroke="none" stroke-width="1" fill="none" fill-rule="evenodd">
        <g id="Tablet" transform="translate(-47.000000, -14.000000)" fill="#2C2C2C" fill-rule="nonzero">
            <path d="M91.675015,14.0304653 C90.7417443,14.1066286 89.8084735,14.2654834 88.9035498,14.5092058 C87.2877703,14.9444245 85.7308653,15.6473026 84.2284738,16.3762939 C82.9179698,17.0117131 81.644535,17.7211195 80.3623779,18.4109411 C78.9602913,19.1660455 77.5363992,19.8841562 76.1299515,20.6349084 C73.0859188,22.2604501 70.0833164,23.9665072 67.1265053,25.7465515 C64.4749697,27.343804 61.8823087,29.0389807 59.2569396,30.6775789 C56.7449585,32.2465422 54.2569633,33.876436 52.0371745,35.8436244 C50.9054747,36.8446273 49.924232,37.9740197 49.0345721,39.1926319 C48.3128136,40.1827544 47.8069285,41.316499 47.4602228,42.4894132 C47.16585,43.4838879 47.0502815,44.5458214 47.0088512,45.5772896 C46.9630599,46.7001537 47.1026144,47.8077852 47.2508911,48.9197689 C47.5190974,50.904366 48.0489684,52.8454412 48.6922274,54.7408184 C49.9613012,58.4793467 51.7209963,62.0133222 53.2582764,65.6408697 C53.2321099,65.5755869 53.2037629,65.5124802 53.1775964,65.4471974 C54.1522974,67.7495041 55.1531649,70.0365781 56.3110312,72.2540172 C56.8910546,73.3616486 57.5146888,74.4453431 58.1797532,75.5029244 C58.9887333,76.7846434 59.8958375,77.9923751 60.8334694,79.1826982 C62.5037624,81.3043891 64.4967751,83.1301314 66.7383694,84.6403401 C67.9965405,85.4868404 69.3593774,86.0983226 70.7614641,86.6641069 C71.9236915,87.134143 73.1426128,87.4409722 74.3811591,87.623764 C81.1648163,88.6160625 88.1381805,87.6020031 94.4944521,85.0951436 C97.3989303,83.9483425 100.305589,82.6470387 102.913514,80.9126923 C104.049575,80.1554119 105.155108,79.3132638 106.142892,78.3688393 C107.036913,77.5179868 107.826268,76.5213361 108.489152,75.4833396 C108.720289,75.1221081 108.920899,74.7412918 109.097523,74.349595 C109.41152,73.6619495 109.712435,72.9590714 109.923947,72.2322562 C110.043877,71.8166224 110.126737,71.3901081 110.187792,70.9614177 C110.30118,70.173672 110.410207,69.3946306 110.42111,68.5981804 C110.438554,67.2685874 110.233584,65.9237618 109.974099,64.6246341 C109.73424,63.4234306 109.365729,62.2505163 108.944885,61.1015391 C107.725964,57.7655881 106.123267,54.5732592 104.363572,51.4897351 C103.537148,50.042633 102.669293,48.6216441 101.801439,47.2006552 C101.15818,46.1474261 100.597781,45.0419707 100.022119,43.9495718 C99.4050263,42.7788337 98.7726699,41.6146237 98.0596336,40.4982879 C97.5864566,39.7584162 97.0544051,39.0642424 96.5092703,38.3722448 C96.1080511,37.8630389 95.6784849,37.3777701 95.2074884,36.931671 C94.6078402,36.3637107 93.9362341,35.8523287 93.2428226,35.4040535 C92.5842998,34.9775392 91.8211111,34.6728862 91.0819084,34.4335159 C90.3666915,34.2006739 89.5860585,34.1288629 88.8446752,34.0483474 C88.301721,33.9895929 87.7500445,34.0026494 87.2049098,34.0461713 C85.7897399,34.1593282 84.3985559,34.4335159 83.0466216,34.8600302 C81.6292712,35.3061293 80.253351,35.9023789 78.9035972,36.5203894 C76.7557662,37.5039835 74.7038789,38.6768978 72.6258251,39.7954098 C70.6240901,40.874752 68.528592,41.7756547 66.5748289,42.9420407 C65.4976426,43.5839882 64.4618865,44.3303882 63.5351574,45.1725363 C63.2146181,45.4641328 62.9202453,45.7818424 62.6498585,46.1191368 C62.2050285,46.6783928 61.7645596,47.2311205 61.4352982,47.8687158 C61.1213005,48.4758459 60.8530942,49.1221456 60.6524846,49.7771496 C60.4300696,50.508317 60.3581118,51.2960628 60.3123205,52.0533432 C60.2643487,52.8389129 60.3973615,53.6310109 60.5063885,54.403524 C60.5957906,55.0324149 60.7397062,55.6460732 60.9228715,56.2553793 C61.1125784,56.8842703 61.3546182,57.4979286 61.6097413,58.1028825 C61.9869746,58.999433 62.3707495,59.8851029 62.81776,60.749012 C63.5547822,62.172177 64.5033168,63.4451916 65.4998231,64.6964452 C66.3022615,65.7061525 67.218088,66.6244638 68.2058722,67.4557315 C69.4269741,68.4806714 70.7243949,69.427272 72.1243011,70.197609 C72.678158,70.5022621 73.2516398,70.7699215 73.8316632,71.0179962 C74.7671145,71.4162212 75.6916631,71.7992137 76.6663641,72.086458 C77.7806196,72.4150481 78.947208,72.5499658 80.0963522,72.6827075 C82.3750156,72.9460148 84.6405957,72.7784556 86.8996343,72.4259285 C87.8132802,72.2844825 88.7160234,72.0581688 89.5707947,71.7056417 C90.2424008,71.4271017 90.9270901,71.1681466 91.5441827,70.7829781 C92.1503725,70.406514 92.7391181,69.9604148 93.2341005,69.4425046 C93.681111,68.9724685 94.125941,68.4197408 94.4159527,67.8256673 C94.6340066,67.3773921 94.8433384,66.9051799 94.991615,66.4220872 C95.1507944,65.9020009 95.1813219,65.3101035 95.2401965,64.7900172 C95.3099738,64.1589501 95.1529749,63.4386633 95.0570312,62.8445898 C95.0068788,62.5268802 94.9196572,62.2135228 94.8280746,61.9045175 C94.5794931,61.053665 94.2545928,60.2245735 93.9209703,59.4041863 C93.402002,58.1311718 92.8568672,56.8690377 92.2375941,55.639545 C91.7796809,54.7321141 91.2846985,53.8420919 90.7308416,52.9890633 C90.3339834,52.3775811 89.8738897,51.8096208 89.4268791,51.2351321 C89.2001031,50.9435356 88.9471605,50.6737001 88.6680515,50.4343298 C87.8459883,49.7292756 87.3706307,49.4463835 86.3741244,49.0677432 C85.9336554,48.9001841 85.2838548,48.8631905 84.8891772,48.8218447 C84.5969849,48.7913794 84.3091538,48.8022599 84.0169615,48.8370774 C83.125121,48.9415298 82.3205021,49.0786237 81.478814,49.3767485 C80.8551798,49.59871 80.2468094,49.8707217 79.6362584,50.1253246 C79.0649571,50.3625187 78.4936559,50.5997129 77.8918271,50.7389829 C75.9424251,51.1937864 74.8107253,53.3807601 75.3253325,55.2478482 C75.5782751,56.1639834 76.1931871,56.9582575 77.0130698,57.4391741 C77.8918271,57.9527321 78.8643475,58.0310715 79.8434096,57.80911 C81.0601505,57.5327461 82.1983919,57.0039554 83.3955079,56.6688371 C84.2044879,57.9244429 84.8455664,59.2953817 85.4386731,60.6619682 C85.7722955,61.4758271 86.0841126,62.2962143 86.3610411,63.1318341 C86.4329989,63.3516195 86.5071372,63.5757571 86.574734,63.7998948 C85.9903495,63.9870388 85.3907012,64.1219566 84.7845113,64.2242329 C83.3104669,64.3743834 81.814617,64.3743834 80.3405725,64.2242329 C79.1718036,64.0196802 78.0335621,63.6671531 76.9280288,63.2341105 C75.7134685,62.6813828 74.5577827,62.0133222 73.4762353,61.2299286 C72.4099517,60.3551391 71.4374312,59.3758971 70.5652156,58.3096114 C69.6537502,57.0714143 68.864395,55.7548779 68.2233165,54.3556499 C67.9594713,53.6745327 67.7414174,52.9781829 67.6018629,52.2600721 C67.5800575,51.9684756 67.5756964,51.6768791 67.5909602,51.3852826 C67.6236683,51.2394843 67.6607374,51.0936861 67.7065288,50.95224 C67.8002919,50.7781526 67.9005967,50.6105934 68.0096237,50.4473864 C68.3170797,50.1013875 68.6528827,49.785854 69.0083106,49.4899053 C71.0558369,48.0166902 73.4129997,47.0439765 75.6480523,45.8949992 C77.9986735,44.6850914 80.2947812,43.3794354 82.7195407,42.319678 C84.0692945,41.7756547 85.4561174,41.3143229 86.8909121,41.0618961 C87.3924361,41.0161981 87.8939601,41.0053176 88.3954841,41.037959 C88.637524,41.0880092 88.8730222,41.1511159 89.1063399,41.2272791 C89.3222133,41.3426121 89.531545,41.4688255 89.7343352,41.6059194 C90.2096927,42.0193771 90.64362,42.4741806 91.0470197,42.9594494 C92.8045343,45.3836173 93.9405952,48.1777211 95.4320839,50.7607438 C96.4220487,52.4776814 97.4490827,54.170682 98.3954366,55.9137327 C99.306902,57.5893245 100.157312,59.2953817 100.91832,61.0427846 C101.701134,62.9512184 102.381462,64.9162306 102.725987,66.9508778 C102.800126,67.6994539 102.81757,68.4523822 102.756515,69.2031344 C102.664932,69.6753466 102.540642,70.1410306 102.379282,70.593658 C102.163408,71.0310527 101.914827,71.4488626 101.635718,71.8492638 C101.110208,72.4629221 100.523643,73.020002 99.9000087,73.53356 C97.9309818,74.9654294 95.7242762,76.0578282 93.4935846,77.0240136 C90.5411347,78.2273932 87.4818382,79.132648 84.3265981,79.6113885 C81.7339371,79.9160416 79.0911236,79.9639157 76.4941015,79.6810235 C75.2315693,79.4721186 73.9952036,79.1370002 72.8002682,78.6800206 C71.6402214,78.1468778 70.5412296,77.4962259 69.5098346,76.7432976 C68.107748,75.5986725 66.858299,74.2864883 65.7265992,72.8742037 C63.3258256,69.6688183 61.4440203,66.1022015 59.6952279,62.5094714 C58.109976,59.256212 56.3568225,56.0878202 54.9176667,52.7649257 C54.0716175,50.7106937 53.3367758,48.5933549 52.9835285,46.3976768 C52.8941264,45.5577048 52.8745015,44.7199089 52.9508204,43.8799369 C53.0184171,43.5230576 53.1121803,43.1727065 53.2321099,42.8288838 C53.4741498,42.3414389 53.7707031,41.8822832 54.0912423,41.4405363 C55.0179715,40.3111439 56.0973384,39.3253736 57.2421214,38.4179427 C59.2220509,36.9294949 61.3502572,35.6564803 63.461019,34.3682331 C64.6603156,33.6370658 65.8421678,32.8819614 67.0436449,32.1529702 C68.4609953,31.2934133 69.8957901,30.4621457 71.339307,29.6504629 C74.1696468,28.0597387 77.0523195,26.5604104 79.9677003,25.1307171 C81.2411352,24.5083545 82.5232922,23.9077527 83.792366,23.2766857 C84.9633155,22.6956688 86.1320845,22.1146518 87.3292005,21.5923895 C88.5655662,21.091888 89.8324594,20.6631976 91.1473245,20.4325317 C91.5441827,20.3977142 91.9432213,20.3846577 92.3400794,20.4042425 C92.4992588,20.43906 92.6584382,20.4825819 92.815437,20.5304559 C92.9549915,20.6044431 93.0923654,20.6871347 93.2253783,20.7720023 C93.4979457,21.0157247 93.7508883,21.2812081 93.988567,21.5619242 C94.5816737,22.3910157 95.0853782,23.2788618 95.5978049,24.1580034 C96.326105,25.4092571 97.1220018,26.6148128 97.9200791,27.8225445 C99.7451904,30.5818308 101.60301,33.3193562 103.46519,36.0525293 C107.18737,41.5166996 110.903009,46.9939263 114.298109,52.6691776 C116.541883,56.4185863 118.641743,60.2528627 120.414521,64.24817 C120.626033,64.5223577 120.839726,64.7965455 121.051238,65.0707332 C121.559304,65.5755869 122.158952,65.9237618 122.848003,66.115258 C123.899022,66.4046784 125.043806,66.254528 125.985798,65.7061525 C126.897264,65.1730096 127.577592,64.2916918 127.856701,63.2776324 C128.151074,62.2091706 127.980992,61.1058913 127.44676,60.1462341 C124.226103,54.3643543 120.678366,48.7870272 116.936561,43.3293853 C113.190395,37.865215 109.280688,32.5142016 105.549786,27.0391509 C104.618695,25.6725644 103.700688,24.2972734 102.795765,22.9132781 C102.09145,21.8361119 101.44165,20.7284804 100.770044,19.6339055 C100.059188,18.4718717 99.2611107,17.3076618 98.2667848,16.3697656 C97.1438072,15.3078321 95.7133735,14.4743883 94.182635,14.1893201 C93.5568203,14.0718111 92.9353666,14 92.3073714,14 C92.0980396,14.0043522 91.8865273,14.0130566 91.675015,14.0304653 L91.675015,14.0304653 L91.675015,14.0304653 Z" id="Path"></path>
        </g>
    </g>
</svg>