<svg width="796" height="546" viewBox="0 0 796 546" fill="none" xmlns="http://www.w3.org/2000/svg">
<g clip-path="url(#clip0)">
<rect width="796" height="546" fill="white"/>
<circle cx="384.462" cy="291.5" r="246" fill="#E1C4F7"/>
<mask id="mask0" mask-type="alpha" maskUnits="userSpaceOnUse" x="90" y="-1" width="709" height="539">
<path d="M677.462 423C656.462 429.5 614.824 378 614.824 378C608.873 393.841 601.335 408.906 592.403 423C548.793 491.817 471.963 537.5 384.463 537.5C248.601 537.5 138.463 427.362 138.463 291.5C138.463 259.163 80.122 119.784 91.4623 91.5C127.768 0.949165 297.937 -1 401.462 -1C487.038 -1 713.907 133.948 794.462 255C811.43 280.498 766.429 294.39 773.962 318.5C787.444 361.648 694.462 421 677.462 423Z" fill="#C4C4C4"/>
</mask>
<g mask="url(#mask0)">
<path fill-rule="evenodd" clip-rule="evenodd" d="M167.668 709.968L189.961 695.229C189.961 695.229 171.068 648.11 163.623 633.091C159.099 623.951 153.817 615.167 148.607 606.41C146.366 602.646 134.51 587.926 136.794 583.847C138.557 580.693 244.789 507.932 248.946 499.266C263.645 468.647 249.778 436.149 237.856 419.269C234.602 414.66 182.174 429.474 182.174 429.474C182.174 429.474 96.7204 568.064 94.6545 572.526C91.9933 578.26 94.7355 588.512 100.344 600.677C117.196 637.229 167.668 709.968 167.668 709.968Z" fill="#322A7C"/>
<path fill-rule="evenodd" clip-rule="evenodd" d="M323.678 683.314L333.955 658.643C333.955 658.643 291.981 630.087 277.422 621.773C268.566 616.716 259.284 612.372 250.072 608.013C246.112 606.137 228.06 600.54 227.677 595.882C227.384 592.279 236.153 576.359 244.183 559.367C250.49 546.027 302.233 449.365 237.813 407.182C233.096 404.094 205.088 418.469 205.088 418.469L182.331 429.322C182.331 429.322 185.874 606.754 186.391 610.001C187.389 616.245 195.381 623.225 206.821 630.187C241.204 651.118 323.678 683.314 323.678 683.314Z" fill="#403289"/>
<path fill-rule="evenodd" clip-rule="evenodd" d="M184.619 211.14C185.164 208.411 185.84 205.706 187.015 203.188C190.624 195.473 199.212 190.562 207.653 190.82C212.122 190.951 216.297 190.92 220.641 192.26C225.876 193.88 230.756 196.489 235.427 199.315C247.907 206.871 259.829 216.915 264.659 230.451C266.018 234.253 266.769 238.213 267.517 242.161C267.891 244.128 268.262 246.097 268.636 248.063C268.794 248.895 268.95 249.758 268.773 250.578C268.34 252.569 266.202 253.591 264.638 254.909C263.319 256.016 262.322 257.483 261.774 259.11C261.568 259.721 261.359 260.428 260.755 260.677C260.306 260.861 259.795 260.718 259.306 260.659C256.224 260.285 254.685 263.663 251.749 263.984C250.416 264.127 248.677 263.348 248.823 262.039C248.259 267.106 213.053 266.903 208.971 267.623C205.74 268.193 195.12 272.983 195.609 266.246C195.36 266.445 194.562 267.315 194.241 267.274C193.403 267.165 192.777 267.24 192.02 266.978C191.49 266.794 191.088 266.355 190.583 266.103C190.007 265.81 189.327 265.819 188.875 265.289C188.673 265.055 188.564 264.756 188.374 264.513C187.994 264.024 187.087 263.987 186.566 263.663C185.647 263.092 185.56 261.84 185.575 260.786C184.432 260.83 183.453 261.516 182.441 262.017C180.954 262.75 179.272 263.111 177.592 263.058C176.853 263.033 176.068 262.912 175.498 262.438C174.716 261.787 174.591 260.509 175.239 259.758C172.902 259.528 168.929 258.343 171.45 255.67C171.971 255.115 172.544 254.582 172.753 253.809C175.115 249.973 177.134 246.187 178.845 241.974C180.459 237.995 182.076 234.016 183.69 230.037C184.32 228.488 184.535 227.195 184.865 225.615C185.158 224.203 186.376 223.103 186.192 221.579C185.336 222.63 185.186 223.739 184.609 224.627C181.26 229.8 180.097 236.203 176.193 241.049C174.429 243.24 171.852 245.555 168.795 245.48C163.373 245.343 168.845 243.155 170.78 242.358C175.595 240.36 178.022 235.281 179.907 230.753C180.833 228.541 182.076 226.173 182.718 223.87C183.622 220.626 183.556 216.84 184.176 213.462C184.32 212.689 184.463 211.913 184.619 211.14Z" fill="#B21E7B"/>
<path fill-rule="evenodd" clip-rule="evenodd" d="M197.953 236.548C199.016 238.888 198.791 241.914 197.015 243.999C194.569 246.869 190.244 247.212 187.374 244.765C184.507 242.319 184.161 237.994 186.607 235.124C188.131 233.335 190.384 232.532 192.562 232.768C192.731 232.388 192.893 231.999 192.958 231.606C190.319 231.232 187.549 232.17 185.694 234.345C182.818 237.717 183.223 242.802 186.595 245.678C189.97 248.555 195.052 248.149 197.928 244.775C199.969 242.378 200.272 238.985 199.094 236.249L197.953 236.548Z" fill="white"/>
<path fill-rule="evenodd" clip-rule="evenodd" d="M206.105 256.891L206.734 280.788C206.94 289.18 212.219 293.542 220.476 293.277C227.528 293.05 234.032 289.195 234.68 282.172L231.881 244.613L206.105 256.891Z" fill="#B3B2E6"/>
<path fill-rule="evenodd" clip-rule="evenodd" d="M205.885 268.607C222.609 268.624 233.226 246.794 233.226 246.794L205.383 253.048L205.885 268.607Z" fill="#00023C" fill-opacity="0.18"/>
<path fill-rule="evenodd" clip-rule="evenodd" d="M214.471 257.965C200.527 258.457 188.654 247.847 187.869 236.473L186.177 209.621C185.195 195.362 193.905 182.954 208.121 181.502H208.124C222.676 180.015 240.023 190.289 241.51 204.844L242.635 226.455C243.504 243.17 231.121 256.263 214.471 257.965Z" fill="#B3B2E6"/>
<path fill-rule="evenodd" clip-rule="evenodd" d="M255.707 226.739C256.318 232.707 251.974 238.038 246.007 238.646C240.04 239.26 234.711 234.913 234.1 228.949C233.493 222.981 237.833 217.65 243.801 217.042C249.768 216.431 255.1 220.775 255.707 226.739Z" fill="#B3B2E6"/>
<path fill-rule="evenodd" clip-rule="evenodd" d="M244.587 230.912C244.587 230.912 243.787 223.078 251.402 223.549L244.587 230.912Z" fill="#CABFE2"/>
<path fill-rule="evenodd" clip-rule="evenodd" d="M244.554 240.119C245.343 242.35 247.421 244.21 249.93 244.463C253.382 244.802 256.467 242.269 256.81 238.819C257.153 235.367 254.622 232.275 251.17 231.933C249.017 231.721 247.01 232.628 245.72 234.173C245.361 234.027 245.006 233.871 244.713 233.656C246.224 231.721 248.661 230.574 251.279 230.836C255.336 231.238 258.312 234.865 257.91 238.925C257.508 242.986 253.878 245.961 249.817 245.559C246.935 245.273 244.57 243.213 243.607 240.648L244.554 240.119Z" fill="white"/>
<path fill-rule="evenodd" clip-rule="evenodd" d="M189.599 196.633L189.603 196.627C189.603 196.63 189.603 196.63 189.603 196.63C189.599 196.63 189.599 196.63 189.599 196.633Z" fill="#F0B8D1"/>
<path fill-rule="evenodd" clip-rule="evenodd" d="M212.868 200.993L212.865 200.989C212.865 200.989 212.868 200.989 212.868 200.993Z" fill="#F0B8D1"/>
<path fill-rule="evenodd" clip-rule="evenodd" d="M241.426 247.102C241.554 248.94 241.778 250.775 241.972 252.614C242 252.882 241.981 253.296 242.361 253.265C242.754 253.234 242.626 252.813 242.635 252.558C242.751 249.389 242.685 246.213 242.483 243.063C242.289 240.087 242.13 237.105 241.694 234.142C241.33 231.695 241.18 229.218 240.853 226.766C240.706 225.656 240.622 224.51 240.068 223.254C239.781 224.005 239.691 224.547 239.712 225.086C239.793 227.252 239.828 229.427 240.018 231.586C240.473 236.759 241.068 241.916 241.426 247.102ZM224.465 178.472C225.737 178.513 228.588 178.952 231.467 179.572C237.294 180.008 242.894 183.499 247.094 187.384C252.622 192.507 256.932 199.014 260.036 205.854C263.438 213.36 273.943 246.971 274.342 248.479C274.716 249.894 274.828 251.461 274.357 252.866C273.93 254.138 272.662 255.855 271.244 256.063C269.521 256.316 269.25 254.409 268.86 253.197C268.368 251.657 267.776 250.171 267.153 248.681C266.561 247.257 266.252 245.799 265.451 244.425C265.286 244.347 265.081 244.475 265.012 244.643C264.94 244.814 264.968 245.007 265.006 245.188C265.218 246.213 265.645 247.179 266.04 248.149C267.103 250.766 267.941 253.477 268.543 256.241C268.686 256.895 268.814 257.565 268.761 258.235C268.658 259.504 267.91 260.632 267.059 261.582C266.617 262.081 266.106 262.567 265.458 262.723C263.423 263.202 263.376 260.114 263.058 258.874C262.522 256.79 261.877 254.733 261.357 252.645C260.646 249.785 259.777 246.968 259.029 244.116C257.589 238.629 255.891 233.21 253.754 227.953C253.648 227.691 253.486 227.454 253.239 227.003C253.211 227.9 253.308 228.567 253.486 229.234C254.149 231.736 254.966 234.191 255.673 236.678C256.891 240.963 257.96 245.288 259.135 249.585C259.727 251.745 260.338 253.898 260.952 256.051C261.463 257.846 262.613 260.152 262.317 262.009C261.961 264.231 260.522 266.007 258.624 267.119C257.758 267.627 256.804 268.17 255.692 267.565C255.393 267.403 255.212 267.207 255.231 266.82C255.424 263.084 254.925 259.382 254.346 255.665C253.517 250.364 252.326 245.157 250.843 239.994C250.725 239.582 250.6 239.177 250.475 238.769C249.285 234.849 247.827 231.029 246.188 227.283C246.228 228.791 246.272 230.296 246.315 231.801C246.446 236.706 246.664 241.605 246.692 246.503C246.717 251.346 246.141 256.144 245.296 260.912C245.237 261.255 245.237 261.607 245.212 261.953C245.175 262.174 245.141 262.399 245.103 262.62C244.611 263.121 244.664 263.848 244.365 264.449C243.81 265.558 242.959 266.474 242.467 267.609C242.42 267.627 242.398 267.665 242.398 267.718C242.28 267.821 242.165 267.927 242.043 268.029C241.61 268.397 241.211 268.868 240.541 268.568C239.781 268.229 239.893 267.559 240.102 267.017C240.728 265.393 241.164 263.723 241.423 261.987C241.052 263.022 240.364 263.885 239.955 264.898C239.65 265.237 239.22 265.48 239.164 265.998C239.089 266.066 239.017 266.141 238.946 266.21C238.139 266.752 237.353 266.851 236.578 266.082C236.581 264.966 236.468 263.851 236.693 262.738C237.223 260.142 236.855 257.354 236.808 254.72C236.743 251.143 235.68 248.142 234.917 244.764C234.075 241.038 234.832 236.984 235.157 233.241C235.954 224.058 234.446 215.56 232.857 206.595C232.383 203.937 232.866 202.924 229.95 202.242C228.205 201.835 223.439 201.74 215.654 201.956C215.271 199.355 214.647 197.737 213.783 197.103C213.2 197.848 212.513 200.728 212.199 201.628C211.716 203.009 202.378 203.657 202.085 202.32C201.792 200.982 203.777 195.926 204.759 193.716C204.846 193.517 205.108 193.314 204.852 193.006C203.372 194.265 202.821 196.038 202.085 197.72C200.823 200.59 201.125 203.068 197.374 203.722C196.037 203.956 194.619 203.99 193.438 204.654C192.662 205.096 192.033 205.794 191.191 206.093C189.568 206.682 188.917 205.28 189.001 203.934C189.172 201.201 189.58 198.624 191.441 196.324C193.338 193.975 194.018 191.579 193.07 192.473C190.356 195.037 187.589 197.565 187.193 201.628C187.016 203.457 187.274 205.143 187.782 206.882C185.271 208.297 183.557 205.046 183.164 203.008C183.008 202.201 182.918 201.422 182.887 200.671C182.469 189.849 194.569 184.639 203.475 181.937C210.262 179.884 217.329 178.242 224.465 178.472Z" fill="#FF36B5"/>
<path fill-rule="evenodd" clip-rule="evenodd" d="M218.336 237.275C219.146 238.406 220.423 239.195 221.788 239.522C223.362 239.896 225.038 239.693 226.562 239.148C227.556 238.786 228.525 238.266 229.22 237.468C230.42 236.088 230.501 233.554 230.099 231.841C229.859 230.815 229.267 229.837 228.348 229.316C227.001 228.55 225.537 228.494 224.06 228.768C222.754 229.008 221.433 229.285 220.268 229.924C217.946 231.192 216.709 234.299 217.996 236.724C218.096 236.917 218.211 237.097 218.336 237.275Z" fill="#FF37B8" fill-opacity="0.5"/>
<path d="M226.665 231.118C226.411 230.771 225.924 230.695 225.576 230.949C225.287 231.161 225.186 231.534 225.307 231.854L225.407 232.038L227.454 234.839C227.708 235.186 228.196 235.262 228.543 235.008C228.832 234.797 228.933 234.423 228.812 234.103L228.712 233.92L226.665 231.118Z" fill="#FFD0F6"/>
<path d="M222.032 231.527C221.663 231.548 221.369 231.821 221.308 232.169L221.297 232.348L221.49 235.814C221.514 236.243 221.882 236.572 222.311 236.548C222.68 236.527 222.974 236.254 223.035 235.906L223.046 235.727L222.853 232.262C222.829 231.832 222.461 231.503 222.032 231.527Z" fill="#FFD0F6"/>
<path d="M224.788 231.222C224.591 230.839 224.122 230.689 223.739 230.885C223.42 231.049 223.262 231.402 223.332 231.737L223.402 231.934L225.21 235.452C225.406 235.835 225.876 235.986 226.258 235.789C226.577 235.625 226.735 235.272 226.665 234.937L226.595 234.74L224.788 231.222Z" fill="#FFD0F6"/>
<path fill-rule="evenodd" clip-rule="evenodd" d="M197.605 240.231C196.926 241.185 195.857 241.842 194.713 242.113C193.395 242.428 191.993 242.256 190.715 241.802C189.88 241.499 189.07 241.063 188.487 240.393C187.481 239.24 187.412 237.115 187.749 235.681C187.951 234.821 188.45 234.002 189.216 233.566C190.344 232.924 191.572 232.877 192.809 233.104C193.903 233.304 195.009 233.541 195.985 234.07C197.932 235.136 198.97 237.738 197.892 239.773C197.804 239.932 197.711 240.085 197.605 240.231Z" fill="#FF37B8" fill-opacity="0.5"/>
<path d="M191.463 233.857C191.173 233.646 190.787 233.663 190.519 233.876L190.374 234.027L188.657 236.376C188.403 236.724 188.479 237.211 188.827 237.465C189.116 237.676 189.503 237.659 189.77 237.446L189.915 237.295L191.632 234.946C191.886 234.598 191.81 234.111 191.463 233.857Z" fill="#FFD0F6"/>
<path d="M194.682 235.89C194.314 235.869 193.991 236.108 193.892 236.447L193.861 236.624L193.699 239.528C193.675 239.958 194.004 240.326 194.433 240.35C194.802 240.37 195.124 240.131 195.224 239.792L195.255 239.615L195.417 236.711C195.441 236.281 195.112 235.914 194.682 235.89Z" fill="#FFD0F6"/>
<path d="M193.541 235.248C193.222 235.084 192.842 235.161 192.611 235.413L192.492 235.584L190.977 238.532C190.781 238.915 190.932 239.385 191.314 239.581C191.633 239.745 192.012 239.668 192.244 239.416L192.363 239.244L193.878 236.296C194.074 235.914 193.923 235.444 193.541 235.248Z" fill="#FFD0F6"/>
<path fill-rule="evenodd" clip-rule="evenodd" d="M206.746 246.59C206.711 246.577 206.677 246.568 206.643 246.559C206.147 246.434 205.418 246.618 205.318 245.904C205.209 245.153 205.991 245.209 206.434 244.969C209.217 245.066 211.357 243.816 213.112 241.76C213.679 241.535 214.146 240.467 214.826 241.277C215.521 242.102 214.402 242.42 214.059 242.953C213.847 243.284 213.38 243.383 213.252 243.798C211.311 245.259 209.192 246.303 206.746 246.59Z" fill="#2A0952"/>
<path fill-rule="evenodd" clip-rule="evenodd" d="M206.332 246.678C208.778 246.391 210.897 245.347 212.838 243.886C212.901 244.578 212.869 245.273 212.676 245.93C212.184 247.585 211.003 248.392 209.311 248.407C208.002 248.42 206.933 247.928 206.332 246.678Z" fill="#FF37B8" fill-opacity="0.5"/>
<path fill-rule="evenodd" clip-rule="evenodd" d="M212.867 241.745C211.116 243.802 208.972 245.051 206.189 244.955C206.158 243.415 206.959 242.618 208.408 242.2C209.882 241.776 211.353 241.624 212.867 241.745Z" fill="#FF37B8" fill-opacity="0.5"/>
<path fill-rule="evenodd" clip-rule="evenodd" d="M200.654 225.338C200.473 225.129 200.29 224.939 200.112 224.78C199.183 223.951 197.915 223.581 196.669 223.534C195.226 223.478 193.646 223.852 192.365 224.512C191.77 224.818 191.138 225.466 190.801 226.039C190.377 226.756 190.732 227.529 191.711 227.32C193.204 226.996 194.226 225.478 195.874 225.404C197.479 225.335 198.803 226.348 199.847 227.47C200.096 227.737 200.383 227.977 200.611 228.258C201.368 229.202 202.091 228.258 201.941 227.339C201.813 226.578 201.115 225.871 200.654 225.338Z" fill="#2A0952"/>
<path fill-rule="evenodd" clip-rule="evenodd" d="M204.996 229.282C205.033 228.409 205.286 227.484 205.628 226.583C205.8 226.128 206.015 225.686 206.629 225.71C207.258 225.735 207.551 226.15 207.673 226.686C207.76 227.075 207.807 227.496 207.76 227.892C207.523 229.818 207.657 231.787 207.081 233.675C206.912 234.224 206.632 234.629 206.009 234.591C205.304 234.548 204.93 234.065 204.846 233.445C204.669 232.086 204.712 230.724 204.996 229.282Z" fill="#00023C" fill-opacity="0.18"/>
<path fill-rule="evenodd" clip-rule="evenodd" d="M217.386 216.85C216.971 216.66 216.451 216.501 216.27 215.959C216.093 215.438 216.386 214.977 216.725 214.675C217.825 213.684 219.193 213.326 220.63 213.351C221.462 213.366 221.845 214.279 221.412 214.99C220.929 215.775 218.349 216.993 217.386 216.85Z" fill="#49358E"/>
<path fill-rule="evenodd" clip-rule="evenodd" d="M225.757 219.978C225.707 219.645 225.389 219.563 225.149 219.417C223.572 218.445 220.911 218.414 219.384 219.523C217.368 220.988 215.679 222.711 214.582 224.948C214.286 225.55 214.021 226.163 213.785 226.793C213.703 227.002 213.629 227.22 213.657 227.444C213.837 228.89 216.564 226.291 216.639 225.372C216.957 221.611 221.684 219.14 225.009 220.657C225.211 220.751 225.414 220.922 225.616 220.704C225.8 220.505 225.791 220.227 225.757 219.978ZM212.071 227.637C212.142 227.288 212.226 226.946 212.283 226.665C212.532 225.459 213.233 224.403 213.922 223.381C216.097 220.143 218.72 217.457 222.927 217.731C224.703 217.847 226.212 218.314 227.735 219.249C228.256 219.563 228.773 219.912 229.125 220.411C230.755 222.726 227.704 224.066 226.037 224.749C221.799 226.487 217.63 228.242 213.258 229.616C211.743 230.09 211.834 228.806 212.071 227.637Z" fill="#2A0952"/>
<path fill-rule="evenodd" clip-rule="evenodd" d="M193.244 217.747C193.777 217.672 194.335 217.741 194.559 217.741C196.263 218.055 197.027 218.741 196.846 219.576C196.656 220.455 195.575 220.966 194.328 220.813C193.764 220.748 193.278 220.533 192.789 220.268C192.228 219.959 191.801 219.579 191.926 218.894C192.05 218.186 192.596 217.84 193.244 217.747Z" fill="#49358E"/>
<path d="M208.114 221.347L202.922 222.625L203.313 224.213L208.505 222.936L208.114 221.347Z" fill="white"/>
<path d="M242.174 215.531L229.831 219.516L230.334 221.073L242.677 217.087L242.174 215.531Z" fill="white"/>
<path d="M219.279 211.184L219.865 211.168L220.47 211.183C226.471 211.486 231.404 216.475 231.751 222.833C232.121 229.617 227.139 235.42 220.602 235.775C214.064 236.131 208.479 230.909 208.108 224.128L208.089 223.495C208.049 217.198 212.615 211.883 218.669 211.234L219.279 211.184ZM220.459 212.821L219.909 212.802L219.324 212.82C213.727 213.124 209.417 218.143 209.742 224.038C210.064 229.933 214.892 234.447 220.513 234.142C226.131 233.837 230.439 228.819 230.118 222.922C229.817 217.421 225.588 213.119 220.459 212.821Z" fill="white"/>
<path d="M193.082 214.819L193.65 214.804L194.241 214.819C199.89 215.122 204.526 219.824 204.852 225.813C205.2 232.212 200.499 237.686 194.33 238.026C188.159 238.363 182.885 233.432 182.537 227.033L182.518 226.417C182.491 220.488 186.786 215.489 192.487 214.868L193.082 214.819ZM194.224 216.457L193.693 216.436L193.126 216.454C187.896 216.74 183.867 221.43 184.17 226.944C184.47 232.455 188.988 236.679 194.24 236.393C199.492 236.103 203.518 231.414 203.218 225.902C202.939 220.768 199.004 216.753 194.224 216.457Z" fill="white"/>
<path fill-rule="evenodd" clip-rule="evenodd" d="M225.208 219.728C225.158 219.394 224.84 219.313 224.6 219.167C223.023 218.195 220.362 218.163 218.835 219.273C216.819 220.737 215.13 222.461 214.033 224.698C213.737 225.299 213.473 225.913 213.236 226.543C213.155 226.751 213.08 226.97 213.108 227.194C213.289 228.64 216.015 226.041 216.09 225.122C216.408 221.361 221.135 218.889 224.46 220.407C224.662 220.501 224.865 220.672 225.068 220.454C225.251 220.254 225.242 219.977 225.208 219.728Z" fill="white"/>
<path fill-rule="evenodd" clip-rule="evenodd" d="M340.25 219.638L376.989 188.629L387.362 198.617L350.184 239.827L340.25 219.638Z" fill="#B3B2E6"/>
<mask id="mask1" mask-type="alpha" maskUnits="userSpaceOnUse" x="376" y="149" width="48" height="51">
<path fill-rule="evenodd" clip-rule="evenodd" d="M423.715 149.368H376.637V199.038H423.715V149.368Z" fill="white"/>
</mask>
<g mask="url(#mask1)">
<path fill-rule="evenodd" clip-rule="evenodd" d="M422.918 172.907C420.264 177.702 407.004 186.156 403.729 189.416C400.461 192.657 396.531 194.526 392.455 195.657C388.358 196.798 386.768 199.038 386.768 199.038L376.84 188.568C376.84 188.568 375.398 185.602 380.187 176.073C384.961 166.534 393.203 150.52 396.17 150.975C399.033 151.418 396.447 163.798 395.808 166.413L395.74 166.656C395.702 166.808 395.783 166.808 395.992 166.706C398.298 165.406 415.68 147.725 418.213 149.492C418.973 150.041 419.905 151.764 420.765 154.048C420.824 154.207 420.884 154.366 420.937 154.537C421.554 156.235 422.133 158.208 422.601 160.233C422.657 160.405 422.691 160.579 422.719 160.766C423.168 162.785 423.501 164.851 423.645 166.727C423.651 166.927 423.663 167.114 423.676 167.298C423.81 169.653 423.61 171.679 422.918 172.907Z" fill="#B3B2E6"/>
</g>
<path fill-rule="evenodd" clip-rule="evenodd" d="M393.828 181.8C393.825 181.8 393.818 181.797 393.815 181.797C393.688 181.753 393.619 181.613 393.659 181.485C395.563 175.798 395.601 167.151 395.598 167.064C395.601 166.93 395.71 166.818 395.844 166.818C395.975 166.818 396.087 166.93 396.087 167.064C396.087 167.151 396.05 175.879 394.124 181.641C394.083 181.763 393.952 181.834 393.828 181.8Z" fill="#9387BE"/>
<path fill-rule="evenodd" clip-rule="evenodd" d="M420.807 154.947L402.593 169.702C402.521 169.742 402.453 169.764 402.378 169.745C402.322 169.73 402.291 169.699 402.241 169.649C402.169 169.549 402.185 169.412 402.291 169.318L420.635 154.458C420.694 154.617 420.751 154.772 420.807 154.947Z" fill="#9387BE"/>
<path fill-rule="evenodd" clip-rule="evenodd" d="M422.987 160.81L406.865 173.178C406.812 173.222 406.727 173.24 406.65 173.219C406.615 173.209 406.562 173.178 406.528 173.147C406.441 173.025 406.456 172.888 406.562 172.795L422.869 160.274C422.922 160.449 422.959 160.62 422.987 160.81Z" fill="#9387BE"/>
<path fill-rule="evenodd" clip-rule="evenodd" d="M423.715 167.391L409.558 178.288C409.487 178.329 409.403 178.347 409.346 178.332C409.29 178.316 409.237 178.282 409.209 178.232C409.135 178.132 409.138 177.973 409.259 177.905L423.687 166.818C423.693 167.02 423.705 167.204 423.715 167.391Z" fill="#9387BE"/>
<path fill-rule="evenodd" clip-rule="evenodd" d="M261.457 430.047C258.394 430.639 239.9 432.938 236.999 433.281C208.549 436.64 177.113 430.941 177.113 430.941C177.344 424.319 165.213 347.937 168.217 329.44C171.392 309.874 196.689 269.333 196.689 269.333L210.615 269.816C227.678 275.444 243.387 269.551 243.387 269.551L256.356 270.006C265.097 280.251 269.502 287.951 269.57 293.104C269.948 321.771 257.134 355.37 256.356 376.142C255.865 389.249 257.565 407.217 261.457 430.047Z" fill="#432C82"/>
<path fill-rule="evenodd" clip-rule="evenodd" d="M192.428 287.178C195.048 280.834 198.423 274.886 202.553 269.333C203.674 269.338 204.464 269.342 204.925 269.345C222.197 269.455 235.156 269.455 243.865 269.345C244.567 269.336 245.625 269.373 247.039 269.455C247.039 269.455 232.111 317.9 199.405 316.425C183.675 315.715 187.291 302.697 187.291 302.697C187.291 302.697 188.498 296.694 192.428 287.178Z" fill="#FED21C"/>
<path fill-rule="evenodd" clip-rule="evenodd" d="M204.464 269.333C204.464 269.333 185.292 300.722 192.87 308.175C200.745 315.916 215.21 310.195 225.244 300.834C235.274 291.476 243.404 269.333 243.404 269.333H204.464Z" fill="#B3B2E6"/>
<path fill-rule="evenodd" clip-rule="evenodd" d="M103.738 169.934C103.738 169.934 107.396 222.282 123.023 245.332C138.654 268.382 173.239 314.017 173.239 314.017L196.872 269.32C196.872 269.32 161.467 242.309 156.378 231.166C151.286 220.029 122.497 160.274 122.497 160.274L103.738 169.934Z" fill="#AD5CEE"/>
<path fill-rule="evenodd" clip-rule="evenodd" d="M107.652 167.52L101.753 139.619L114.89 134.1L122.712 159.764L107.652 167.52Z" fill="#B3B2E6"/>
<path fill-rule="evenodd" clip-rule="evenodd" d="M88.5152 102.324C87.8577 107.768 93.6443 122.389 94.3859 126.948C95.1369 131.488 97.2216 135.311 99.8641 138.614C102.516 141.942 102.488 144.688 102.488 144.688L116.669 142.023C116.669 142.023 119.58 140.465 121.284 129.933C123.004 119.41 125.712 101.607 123.045 100.233C120.458 98.915 115.301 110.463 114.289 112.953L114.198 113.19C114.142 113.336 114.077 113.293 113.968 113.084C112.861 110.681 109.141 86.1639 106.05 86.114C105.115 86.1109 103.351 86.9585 101.31 88.3109C101.173 88.4013 101.033 88.4979 100.886 88.6069C99.3935 89.6228 97.7669 90.8786 96.2026 92.2434C96.0562 92.3525 95.9253 92.4709 95.7913 92.608C94.2457 93.976 92.7624 95.4561 91.5503 96.8927C91.4256 97.0516 91.3072 97.1949 91.1888 97.3352C89.6993 99.1674 88.6741 100.925 88.5152 102.324Z" fill="#B3B2E6"/>
<path fill-rule="evenodd" clip-rule="evenodd" d="M107.468 126.378C107.471 126.381 107.474 126.381 107.481 126.385C107.608 126.425 107.745 126.35 107.789 126.223C109.578 120.498 114.62 113.468 114.67 113.4C114.747 113.291 114.722 113.138 114.613 113.063C114.511 112.982 114.355 113.007 114.274 113.113C114.221 113.188 109.138 120.28 107.322 126.076C107.281 126.201 107.347 126.332 107.468 126.378Z" fill="#9387BE"/>
<path fill-rule="evenodd" clip-rule="evenodd" d="M100.856 88.5912L106.967 111.22C107.001 111.295 107.042 111.354 107.114 111.379C107.17 111.401 107.213 111.398 107.282 111.382C107.4 111.345 107.469 111.224 107.435 111.086L101.283 88.2952C101.143 88.3886 101.003 88.4821 100.856 88.5912Z" fill="#9387BE"/>
<path fill-rule="evenodd" clip-rule="evenodd" d="M96.0629 92.2951L101.878 111.765C101.893 111.836 101.952 111.899 102.024 111.927C102.061 111.939 102.124 111.942 102.164 111.939C102.311 111.889 102.376 111.768 102.348 111.631L96.4743 91.9305C96.3278 92.0396 96.1969 92.158 96.0629 92.2951Z" fill="#9387BE"/>
<path fill-rule="evenodd" clip-rule="evenodd" d="M91.6978 97.4655L96.7802 114.592C96.8144 114.67 96.8736 114.732 96.9266 114.754C96.9827 114.776 97.045 114.779 97.0949 114.754C97.2133 114.716 97.3037 114.585 97.2476 114.458L92.0561 97.0199C91.9315 97.1788 91.8162 97.3222 91.6978 97.4655Z" fill="#9387BE"/>
<path fill-rule="evenodd" clip-rule="evenodd" d="M256.285 270.429C256.285 270.429 255.88 270.884 255.17 271.712C248.299 279.771 213.124 323.496 244.818 338.977C244.818 338.977 263.032 320.498 275.839 311.474C288.649 302.45 362.642 236.457 362.642 236.457L348.407 207.533C348.407 207.533 285.689 262.205 281.183 264.929L256.285 270.429Z" fill="#AD5CEE"/>
<mask id="mask2" mask-type="alpha" maskUnits="userSpaceOnUse" x="231" y="207" width="132" height="132">
<path fill-rule="evenodd" clip-rule="evenodd" d="M362.642 236.457C362.642 236.457 288.649 302.453 275.839 311.477C263.032 320.501 244.821 338.977 244.821 338.977C213.127 323.499 248.302 279.771 255.17 271.716C255.88 270.884 256.285 270.429 256.285 270.429L281.186 264.932C285.689 262.208 348.41 207.533 348.41 207.533" fill="white"/>
</mask>
<g mask="url(#mask2)">
<path fill-rule="evenodd" clip-rule="evenodd" d="M377.104 255.898C371.38 249.772 362.041 252.564 354.868 253.651C346.657 254.901 338.832 254.172 331.257 250.625C317.038 243.96 308.671 228.214 310.569 212.715C311.174 207.776 319.014 207.713 318.403 212.715C316.577 227.619 325.38 241.732 340.129 245.584C354.02 249.211 371.125 238.039 382.642 250.361C386.079 254.041 380.554 259.59 377.104 255.898Z" fill="#FED21C"/>
</g>
<mask id="mask3" mask-type="alpha" maskUnits="userSpaceOnUse" x="231" y="207" width="132" height="132">
<path fill-rule="evenodd" clip-rule="evenodd" d="M362.642 236.457C362.642 236.457 288.649 302.453 275.839 311.477C263.032 320.501 244.821 338.977 244.821 338.977C213.127 323.499 248.302 279.771 255.17 271.716C255.88 270.884 256.285 270.429 256.285 270.429L281.186 264.932C285.689 262.208 348.41 207.533 348.41 207.533" fill="white"/>
</mask>
<g mask="url(#mask3)">
<path fill-rule="evenodd" clip-rule="evenodd" d="M292.288 233.641C292.986 236.408 293.681 239.172 294.385 241.939C295.005 244.357 295.809 247.324 296.697 249.206C297.186 250.24 298.009 251.686 298.476 252.316C298.763 252.702 300.125 254.101 300.52 254.416C300.29 254.232 300.857 254.653 300.916 254.69C301.184 254.871 301.458 255.045 301.742 255.207C301.966 255.335 302.194 255.454 302.424 255.572C303.471 256.102 302.103 255.488 302.733 255.697C303.275 255.884 303.827 256.042 304.394 256.139C303.973 256.067 304.204 256.12 304.49 256.127C304.883 256.136 305.26 256.136 305.65 256.114C307.697 256.005 309.654 257.99 309.563 260.031C309.464 262.244 307.843 263.83 305.65 263.945C299.181 264.291 293.494 259.791 290.53 254.338C287.436 248.639 286.311 241.945 284.737 235.722C284.236 233.737 285.379 231.378 287.47 230.905C289.502 230.444 291.749 231.512 292.288 233.641Z" fill="#FED21C"/>
</g>
<mask id="mask4" mask-type="alpha" maskUnits="userSpaceOnUse" x="231" y="207" width="132" height="132">
<path fill-rule="evenodd" clip-rule="evenodd" d="M362.642 236.457C362.642 236.457 288.649 302.453 275.839 311.477C263.032 320.501 244.821 338.977 244.821 338.977C213.127 323.499 248.302 279.771 255.17 271.716C255.88 270.884 256.285 270.429 256.285 270.429L281.186 264.932C285.689 262.208 348.41 207.533 348.41 207.533" fill="white"/>
</mask>
<g mask="url(#mask4)">
<path fill-rule="evenodd" clip-rule="evenodd" d="M321.779 274.986C316.74 274.986 316.731 267.152 321.779 267.152C326.818 267.152 326.827 274.986 321.779 274.986Z" fill="#FED21C"/>
</g>
<mask id="mask5" mask-type="alpha" maskUnits="userSpaceOnUse" x="231" y="207" width="132" height="132">
<path fill-rule="evenodd" clip-rule="evenodd" d="M362.642 236.457C362.642 236.457 288.649 302.453 275.839 311.477C263.032 320.501 244.821 338.977 244.821 338.977C213.127 323.499 248.302 279.771 255.17 271.716C255.88 270.884 256.285 270.429 256.285 270.429L281.186 264.932C285.689 262.208 348.41 207.533 348.41 207.533" fill="white"/>
</mask>
<g mask="url(#mask5)">
<path fill-rule="evenodd" clip-rule="evenodd" d="M314.954 290.627C308.506 294.444 300.504 295.32 293.459 292.609C286.108 289.78 282.288 283.429 276.594 278.471C269.437 272.23 259.976 276.838 251.535 275.698C243.822 274.657 237.216 270.048 233.131 263.495C230.457 259.207 237.232 255.269 239.893 259.541C243.757 265.748 250.163 268.459 257.312 268.054C264.775 267.63 272.151 265.991 278.847 270.388C284.02 273.784 287.22 279.21 292.053 282.955C297.566 287.227 305.094 287.358 311.003 283.865C315.349 281.294 319.294 288.063 314.954 290.627Z" fill="#FED21C"/>
</g>
<mask id="mask6" mask-type="alpha" maskUnits="userSpaceOnUse" x="231" y="207" width="132" height="132">
<path fill-rule="evenodd" clip-rule="evenodd" d="M362.642 236.457C362.642 236.457 288.649 302.453 275.839 311.477C263.032 320.501 244.821 338.977 244.821 338.977C213.127 323.499 248.302 279.771 255.17 271.716C255.88 270.884 256.285 270.429 256.285 270.429L281.186 264.932C285.689 262.208 348.41 207.533 348.41 207.533" fill="white"/>
</mask>
<g mask="url(#mask6)">
<path fill-rule="evenodd" clip-rule="evenodd" d="M291.111 327.627C283.217 326.692 276.11 322.383 271.953 315.527C270.987 313.935 270.282 312.209 269.631 310.467C269.413 309.884 269.198 309.295 268.974 308.716C268.824 308.317 268.668 307.921 268.509 307.528C268.771 308.17 268.513 307.55 268.382 307.267C266.883 304.02 265.272 302.022 262.28 299.922C260.551 298.71 259.744 296.497 260.872 294.565C261.875 292.855 264.493 291.938 266.232 293.157C269.528 295.478 272.417 298.248 274.383 301.807C275.184 303.253 275.817 304.795 276.415 306.335C276.639 306.918 276.854 307.51 277.076 308.092C277.182 308.382 277.287 308.672 277.4 308.962C277.474 309.152 277.546 309.342 277.621 309.529C277.506 309.261 277.502 309.252 277.612 309.501C277.967 310.274 278.366 311.021 278.814 311.744C279.023 312.078 279.248 312.396 279.463 312.726C280.104 313.717 279.042 312.274 279.799 313.181C280.341 313.835 280.915 314.462 281.529 315.057C281.856 315.372 282.195 315.68 282.544 315.979C282.641 316.057 283.501 316.711 282.987 316.338C283.623 316.799 284.277 317.232 284.956 317.628C285.352 317.855 285.757 318.073 286.168 318.279C286.293 318.341 287.44 318.846 286.841 318.603C287.568 318.899 288.315 319.142 289.07 319.351C289.45 319.454 289.83 319.544 290.213 319.628C290.353 319.656 291.837 319.881 291.111 319.793C293.211 320.043 295.024 321.417 295.024 323.71C295.024 325.633 293.223 327.877 291.111 327.627Z" fill="#FED21C"/>
</g>
<mask id="mask7" mask-type="alpha" maskUnits="userSpaceOnUse" x="103" y="160" width="94" height="155">
<path fill-rule="evenodd" clip-rule="evenodd" d="M156.375 231.169C161.464 242.306 196.872 269.316 196.872 269.316L173.239 314.017C173.239 314.017 138.651 268.382 123.023 245.335C107.396 222.279 103.738 169.934 103.738 169.934L122.494 160.274C122.494 160.274 151.286 220.029 156.375 231.169Z" fill="white"/>
</mask>
<g mask="url(#mask7)">
<path fill-rule="evenodd" clip-rule="evenodd" d="M197.265 244.039C193.41 246.597 191.12 250.29 189.562 254.568C187.776 259.464 186.003 264.381 181.937 267.883C173.751 274.938 161.853 274.658 153.895 267.397C150.162 263.991 155.715 258.466 159.429 261.86C165.175 267.098 174.505 266.145 178.877 259.623C181.367 255.905 182.164 251.287 184.162 247.314C186.234 243.191 189.49 239.817 193.311 237.277C197.524 234.485 201.45 241.262 197.265 244.039Z" fill="#FED21C"/>
</g>
<mask id="mask8" mask-type="alpha" maskUnits="userSpaceOnUse" x="103" y="160" width="94" height="155">
<path fill-rule="evenodd" clip-rule="evenodd" d="M156.375 231.169C161.464 242.306 196.872 269.316 196.872 269.316L173.239 314.017C173.239 314.017 138.651 268.382 123.023 245.335C107.396 222.279 103.738 169.934 103.738 169.934L122.494 160.274C122.494 160.274 151.286 220.029 156.375 231.169Z" fill="white"/>
</mask>
<g mask="url(#mask8)">
<path fill-rule="evenodd" clip-rule="evenodd" d="M110.409 260.33C108.667 255.238 109.752 249.489 113.136 245.329C116.483 241.212 121.69 239.477 126.819 239.059C132.506 238.595 138.055 240.249 143.686 240.695C148.149 241.05 152.944 240.636 156.113 237.133C159.497 233.388 165.022 238.937 161.648 242.671C154.434 250.648 143.434 248.504 134.048 247.205C129.907 246.631 125.155 246.31 121.381 248.467C117.847 250.492 116.679 254.499 117.96 258.248C119.596 263.025 112.033 265.079 110.409 260.33Z" fill="#FED21C"/>
</g>
<mask id="mask9" mask-type="alpha" maskUnits="userSpaceOnUse" x="103" y="160" width="94" height="155">
<path fill-rule="evenodd" clip-rule="evenodd" d="M156.375 231.169C161.464 242.306 196.872 269.316 196.872 269.316L173.239 314.017C173.239 314.017 138.651 268.382 123.023 245.335C107.396 222.279 103.738 169.934 103.738 169.934L122.494 160.274C122.494 160.274 151.286 220.029 156.375 231.169Z" fill="white"/>
</mask>
<g mask="url(#mask9)">
<path fill-rule="evenodd" clip-rule="evenodd" d="M142.195 221.18C137.156 221.18 137.147 213.35 142.195 213.35C147.234 213.35 147.243 221.18 142.195 221.18Z" fill="#FED21C"/>
</g>
<mask id="mask10" mask-type="alpha" maskUnits="userSpaceOnUse" x="103" y="160" width="94" height="155">
<path fill-rule="evenodd" clip-rule="evenodd" d="M156.375 231.169C161.464 242.306 196.872 269.316 196.872 269.316L173.239 314.017C173.239 314.017 138.651 268.382 123.023 245.335C107.396 222.279 103.738 169.934 103.738 169.934L122.494 160.274C122.494 160.274 151.286 220.029 156.375 231.169Z" fill="white"/>
</mask>
<g mask="url(#mask10)">
<path fill-rule="evenodd" clip-rule="evenodd" d="M145.411 196.244C143.152 200.099 139.341 202.822 134.894 203.474C129.75 204.228 124.552 202.003 120.136 199.547C118.058 198.388 116.116 197.023 114.253 195.546C112.471 194.138 110.841 192.212 108.703 191.321C104.771 189.679 99.9283 191.109 96.2201 192.71C94.2819 193.549 92.0227 193.287 90.8635 191.305C89.8975 189.654 90.3151 186.793 92.2689 185.949C96.3167 184.2 100.561 182.776 105.029 182.814C110.031 182.86 113.876 184.905 117.562 188.127C122.361 192.318 133.853 200.482 138.649 192.29C141.195 187.943 147.966 191.882 145.411 196.244Z" fill="#FED21C"/>
</g>
<mask id="mask11" mask-type="alpha" maskUnits="userSpaceOnUse" x="103" y="160" width="94" height="155">
<path fill-rule="evenodd" clip-rule="evenodd" d="M156.375 231.169C161.464 242.306 196.872 269.316 196.872 269.316L173.239 314.017C173.239 314.017 138.651 268.382 123.023 245.335C107.396 222.279 103.738 169.934 103.738 169.934L122.494 160.274C122.494 160.274 151.286 220.029 156.375 231.169Z" fill="white"/>
</mask>
<g mask="url(#mask11)">
<path fill-rule="evenodd" clip-rule="evenodd" d="M197.863 297.662C196.102 301.604 192.382 304.726 188.162 305.705C183.211 306.854 178.029 305.268 173.473 303.364C171.273 302.445 169.154 301.382 167.141 300.099C165.225 298.877 163.442 297.229 161.267 296.487C156.955 295.016 152.109 297.279 148.42 299.376C144.032 301.872 140.081 295.11 144.468 292.614C148.448 290.351 152.742 288.609 157.35 288.276C162.305 287.924 166.113 289.977 170.073 292.664C175.645 296.443 187.206 302.426 191.101 293.707C191.964 291.779 194.775 291.321 196.458 292.305C198.446 293.468 198.729 295.724 197.863 297.662Z" fill="#FED21C"/>
</g>
<path fill-rule="evenodd" clip-rule="evenodd" d="M120.379 179.976C121.002 178.374 122.068 177.396 123.124 176.402C123.377 176.158 123.685 175.884 123.124 175.623C121.79 175.002 120.824 173.987 120.042 172.634C119.164 173.781 118.653 175.102 117.546 175.962C117.288 176.165 117.422 176.386 117.652 176.551C118.821 177.389 119.718 178.461 120.379 179.976Z" fill="#C2F5FF"/>
<path fill-rule="evenodd" clip-rule="evenodd" d="M247.832 316.238C249.714 316.416 250.599 315.291 250.671 313.671C250.758 311.598 249.483 310.255 247.501 310.065C245.682 309.888 244.466 311.134 244.441 312.904C244.413 314.976 245.756 316.079 247.832 316.238Z" fill="#C2F5FF"/>
<path fill-rule="evenodd" clip-rule="evenodd" d="M128.088 223.528C126.776 223.734 125.947 224.575 125.931 225.831C125.916 226.984 126.766 227.875 127.95 227.801C129.075 227.732 129.923 226.856 129.979 225.71C130.038 224.557 129.322 223.762 128.088 223.528Z" fill="#C2F5FF"/>
<path fill-rule="evenodd" clip-rule="evenodd" d="M116.001 213.573L116.475 213.582C118.977 213.66 119.105 213.875 118.071 216.093C117.784 216.71 117.51 217.34 117.285 217.985C117.108 218.48 116.946 219.097 117.597 219.34C118.192 219.562 118.391 218.97 118.591 218.555C118.999 217.701 119.367 216.826 119.781 215.975C120.199 215.118 120.716 215.065 121.296 215.844C121.919 216.692 122.536 217.546 123.377 218.203C123.645 218.415 123.898 218.596 124.206 218.337C124.487 218.1 124.527 217.764 124.337 217.48C123.814 216.692 123.237 215.944 122.704 215.162C121.963 214.068 122.178 213.591 123.502 213.404C124.234 213.305 124.97 213.252 125.702 213.164C126.026 213.124 126.366 213.027 126.347 212.622C126.328 212.239 125.985 212.095 125.674 212.08C124.677 212.018 123.673 212.002 122.676 211.968C121.797 211.943 121.564 211.478 121.878 210.718C122.199 209.939 122.576 209.188 122.913 208.415C123.144 207.892 123.527 207.213 122.826 206.885C122.075 206.539 121.916 207.409 121.645 207.848C121.258 208.468 120.99 209.166 120.685 209.836C120.199 210.918 119.638 211.285 118.831 210.095C118.298 209.313 117.743 208.549 117.176 207.792C116.837 207.34 116.475 206.683 115.802 207.172C115.201 207.608 115.469 208.185 115.855 208.693C116.366 209.36 116.896 210.017 117.354 210.721C117.918 211.594 117.644 212.105 116.59 212.142C115.855 212.17 115.116 212.139 114.384 212.211C113.992 212.245 113.462 212.307 113.502 212.893C113.537 213.417 113.982 213.551 114.422 213.579C114.945 213.616 115.475 213.607 116.001 213.616C116.001 213.604 116.001 213.588 116.001 213.573Z" fill="#C2F5FF"/>
<path fill-rule="evenodd" clip-rule="evenodd" d="M351.009 225.655C350.601 225.462 350.155 225.474 349.725 225.437C348.438 225.321 347.151 225.225 345.861 225.116C345.699 225.103 345.468 225.194 345.403 224.963C345.347 224.773 345.528 224.648 345.643 224.518C346.531 223.517 347.419 222.52 348.307 221.526C348.466 221.345 348.622 221.168 348.834 220.922C348.348 220.825 348.036 221.056 347.724 221.208C346.668 221.729 345.618 222.268 344.58 222.825C344.178 223.04 344.004 223.003 343.898 222.523C343.577 221.046 343.166 219.591 342.698 218.151C342.645 217.983 342.63 217.799 342.433 217.712C342.196 217.837 342.293 218.064 342.281 218.245C342.178 219.8 342.181 221.361 342.019 222.913C341.963 223.452 341.81 223.492 341.364 223.287C340.012 222.66 338.647 222.062 337.279 221.464C337.005 221.345 336.728 221.177 336.242 221.233C336.74 221.672 337.151 222.043 337.572 222.402C338.491 223.178 339.404 223.96 340.345 224.708C340.757 225.041 340.735 225.203 340.255 225.434C338.931 226.063 337.619 226.733 336.304 227.384C336.126 227.472 335.924 227.521 335.787 227.765C336.064 227.895 336.338 227.846 336.612 227.814C337.943 227.668 339.273 227.546 340.595 227.359C341.153 227.282 341.293 227.434 341.274 227.98C341.224 229.668 341.224 231.364 341.205 233.056C341.205 233.221 341.137 233.408 341.346 233.567C341.673 233.174 341.791 232.694 341.944 232.252C342.346 231.099 342.707 229.93 343.041 228.752C343.2 228.188 343.39 228.238 343.72 228.606C344.792 229.796 345.873 230.977 346.948 232.164C347.036 232.258 347.132 232.342 347.266 232.473C347.466 231.828 347.054 231.379 346.883 230.906C346.506 229.868 346.042 228.855 345.556 227.861C345.341 227.415 345.443 227.294 345.88 227.188C347.416 226.814 348.943 226.412 350.47 226.01C350.666 225.96 350.937 225.988 351.009 225.655Z" fill="#C2F5FF"/>
<path fill-rule="evenodd" clip-rule="evenodd" d="M246.872 294.277C247.027 294.28 247.186 294.28 247.345 294.287C249.844 294.365 249.975 294.576 248.941 296.795C248.651 297.412 248.38 298.042 248.152 298.687C247.978 299.185 247.816 299.802 248.467 300.045C249.062 300.263 249.262 299.671 249.461 299.257C249.869 298.403 250.237 297.527 250.651 296.68C251.069 295.82 251.586 295.767 252.166 296.549C252.789 297.397 253.406 298.247 254.247 298.908C254.515 299.117 254.768 299.301 255.076 299.039C255.357 298.805 255.397 298.465 255.207 298.182C254.684 297.397 254.107 296.646 253.574 295.863C252.83 294.77 253.048 294.296 254.372 294.109C255.104 294.006 255.84 293.953 256.572 293.866C256.893 293.825 257.236 293.729 257.217 293.324C257.198 292.941 256.856 292.8 256.544 292.785C255.544 292.722 254.543 292.704 253.543 292.669C252.668 292.644 252.434 292.18 252.749 291.42C253.069 290.644 253.447 289.89 253.783 289.117C254.011 288.594 254.394 287.914 253.696 287.59C252.945 287.241 252.783 288.114 252.515 288.55C252.128 289.173 251.857 289.868 251.555 290.538C251.069 291.619 250.508 291.99 249.701 290.797C249.168 290.014 248.613 289.251 248.046 288.497C247.707 288.042 247.345 287.388 246.672 287.874C246.071 288.31 246.339 288.89 246.725 289.394C247.236 290.061 247.766 290.719 248.221 291.426C248.785 292.295 248.514 292.807 247.46 292.847C246.725 292.875 245.983 292.841 245.254 292.912C244.862 292.95 244.332 293.009 244.372 293.598C244.407 294.118 244.852 294.252 245.292 294.284C245.815 294.318 246.345 294.308 246.872 294.318C246.872 294.305 246.872 294.29 246.872 294.277Z" fill="#C2F5FF"/>
<path fill-rule="evenodd" clip-rule="evenodd" d="M300.179 277.704C302.061 277.882 302.946 276.757 303.018 275.136C303.108 273.064 301.831 271.721 299.852 271.531C298.032 271.354 296.814 272.6 296.792 274.37C296.761 276.442 298.104 277.545 300.179 277.704Z" fill="#C2F5FF"/>
<path fill-rule="evenodd" clip-rule="evenodd" d="M591.892 414.018C591.892 414.018 609.439 452.658 629.99 571.895C650.544 691.133 653.304 771.259 653.304 771.259H590.082L534.954 438.401L549.043 425.421L578.608 414.018H591.892Z" fill="#432C82"/>
<mask id="mask12" mask-type="alpha" maskUnits="userSpaceOnUse" x="489" y="388" width="98" height="384">
<path fill-rule="evenodd" clip-rule="evenodd" d="M489.149 388.571H586.189V771.142H489.149V388.571Z" fill="white"/>
</mask>
<g mask="url(#mask12)">
<path fill-rule="evenodd" clip-rule="evenodd" d="M523.381 414.018C523.381 414.018 491.073 453.754 489.506 511.327C487.698 577.748 493.36 771.259 493.36 771.259L553.9 769.722L586.19 414.018H523.381Z" fill="#432C82"/>
</g>
<path fill-rule="evenodd" clip-rule="evenodd" d="M570.234 253.325L569.601 277.357C569.394 285.796 564.086 290.183 555.781 289.917C548.69 289.688 542.15 285.812 541.498 278.748L544.312 240.978L570.234 253.325Z" fill="#CDD6F2"/>
<path fill-rule="evenodd" clip-rule="evenodd" d="M569.72 265.317C552.901 265.333 542.225 245.34 542.225 245.34L570.224 251.137L569.72 265.317Z" fill="#00023C" fill-opacity="0.18"/>
<path fill-rule="evenodd" clip-rule="evenodd" d="M562.838 254.123C576.87 254.167 588.459 243.114 588.879 231.658L589.706 204.614C590.232 190.252 581.073 178.062 566.736 177.062C552.058 176.044 534.957 186.937 533.935 201.612L533.506 223.369C533.177 240.197 546.047 252.957 562.838 254.123Z" fill="#CDD6F2"/>
<path fill-rule="evenodd" clip-rule="evenodd" d="M520.44 220.605C520.023 226.622 524.56 231.84 530.577 232.26C536.594 232.676 541.811 228.136 542.231 222.119C542.648 216.102 538.111 210.885 532.094 210.468C526.077 210.051 520.86 214.589 520.44 220.605Z" fill="#CDD6F2"/>
<path fill-rule="evenodd" clip-rule="evenodd" d="M534.772 224.94C534.772 224.94 535.324 217.04 527.684 217.758L534.772 224.94Z" fill="#00023C" fill-opacity="0.18"/>
<mask id="mask13" mask-type="alpha" maskUnits="userSpaceOnUse" x="526" y="174" width="71" height="48">
<path fill-rule="evenodd" clip-rule="evenodd" d="M526.957 174.815H596.069V221.099H526.957V174.815Z" fill="white"/>
</mask>
<g mask="url(#mask13)">
<path fill-rule="evenodd" clip-rule="evenodd" d="M541.286 219.543C540.396 218.556 539.653 217.315 538.779 216.491C535.899 213.793 532.675 215.081 529.889 212.793C527.633 210.941 526.445 206.842 527.169 204.016C527.893 201.189 530.221 199.287 530.606 196.392C530.841 194.652 529.789 192.133 530.008 190.384C530.65 185.33 534.492 181.112 539.03 178.79C543.567 176.468 548.741 175.756 553.821 175.336C558.891 174.916 563.983 174.75 569.073 174.838C572.871 174.907 577.261 175.443 579.301 178.645C579.946 179.667 580.297 180.892 581.147 181.748C582.598 183.214 581.927 183.788 583.986 183.822C593.18 183.967 593.722 188.984 595.255 192.055C596.383 194.314 596.276 197.526 595.336 199.826C594.775 201.202 594.01 201.825 592.87 202.665C591.786 203.468 590.961 204.834 589.467 204.84C586.875 204.849 585.697 203.483 584.102 201.825C582.873 200.547 581.3 200.324 579.583 200.34C578.12 200.353 576.49 200.205 575.503 199.124C574.262 197.767 572.667 197.297 570.837 197.864C569.659 198.228 568.574 198.861 567.374 199.146C564.989 199.713 562.432 198.795 560.552 197.222C559.474 196.32 558.553 195.195 557.293 194.565C556.096 193.969 554.651 193.885 553.395 194.345C553.041 194.477 552.686 194.662 552.495 194.985C552.176 195.53 552.636 196.63 552.448 197.329C552.226 198.172 551.734 198.952 551.11 199.554C549.838 200.785 548.143 201.484 546.751 202.584C546.394 202.866 546.043 203.198 545.927 203.637C545.639 204.768 546.971 205.555 547.707 206.46C548.819 207.839 548.566 209.91 547.716 211.465C546.714 213.301 544.959 214.711 542.95 215.294C543.141 216.3 544.059 216.961 544.796 217.673C545.529 218.384 546.15 219.512 545.614 220.386C545.181 221.082 544.194 221.22 543.401 221.007C542.568 220.781 541.894 220.223 541.286 219.543Z" fill="#2C2263"/>
</g>
<path fill-rule="evenodd" clip-rule="evenodd" d="M530.592 228.038C530.604 228.906 531.319 229.602 532.19 229.586C533.061 229.574 533.754 228.859 533.741 227.988C533.729 227.12 533.011 226.424 532.143 226.437C531.272 226.452 530.579 227.17 530.592 228.038Z" fill="white"/>
<path fill-rule="evenodd" clip-rule="evenodd" d="M527.063 190.191C527.063 190.191 554.595 178.819 574.272 177.854C574.786 177.832 575.296 177.81 575.798 177.804C577.854 177.757 579.793 177.851 581.573 178.098C581.573 178.098 577.662 168.086 564.153 165.331C562.614 165.018 560.95 164.799 559.155 164.695C556.789 164.567 554.194 164.642 551.346 164.987C551.252 164.996 551.158 165.006 551.064 165.018C550.321 165.112 549.597 165.222 548.898 165.35C546.739 165.733 544.78 166.265 543.007 166.914C542.543 167.083 542.092 167.265 541.653 167.447C538.372 168.832 535.774 170.624 533.722 172.608C533.048 173.257 532.431 173.924 531.873 174.601C525.818 181.937 527.063 190.191 527.063 190.191Z" fill="#503890"/>
<path fill-rule="evenodd" clip-rule="evenodd" d="M558.947 164.636C563.435 166.178 570.207 169.754 574.064 177.795C574.277 178.24 574.484 178.697 574.678 179.171L575.979 178.635C575.854 178.334 575.725 178.033 575.59 177.745C572.61 171.151 567.812 167.372 563.946 165.273C562.407 164.959 560.743 164.74 558.947 164.636Z" fill="#816AD8"/>
<path fill-rule="evenodd" clip-rule="evenodd" d="M548.769 165C555.688 167.905 559.135 175.764 559.176 175.855L560.467 175.3C560.313 174.937 557.336 168.168 551.216 164.636C551.122 164.646 551.028 164.655 550.934 164.668C550.191 164.762 549.467 164.872 548.769 165Z" fill="#816AD8"/>
<path fill-rule="evenodd" clip-rule="evenodd" d="M541.498 167.35C542.037 170.838 543.861 178.036 549.865 181.646L550.589 180.44C544.951 177.055 543.309 169.936 542.852 166.818C542.388 166.987 541.937 167.165 541.498 167.35Z" fill="#816AD8"/>
<path fill-rule="evenodd" clip-rule="evenodd" d="M533.447 187.613L534.654 186.886C532.009 182.524 532.608 176.683 533.535 172.634C532.861 173.283 532.247 173.95 531.686 174.627C531.044 178.651 531.028 183.621 533.447 187.613Z" fill="#816AD8"/>
<path fill-rule="evenodd" clip-rule="evenodd" d="M583.874 183.162C583.874 183.162 555.295 178.073 529.959 198.711C529.959 198.711 525.741 195.365 527.305 189.614C527.305 189.614 551.491 167.211 581.793 176.227C581.793 176.227 585.027 178.806 583.874 183.162Z" fill="#816AD8"/>
<path fill-rule="evenodd" clip-rule="evenodd" d="M569.205 225.625C569.428 226.083 569.666 226.531 569.885 226.992C569.954 227.133 570.02 227.28 570.086 227.427C570.104 227.468 570.227 227.756 570.129 227.527C570.158 227.593 570.183 227.656 570.211 227.722C570.327 228.019 570.437 228.317 570.512 228.627C570.531 228.693 570.546 228.762 570.562 228.828C570.568 228.859 570.609 229.104 570.581 228.931C570.559 228.759 570.584 228.981 570.584 229.013C570.587 229.069 570.578 229.126 570.584 229.182C570.59 229.232 570.65 228.941 570.587 229.129C570.524 229.326 570.65 229.019 570.621 229.079C570.524 229.245 570.838 228.872 570.634 229.066C570.559 229.135 570.49 229.21 570.415 229.276C570.368 229.317 570.371 229.314 570.43 229.267C570.383 229.301 570.336 229.336 570.289 229.364C570.205 229.42 570.117 229.473 570.026 229.517C569.998 229.533 569.735 229.658 569.888 229.593C569.794 229.63 569.697 229.668 569.597 229.699C569.189 229.84 568.766 229.928 568.346 230.003C567.876 230.094 567.566 230.686 567.707 231.128C567.87 231.629 568.328 231.855 568.829 231.764C569.851 231.573 570.863 231.275 571.671 230.592C571.991 230.32 572.26 229.994 572.354 229.577C572.442 229.191 572.405 228.815 572.336 228.43C572.097 227.111 571.358 225.898 570.778 224.707C570.568 224.275 569.923 224.124 569.531 224.381C569.089 224.663 568.979 225.168 569.205 225.625Z" fill="#00023C" fill-opacity="0.18"/>
<path fill-rule="evenodd" clip-rule="evenodd" d="M560.872 218.078C560.872 218.078 561.674 221.619 559.054 220.754C556.431 219.89 547.315 217.122 547.315 217.122C547.315 217.122 551.956 209.671 560.872 218.078Z" fill="white"/>
<path fill-rule="evenodd" clip-rule="evenodd" d="M561.752 217.122C561.714 217.028 561.686 216.928 561.642 216.831C559.214 211.55 551.981 211.356 547.55 213.963C547.202 214.17 546.801 214.383 546.409 214.28C546.137 214.205 545.924 213.991 545.726 213.785C545.059 213.08 544.178 211.607 543.025 211.945C542.426 212.121 542.339 212.349 542.238 212.782C542.069 213.515 543.639 214.443 544.062 214.834C544.924 215.627 545.751 216.411 546.766 217.047C546.907 217.131 547.055 217.216 547.215 217.241C547.487 217.279 547.747 217.138 547.967 216.975C549.179 216.079 549.885 215.022 551.401 214.493C552.194 214.214 553.313 214.026 554.09 214.436C553.817 215.822 552.536 217.382 551.84 218.639L559.778 221.099C559.778 221.099 562.852 219.613 561.752 217.122Z" fill="#2A0952"/>
<path fill-rule="evenodd" clip-rule="evenodd" d="M584.78 223.914L572.035 222.66C572.035 222.66 576.943 216.117 581.878 218.079C586.814 220.037 584.78 223.914 584.78 223.914Z" fill="white"/>
<mask id="mask14" mask-type="alpha" maskUnits="userSpaceOnUse" x="571" y="216" width="20" height="8">
<path fill-rule="evenodd" clip-rule="evenodd" d="M571.308 216.258H590.898V223.739H571.308V216.258Z" fill="white"/>
</mask>
<g mask="url(#mask14)">
<path fill-rule="evenodd" clip-rule="evenodd" d="M590.34 218.095C589.811 217.813 589.313 217.998 588.871 218.333C588.137 218.891 587.207 219.979 586.339 219.308C585.536 218.684 585.11 217.863 584.129 217.359C582.393 216.463 580.287 216.143 578.351 216.293C575.615 216.5 572.701 217.76 571.504 220.383C571.272 220.897 571.215 221.52 571.501 222.006C571.786 222.489 572.469 222.743 572.945 222.448C573.155 222.319 573.299 222.11 573.434 221.906C574.832 219.847 577.875 217.34 580.56 218.506C580.156 220.029 578.852 221.614 578.116 223.028L585.314 223.739C585.314 223.739 586.564 222.934 586.677 221.649C586.831 221.564 586.984 221.492 587.144 221.458C587.909 220.54 589.209 220.577 590.061 219.819C590.34 219.546 590.619 219.274 590.898 218.998C590.889 218.587 590.851 218.368 590.34 218.095Z" fill="#2A0952"/>
</g>
<path fill-rule="evenodd" clip-rule="evenodd" d="M559.69 233.151C560.178 233.474 560.755 234.167 561.072 234.417C562.435 235.495 563.977 236.382 565.669 236.83C566.925 237.163 568.241 237.241 569.529 237.072C570.156 236.99 570.78 236.849 571.381 236.646C571.839 236.495 572.434 236.213 572.917 236.201C573.149 236.194 573.393 236.276 573.547 236.451C573.722 236.646 573.87 236.874 573.976 237.112C573.992 237.598 573.757 237.984 573.478 238.353C572.779 238.692 571.955 238.723 571.19 238.827C570.335 238.933 569.479 239.021 568.618 239.084C568.047 239.124 567.474 239.156 566.903 239.127C565.296 239.046 563.579 238.523 562.134 237.811C561.47 237.488 560.849 236.99 560.254 236.548C559.943 236.316 559.636 236.078 559.339 235.828C559.119 235.646 558.568 235.307 558.471 235.044C558.386 234.825 558.308 234.605 558.223 234.389C558.189 234.292 558.543 233.659 558.602 233.549C558.731 233.318 558.925 233.01 559.223 232.982C559.357 232.967 559.517 233.039 559.69 233.151Z" fill="#2A0952"/>
<path fill-rule="evenodd" clip-rule="evenodd" d="M557.069 210.347C559.4 210.033 559.375 206.586 557.047 206.235C555.022 205.935 552.44 205.938 550.917 207.442C548.125 210.193 554.499 210.632 556.997 210.356C557.019 210.353 557.044 210.353 557.069 210.347Z" fill="#2A0952"/>
<path fill-rule="evenodd" clip-rule="evenodd" d="M580.347 213.053C578.523 212.31 579.272 209.518 581.23 209.725C582.938 209.907 585.028 210.455 585.95 211.994C587.629 214.814 582.371 213.824 580.406 213.078C580.387 213.069 580.365 213.062 580.347 213.053Z" fill="#2A0952"/>
<path fill-rule="evenodd" clip-rule="evenodd" d="M555.728 228.597C554.913 229.738 553.632 230.53 552.259 230.859C550.673 231.235 548.991 231.032 547.458 230.483C546.455 230.12 545.484 229.593 544.785 228.791C543.576 227.406 543.494 224.855 543.898 223.135C544.14 222.104 544.738 221.117 545.659 220.593C547.013 219.826 548.486 219.769 549.971 220.042C551.284 220.286 552.613 220.565 553.785 221.205C556.12 222.483 557.367 225.607 556.07 228.045C555.969 228.24 555.853 228.421 555.728 228.597Z" fill="#FF37B8" fill-opacity="0.5"/>
<path fill-rule="evenodd" clip-rule="evenodd" d="M545.917 227.186C545.757 227.186 545.594 227.136 545.456 227.035C545.105 226.778 545.03 226.29 545.284 225.942L547.343 223.121C547.6 222.774 548.092 222.698 548.436 222.949C548.787 223.206 548.863 223.698 548.609 224.046L546.55 226.863C546.396 227.076 546.158 227.186 545.917 227.186Z" fill="#FFD0F6"/>
<path fill-rule="evenodd" clip-rule="evenodd" d="M551.735 229.307H551.691C551.258 229.282 550.929 228.912 550.951 228.48L551.149 224.995C551.171 224.562 551.522 224.293 551.973 224.255C552.405 224.28 552.734 224.65 552.712 225.08L552.518 228.567C552.493 228.984 552.148 229.307 551.735 229.307Z" fill="#FFD0F6"/>
<path fill-rule="evenodd" clip-rule="evenodd" d="M548.099 228.636C547.977 228.636 547.855 228.608 547.742 228.552C547.357 228.351 547.203 227.881 547.404 227.496L549.221 223.955C549.415 223.569 549.892 223.419 550.274 223.613C550.66 223.814 550.813 224.284 550.613 224.669L548.795 228.21C548.657 228.48 548.381 228.636 548.099 228.636Z" fill="#FFD0F6"/>
<path fill-rule="evenodd" clip-rule="evenodd" d="M576.394 232.274C577.077 233.233 578.152 233.897 579.302 234.167C580.628 234.483 582.038 234.314 583.323 233.854C584.162 233.55 584.977 233.114 585.563 232.44C586.575 231.278 586.644 229.141 586.306 227.699C586.102 226.834 585.601 226.01 584.83 225.571C583.696 224.926 582.461 224.879 581.217 225.107C580.117 225.311 579.004 225.546 578.024 226.079C576.065 227.151 575.021 229.767 576.109 231.814C576.193 231.973 576.287 232.127 576.394 232.274Z" fill="#FF37B8" fill-opacity="0.5"/>
<path fill-rule="evenodd" clip-rule="evenodd" d="M584.723 231.093C584.482 231.093 584.243 230.984 584.09 230.771L582.366 228.411C582.109 228.06 582.185 227.571 582.536 227.314C582.88 227.063 583.372 227.129 583.629 227.486L585.356 229.849C585.61 230.197 585.535 230.686 585.184 230.943C585.046 231.043 584.883 231.093 584.723 231.093Z" fill="#FFD0F6"/>
<path fill-rule="evenodd" clip-rule="evenodd" d="M579.526 233.105C579.112 233.105 578.767 232.782 578.742 232.366L578.579 229.445C578.554 229.013 578.887 228.643 579.319 228.618C579.808 228.662 580.121 228.928 580.143 229.36L580.309 232.278C580.331 232.71 580.002 233.08 579.57 233.105H579.526Z" fill="#FFD0F6"/>
<path fill-rule="evenodd" clip-rule="evenodd" d="M583.065 232.421C582.783 232.421 582.507 232.264 582.37 231.995L580.847 229.03C580.649 228.645 580.8 228.175 581.185 227.974C581.574 227.783 582.044 227.93 582.238 228.313L583.761 231.28C583.961 231.666 583.808 232.136 583.422 232.336C583.31 232.393 583.187 232.421 583.065 232.421Z" fill="#FFD0F6"/>
<path fill-rule="evenodd" clip-rule="evenodd" d="M503.691 421.462V437.918L535.875 432.109L538.162 410.383L503.691 421.462Z" fill="#974CCD"/>
<path fill-rule="evenodd" clip-rule="evenodd" d="M662.917 321.681C662.917 321.681 683.327 326.185 697.438 339.738L671.096 333.467L662.917 321.681Z" fill="#C4B8EE"/>
<path fill-rule="evenodd" clip-rule="evenodd" d="M601.128 356.772C598.819 351.896 594.692 346.014 596.453 340.693C597.941 336.193 602.388 332.517 606.396 330.33C610.016 328.349 614.083 327.049 618.21 327.121C628.225 327.306 629.476 333.849 633.183 341.467C634.706 344.601 636.285 347.587 637.959 350.2C639.623 352.801 641.349 355.08 642.888 356.599C643.646 357.361 644.348 357.912 644.862 358.292C645.382 358.661 645.708 358.812 645.849 358.89C645.918 358.925 645.953 358.947 646.062 359.019L645.912 359.028L645.611 359.047C644.781 359.122 644.195 359.232 643.656 359.367C643.421 359.426 643.195 359.489 642.988 359.558C642.819 359.608 642.619 359.686 642.481 359.733C641.895 359.965 641.622 360.125 641.475 360.219C641.331 360.31 641.337 360.325 641.393 360.297C641.456 360.266 641.575 360.2 641.738 360.084C642.399 359.627 643.49 358.696 644.602 357.652C645.724 356.59 650.042 361.638 651.236 360.347C653.655 357.775 656.087 354.907 658.538 351.987C668.315 340.21 684.895 308.594 684.895 308.594L705.913 321.023C705.471 322.06 705.064 322.991 704.631 323.959C704.202 324.921 703.779 325.883 703.334 326.826C702.456 328.728 701.551 330.605 700.626 332.483C698.781 336.227 696.847 339.928 694.842 343.607C690.818 350.959 686.503 358.182 681.661 365.342C679.239 368.94 676.657 372.484 673.786 376.094C672.332 377.89 670.797 379.695 669.083 381.547C667.347 383.408 665.485 385.292 662.934 387.338C662.301 387.849 661.596 388.378 660.816 388.92C660.033 389.466 659.18 390.02 658.14 390.603C657.102 391.18 655.909 391.785 654.367 392.358C653.994 392.502 653.549 392.65 653.135 392.781C652.687 392.919 652.217 393.051 651.734 393.173C650.7 393.417 649.616 393.627 648.275 393.734L647.786 393.768L647.435 393.787L647.065 393.8L646.316 393.818C645.821 393.837 645.32 393.818 644.818 393.812C643.819 393.787 642.816 393.718 641.819 393.605C639.826 393.383 637.858 392.988 635.981 392.452C632.215 391.377 628.84 389.754 625.935 387.936C623.02 386.116 620.56 384.082 618.386 382.026C614.071 377.884 610.852 373.634 608.113 369.404C605.381 365.173 603.115 360.974 601.128 356.772Z" fill="#9287C0"/>
<path fill-rule="evenodd" clip-rule="evenodd" d="M685.096 325.215C688.179 329.37 693.416 331.31 698.521 330.47C700.952 330.069 703.77 329.292 706.624 327.841C708.602 326.835 711.046 325.039 712.77 325.23C717.05 325.694 718.611 322.739 719.698 322.467C720.71 322.955 722.139 323.385 723.891 323.19C726.119 322.952 727.968 322.141 729.049 321.551H729.055C733.314 321.498 737.031 321.661 738.231 320.824C740.631 319.154 742.966 302.774 738.876 302.097C733.461 301.204 736.213 313.282 731.268 315.569C731.268 315.569 734.987 300.299 728.892 299.171C724.731 298.403 724.067 313.63 719.642 316.387C719.642 316.387 723.835 302.242 719.338 299.973C714.841 297.704 714.853 314.758 710.263 315.199C709.326 315.284 713.985 303.119 708.595 302.461C703.206 301.806 706.217 316.343 690.282 316.014C683.827 315.883 681.207 319.969 685.096 325.215Z" fill="#9287C0"/>
<path fill-rule="evenodd" clip-rule="evenodd" d="M631.967 317.218H748.528C751.511 317.218 753.93 314.802 753.93 311.816C753.93 308.832 751.511 306.413 748.528 306.413H631.967C628.984 306.413 626.564 308.832 626.564 311.816C626.564 314.802 628.984 317.218 631.967 317.218Z" fill="#8A60E2"/>
<path fill-rule="evenodd" clip-rule="evenodd" d="M661.714 317.431H749.987C752.074 317.431 753.97 316.216 754.838 314.32L778.971 261.617C780.591 258.089 778.009 254.065 774.123 254.065H685.847C683.76 254.065 681.867 255.281 680.996 257.177L656.863 309.876C655.246 313.411 657.828 317.431 661.714 317.431Z" fill="#432C82"/>
<path fill-rule="evenodd" clip-rule="evenodd" d="M723.434 276.604C725.217 280.273 727.549 283.351 730.053 286.303C730.579 286.923 730.692 287.315 729.905 287.854C727.166 289.737 724.995 292.197 723.196 294.967C722.654 295.801 722.3 295.766 721.783 295.052C719.558 291.953 717.173 289.004 714.262 286.506C713.287 285.67 714.096 285.134 714.766 284.692C718.041 282.545 720.586 279.622 723.434 276.604Z" fill="#FF67FF"/>
<path fill-rule="evenodd" clip-rule="evenodd" d="M569.872 267.879C593.003 270.876 603.521 288.906 611.789 299.278C620.228 309.873 654.138 354.635 654.138 354.635C654.138 354.635 658.525 343.379 665.472 326.002L694.926 339.885C692.81 353.234 690.482 367.972 689.414 374.973C687.207 389.416 681.332 419.057 656.102 419.057C649.587 419.057 602.406 371.118 602.406 371.118V431.903H589.745L581.737 329.772C573.501 288.468 569.546 267.837 569.872 267.879Z" fill="#974CCD"/>
<path fill-rule="evenodd" clip-rule="evenodd" d="M531.319 267.725L535.493 432.376L589.543 431.919C589.543 431.919 595.162 343.764 589.904 320.694C584.116 295.299 573.405 268.537 573.405 268.537L569.632 267.725C568.444 274.82 552.553 282.764 540.429 264.971L531.319 267.725Z" fill="#FFB700"/>
<path fill-rule="evenodd" clip-rule="evenodd" d="M537.863 384.936H593.602C593.615 386.117 593.615 387.248 593.602 388.323H538.114L537.863 384.936Z" fill="white"/>
<path fill-rule="evenodd" clip-rule="evenodd" d="M538.578 264.971C538.578 264.971 513.101 271.793 503.142 280.27C493.183 288.743 470.965 338.807 462.883 359.938C451.339 390.128 445.087 437.061 486.192 429.857C527.296 422.652 533.852 420.537 533.852 420.537V399.983L549.119 393.412L551.241 329.425L538.578 264.971Z" fill="#974CCD"/>
<path fill-rule="evenodd" clip-rule="evenodd" d="M541.592 378.392C541.592 378.392 548.216 398.213 543.832 417.281L535.682 391.463L541.592 378.392Z" fill="#C4B8EE"/>
<path fill-rule="evenodd" clip-rule="evenodd" d="M575.928 385.542C573.462 377.494 564.942 372.963 556.891 375.429L556.456 375.564L546.418 378.641C543.037 379.672 539.656 380.678 536.275 381.65C534.391 382.207 532.514 382.709 530.634 383.235C529.659 395.093 529.381 407.114 531.189 418.828C532.972 418.217 534.786 417.631 536.541 416.998C540.11 415.681 543.642 414.312 547.136 412.914C550.627 411.501 554.087 410.05 557.527 408.549L562.67 406.243L567.856 403.795C574.612 400.618 578.182 392.881 575.928 385.542Z" fill="#CDD6F2"/>
<path fill-rule="evenodd" clip-rule="evenodd" d="M558.237 382.88C558.237 382.88 557.745 376.581 562.098 373.394C566.454 370.204 579.434 361.915 582.257 359.342C585.078 356.773 587.82 361.727 584.372 366.365C580.925 371.006 578.396 373.92 578.396 373.92C578.396 373.92 589.248 366.459 594.45 363.485C599.649 360.508 606.239 355.394 608.236 356.829C610.229 358.261 606.521 364.159 592.388 372.783C592.388 372.783 609.63 365.741 612.369 365.459C615.34 365.152 616.355 367.828 609.028 372.294C601.699 376.759 594.099 380.476 594.099 380.476C594.099 380.476 597.468 378.68 600.006 380.883C602.548 383.089 597.86 386.715 597.86 386.715C597.86 386.715 603.66 389.366 596.87 393.816C590.079 398.263 570.415 402.857 565.432 400.535C560.453 398.21 558.237 382.88 558.237 382.88Z" fill="#CDD6F2"/>
<path fill-rule="evenodd" clip-rule="evenodd" d="M531.403 412.875L523.625 413.725C522.676 401.81 524.183 389.279 524.954 383.995C525.183 382.447 526.367 381.222 527.906 380.934L541.415 378.392C540.698 395.79 542.647 410.876 543.656 417.281C543.944 419.127 542.75 420.876 540.927 421.27L528.68 423.918C526.822 424.32 524.96 423.135 524.606 421.27C524.287 419.594 524.036 417.867 523.845 416.116L531.403 412.875Z" fill="#EA9800"/>
<path fill-rule="evenodd" clip-rule="evenodd" d="M687.986 347.986L684.721 355.099C674.01 349.788 664.029 342.057 659.896 338.685C658.683 337.695 658.241 336.046 658.783 334.58L663.543 321.681C678.099 331.236 692.048 337.315 698.061 339.738C699.794 340.437 700.681 342.361 700.079 344.128L696.062 355.999C695.451 357.797 693.48 358.784 691.697 358.129C690.095 357.547 688.485 356.87 686.883 356.136L687.986 347.986Z" fill="#EA9800"/>
<path fill-rule="evenodd" clip-rule="evenodd" d="M360.695 570.568C366.148 544.843 373.305 513.692 379.467 487.404C380.436 483.314 381.37 479.336 382.273 475.523C388.284 450.095 392.787 431.632 392.787 431.632L317.534 357.307C317.534 357.307 307.262 455.941 303.986 484.657C300.297 516.988 296.716 557.491 298.148 583.529C299.502 608.173 307.258 621.018 317.001 623.905C332.37 628.473 352.693 608.27 360.695 570.568Z" fill="#5D47C2"/>
<path fill-rule="evenodd" clip-rule="evenodd" d="M321.448 395.8C329.922 432.252 345.074 457.505 366.902 471.559C366.902 471.559 408.756 486.257 436.067 482.336C443.574 481.26 447.011 479.421 451.022 471.559C461.925 450.193 461.095 403.436 444.053 372.709C427.011 341.982 414.683 330.406 414.683 330.406C387.911 330.406 334.086 330.406 334.086 330.406C328.287 330.467 308.736 341.122 321.448 395.8Z" fill="#5143B9"/>
<path fill-rule="evenodd" clip-rule="evenodd" d="M406.321 599.596C409.396 590.204 412.795 580.079 416.31 569.75C431.421 525.349 448.753 477.082 452.427 466.876C452.886 465.591 453.133 464.912 453.133 464.912L366.739 471.449C366.739 471.449 358.339 504.868 351.429 541.929C351.425 541.941 351.425 541.945 351.425 541.945C348.504 557.607 345.849 573.917 344.213 588.622C343.534 594.664 343.029 600.433 342.747 605.777C339.409 669.301 386.711 659.457 406.321 599.596Z" fill="#5143B9"/>
<path fill-rule="evenodd" clip-rule="evenodd" d="M390.838 11.6227C395.511 9.78216 400.893 10.3339 405.5 12.3365C410.108 14.3314 414.016 17.6691 417.431 21.354C420.178 24.3251 422.686 27.6049 424.172 31.367C425.658 35.133 426.047 39.4468 424.589 43.2205C423.655 45.6398 422.023 47.7273 420.19 49.564C417.574 52.1878 414.063 54.4798 410.405 53.8663C408.421 53.5345 406.677 52.3807 405.057 51.1923C395.715 44.3395 369.608 19.9804 390.838 11.6227Z" fill="#503890"/>
<mask id="mask15" mask-type="alpha" maskUnits="userSpaceOnUse" x="267" y="25" width="256" height="201">
<path fill-rule="evenodd" clip-rule="evenodd" d="M522.204 25.7682H267.396V225.499H522.204V25.7682Z" fill="white"/>
</mask>
<g mask="url(#mask15)">
<path fill-rule="evenodd" clip-rule="evenodd" d="M267.396 220.586L270.564 203.103C273.755 185.616 281.723 185.28 286.947 174.083C292.172 162.889 282.903 154.736 292.986 131.388C303.064 108.04 313.077 114.128 326.706 104.077C340.334 93.9983 342.873 67.8989 342.873 67.8989L346.543 72.9189C337.429 58.1946 331.61 48.5482 331.61 48.5482C331.61 48.5482 337.529 31.3621 359.897 27.1061C382.273 22.881 394.343 29.1319 401.084 39.2722C407.832 49.4318 409.14 65.4873 415.11 71.1324C421.079 76.7736 433.233 69.5272 444.828 84.6413C456.435 99.7746 452.198 114.356 465.518 119.28C478.842 124.203 491.76 119.06 506.828 142.489C521.892 165.918 522.204 169.715 522.204 169.715C522.204 169.715 518.658 172.748 513.16 177.359C506.639 170.132 491.189 153.563 480.678 146.818C480.678 146.818 504.235 184.76 504.231 184.76C421.658 237.965 288.591 223.785 288.591 223.785L290.841 188.938L283.077 222.959L267.396 220.586Z" fill="#503890"/>
</g>
<path fill-rule="evenodd" clip-rule="evenodd" d="M376.127 25.6035C376.127 25.6035 390.06 21.2047 402.785 37.0094C415.511 52.8103 411.456 65.3352 420.149 73.1681C428.842 81.0009 435.684 83.6556 435.684 83.6556L414.643 78.5778L403.63 61.9782L376.127 25.6035Z" fill="#503890"/>
<path fill-rule="evenodd" clip-rule="evenodd" d="M414.6 52.7676C414.6 52.7676 404.579 29.13 383.584 22.8599L382.188 25.1789C382.188 25.1789 401.909 34.1616 411.501 53.8519L414.6 52.7676Z" fill="#FF67FF"/>
<path fill-rule="evenodd" clip-rule="evenodd" d="M407.65 22.3093C407.638 22.2514 407.623 22.1511 407.507 22.0546C407.426 21.9813 407.298 21.9157 407.086 21.8694C404.752 21.3447 398.061 24.2695 394.388 28.2361C401.256 26.3377 407.885 23.6637 407.65 22.3093ZM392.289 29.957L391.887 29.6174L392.385 28.9036C395.758 24.1151 404.046 20.025 407.333 20.7659C408.417 21.009 408.695 21.7189 408.765 22.1164C409.328 25.3383 396.834 28.7994 392.991 29.7834L392.289 29.957Z" fill="#FF67FF"/>
<path fill-rule="evenodd" clip-rule="evenodd" d="M397.197 14.2826C397.116 14.0974 397.031 13.9855 396.954 13.9161C396.831 13.8119 396.719 13.8157 396.661 13.8157C395.287 13.835 393.894 20.8461 393.312 27.9458C396.526 23.6011 398.146 16.482 397.197 14.2826ZM392.849 30.2224L392.058 29.5433C392.312 25.5226 393.385 12.7315 396.642 12.6813C397.047 12.6736 397.799 12.8125 398.239 13.835C399.574 16.9335 397.108 25.8313 393.026 30.0372L392.849 30.2224Z" fill="#FF67FF"/>
<mask id="mask16" mask-type="alpha" maskUnits="userSpaceOnUse" x="424" y="84" width="102" height="104">
<path fill-rule="evenodd" clip-rule="evenodd" d="M525.112 84.6599H424.581V187.249H525.112V84.6599Z" fill="white"/>
</mask>
<g mask="url(#mask16)">
<path fill-rule="evenodd" clip-rule="evenodd" d="M524.134 187.249C524.655 187.249 525.087 186.833 525.098 186.308C525.611 164.634 511.975 143.717 491.934 135.436C487.516 133.615 482.839 132.38 478.317 131.192C475.222 130.374 472.02 129.533 468.952 128.506C459.935 125.497 453.626 121.133 450.2 115.534C448.471 112.713 447.445 109.588 446.364 106.285C445.423 103.414 444.45 100.451 442.973 97.7228C439.438 91.1902 433.002 86.3207 425.759 84.6808C425.242 84.5728 424.722 84.8931 424.606 85.4101C424.486 85.931 424.814 86.4481 425.335 86.5638C432.041 88.0802 438.003 92.5948 441.275 98.6411C442.668 101.215 443.613 104.097 444.531 106.887C445.6 110.151 446.708 113.527 448.556 116.545C452.225 122.537 458.881 127.183 468.343 130.339C471.468 131.381 474.702 132.234 477.827 133.056C482.287 134.233 486.898 135.444 491.201 137.223C510.212 145.075 523.655 165.699 523.169 186.261C523.157 186.794 523.578 187.238 524.111 187.249H524.134Z" fill="#F376DA"/>
</g>
<mask id="mask17" mask-type="alpha" maskUnits="userSpaceOnUse" x="258" y="120" width="58" height="93">
<path fill-rule="evenodd" clip-rule="evenodd" d="M315.719 120.286H258.647V212.595H315.719V120.286Z" fill="white"/>
</mask>
<g mask="url(#mask17)">
<path fill-rule="evenodd" clip-rule="evenodd" d="M261.146 212.595C261.308 212.595 261.467 212.557 261.617 212.476C262.08 212.213 262.25 211.627 261.987 211.16C259.95 207.502 260.139 200.313 262.454 193.279C265.109 185.211 269.747 179.168 275.18 176.699C276.407 176.143 277.653 175.599 278.907 175.055C286.458 171.752 294.268 168.337 299.08 161.623C302.784 156.445 303.506 150.001 304.204 143.77C304.358 142.396 304.513 141.023 304.698 139.676C305.431 134.305 307.762 124.89 315.089 122.158C315.591 121.969 315.845 121.413 315.656 120.916C315.471 120.414 314.912 120.159 314.418 120.348C306.145 123.435 303.579 133.614 302.788 139.41C302.599 140.779 302.445 142.165 302.286 143.554C301.615 149.542 300.924 155.731 297.509 160.501C293.01 166.782 285.448 170.085 278.132 173.284C276.87 173.836 275.616 174.384 274.381 174.943C268.462 177.633 263.446 184.096 260.622 192.677C258.11 200.309 257.982 207.934 260.305 212.101C260.479 212.418 260.811 212.595 261.146 212.595Z" fill="#F376DA"/>
</g>
<path fill-rule="evenodd" clip-rule="evenodd" d="M355.95 121.675L356.729 151.266C356.984 161.657 363.52 167.059 373.746 166.731C382.478 166.449 390.53 161.676 391.333 152.979L387.868 106.472L355.95 121.675Z" fill="#9F91CA"/>
<path fill-rule="evenodd" clip-rule="evenodd" d="M356.024 136.39C376.733 136.411 389.879 109.38 389.879 109.38L355.403 117.123L356.024 136.39Z" fill="#00023C" fill-opacity="0.18"/>
<path fill-rule="evenodd" clip-rule="evenodd" d="M368.009 122.598C350.776 123.871 335.581 111.311 334.065 97.2739L330.692 64.1327C328.79 46.5338 338.977 30.7638 356.499 28.2905H356.502C374.437 25.7515 396.392 37.6359 398.927 55.5783L401.351 82.2641C403.226 102.904 388.529 119.696 368.009 122.598Z" fill="#9F91CA"/>
<path fill-rule="evenodd" clip-rule="evenodd" d="M417.373 81.6854C418.415 89.0398 413.295 95.8425 405.94 96.8804C398.586 97.9222 391.783 92.8019 390.745 85.4513C389.703 78.093 394.824 71.2942 402.178 70.2524C409.529 69.2145 416.335 74.3348 417.373 81.6854Z" fill="#9F91CA"/>
<path fill-rule="evenodd" clip-rule="evenodd" d="M399.976 88.2851C399.976 88.2851 398.61 78.631 408.056 78.8471L399.976 88.2851Z" fill="#00023C" fill-opacity="0.18"/>
<path fill-rule="evenodd" clip-rule="evenodd" d="M401.512 69.8686C401.512 69.8686 398.332 68.8037 392.228 68.9889C392.205 68.9966 392.174 68.985 392.151 68.9889L383.079 50.1629C383.079 50.1629 388.435 64.0383 390.052 68.9812C387.281 68.8886 384.148 68.6107 380.675 68.4294C377.89 61.9046 372.8 49.1366 372.133 42.0792C372.16 44.1359 372.464 58.729 374.17 68.3329C372.314 68.3908 370.404 68.5259 368.401 68.7767C364.037 69.3169 355.329 71.0494 347.156 72.7703C345.551 66.9709 342.615 55.318 342.95 48.5153C342.665 50.2285 340.446 63.8647 341.361 73.9471C334.01 75.5021 328.211 76.8141 328.211 76.8141C328.211 76.8141 324.325 60.6505 333.003 43.1018C341.673 25.5298 367.618 25.8848 367.618 25.8848C367.618 25.8848 377.755 24.2488 388.146 33.2315C398.564 42.2297 401.512 69.8686 401.512 69.8686Z" fill="#503890"/>
<path fill-rule="evenodd" clip-rule="evenodd" d="M398.549 81.8457C398.622 82.0193 398.703 82.2084 398.869 82.3048C399.321 82.5711 399.768 81.9383 399.911 81.4328C401.057 77.2926 401.045 72.8784 402.454 68.8191C402.901 67.5227 403.496 66.2532 403.658 64.8911C403.82 63.5291 403.442 61.9933 402.311 61.2139C401.416 60.5965 400.231 60.5695 399.166 60.801C395.639 61.5689 393.332 64.3702 394.119 67.8275C395.203 72.6083 396.701 77.308 398.549 81.8457Z" fill="#503890"/>
<path fill-rule="evenodd" clip-rule="evenodd" d="M371.408 93.1961C372.411 94.6006 373.993 95.5768 375.683 95.982C377.631 96.445 379.707 96.1903 381.594 95.5151C382.825 95.0714 384.025 94.4231 384.886 93.4353C386.371 91.7298 386.471 88.589 385.978 86.4706C385.677 85.2011 384.943 83.9857 383.805 83.3413C382.138 82.396 380.325 82.3265 378.496 82.6622C376.879 82.9632 375.243 83.3066 373.804 84.0937C370.925 85.668 369.393 89.515 370.987 92.517C371.114 92.7562 371.253 92.98 371.408 93.1961Z" fill="#FF37B8" fill-opacity="0.5"/>
<path fill-rule="evenodd" clip-rule="evenodd" d="M383.099 90.7853C383.296 90.7853 383.497 90.7236 383.666 90.6001C384.099 90.2837 384.191 89.6818 383.879 89.2535L381.344 85.7808C381.027 85.3486 380.421 85.2637 379.997 85.5685C379.565 85.8849 379.472 86.4907 379.785 86.919L382.32 90.3879C382.509 90.6503 382.802 90.7853 383.099 90.7853Z" fill="#FFD0F6"/>
<path fill-rule="evenodd" clip-rule="evenodd" d="M375.827 93.0612H375.881C376.414 93.0303 376.819 92.575 376.792 92.0425L376.549 87.7518C376.522 87.2193 376.074 86.8875 375.534 86.8412C375.001 86.8721 374.596 87.3274 374.623 87.856L374.862 92.1506C374.893 92.6638 375.318 93.0612 375.827 93.0612Z" fill="#FFD0F6"/>
<path fill-rule="evenodd" clip-rule="evenodd" d="M380.19 92.4038C380.341 92.4038 380.491 92.3691 380.63 92.2996C381.105 92.0527 381.294 91.4739 381.047 90.9993L378.809 86.6391C378.566 86.1645 377.983 85.9793 377.512 86.2185C377.038 86.4655 376.849 87.0442 377.096 87.5188L379.333 91.879C379.503 92.2109 379.843 92.4038 380.19 92.4038Z" fill="#FFD0F6"/>
<path fill-rule="evenodd" clip-rule="evenodd" d="M344.636 97.2738C343.795 98.4545 342.472 99.2687 341.055 99.6044C339.423 99.9941 337.687 99.7819 336.105 99.2185C335.071 98.8442 334.068 98.304 333.346 97.4744C332.1 96.0468 332.015 93.4152 332.432 91.6403C332.682 90.5753 333.3 89.5605 334.249 89.0203C335.646 88.2255 337.166 88.1676 338.698 88.4493C340.052 88.6962 341.422 88.9895 342.63 89.6454C345.041 90.965 346.326 94.1869 344.991 96.7066C344.883 96.9034 344.767 97.0924 344.636 97.2738Z" fill="#FF37B8" fill-opacity="0.5"/>
<path fill-rule="evenodd" clip-rule="evenodd" d="M334.445 95.3158C334.742 95.3158 335.035 95.1807 335.224 94.9183L337.346 92.0128C337.659 91.5807 337.566 90.9787 337.138 90.6623C336.706 90.3498 336.108 90.4385 335.787 90.8746L333.665 93.7839C333.353 94.2122 333.445 94.8142 333.877 95.1306C334.047 95.254 334.248 95.3158 334.445 95.3158Z" fill="#FFD0F6"/>
<path fill-rule="evenodd" clip-rule="evenodd" d="M340.727 97.456C341.236 97.456 341.66 97.0586 341.691 96.5454L341.892 92.9492C341.923 92.4167 341.514 91.9614 340.981 91.9305C340.379 91.9576 339.993 92.3087 339.966 92.845L339.762 96.4374C339.735 96.9698 340.14 97.4251 340.673 97.456H340.727Z" fill="#FFD0F6"/>
<path fill-rule="evenodd" clip-rule="evenodd" d="M336.874 96.7816C337.221 96.7816 337.561 96.5886 337.731 96.2568L339.606 92.6066C339.849 92.132 339.664 91.5532 339.189 91.3063C338.715 91.0709 338.132 91.2522 337.893 91.723L336.018 95.3771C335.771 95.8517 335.96 96.4304 336.434 96.6774C336.573 96.7468 336.724 96.7816 336.874 96.7816Z" fill="#FFD0F6"/>
<path fill-rule="evenodd" clip-rule="evenodd" d="M353.682 90.1149C353.829 89.0963 354.234 88.0429 354.739 87.0281C354.994 86.5188 355.299 86.021 356.013 86.129C356.746 86.2332 357.043 86.7503 357.12 87.3908C357.178 87.8577 357.186 88.3554 357.081 88.8107C356.576 91.0371 356.507 93.3639 355.611 95.5015C355.349 96.1304 354.971 96.5665 354.245 96.4507C353.427 96.3195 353.042 95.7099 353.022 94.9729C352.968 93.3639 353.184 91.7741 353.682 90.1149Z" fill="#00023C" fill-opacity="0.18"/>
<path fill-rule="evenodd" clip-rule="evenodd" d="M368.603 70.1025C368.07 69.7938 367.391 69.5044 367.218 68.7481C367.052 68.0266 367.503 67.4478 368.005 67.0812C369.618 65.8967 371.508 65.5995 373.445 65.8272C374.561 65.9584 374.958 67.2394 374.275 68.1385C373.519 69.134 369.88 70.4228 368.603 70.1025Z" fill="#D3CCFB"/>
<path fill-rule="evenodd" clip-rule="evenodd" d="M335.221 71.058C335.83 70.8844 336.49 70.8806 336.753 70.8458C338.79 70.9461 339.789 71.6291 339.708 72.6285C339.623 73.6857 338.439 74.4497 336.965 74.469C336.294 74.4767 335.695 74.3031 335.082 74.0639C334.38 73.7976 333.824 73.4156 333.859 72.5976C333.897 71.7564 334.484 71.2703 335.221 71.058Z" fill="#D3CCFB"/>
<path fill-rule="evenodd" clip-rule="evenodd" d="M356.03 107.097C355.988 107.081 355.945 107.066 355.903 107.05C355.301 106.865 354.387 107.043 354.306 106.159C354.225 105.222 355.185 105.341 355.749 105.075C359.187 105.376 361.915 103.971 364.218 101.544C364.936 101.305 365.58 100.012 366.371 101.058C367.174 102.123 365.769 102.443 365.31 103.08C365.029 103.477 364.446 103.566 364.261 104.076C361.76 105.75 359.075 106.904 356.03 107.097Z" fill="#2A0952"/>
<path fill-rule="evenodd" clip-rule="evenodd" d="M356.196 107.312C359.241 107.119 361.926 105.965 364.427 104.291C364.458 105.143 364.369 106.004 364.087 106.802C363.373 108.817 361.857 109.735 359.766 109.642C358.145 109.577 356.856 108.898 356.196 107.312Z" fill="#FF37B8" fill-opacity="0.5"/>
<path fill-rule="evenodd" clip-rule="evenodd" d="M364.433 101.518C362.129 103.949 359.401 105.35 355.963 105.049C356.029 103.147 357.067 102.213 358.888 101.788C360.74 101.36 362.569 101.271 364.433 101.518Z" fill="#FF37B8" fill-opacity="0.5"/>
<path fill-rule="evenodd" clip-rule="evenodd" d="M352.115 79.1649L358.616 77.9263L358.234 75.9353L351.733 77.1739L352.115 79.1649Z" fill="#974CCD"/>
<path fill-rule="evenodd" clip-rule="evenodd" d="M386.906 77.3586L407.329 69.0858L406.569 67.2106L386.146 75.4833L386.906 77.3586Z" fill="#974CCD"/>
<path fill-rule="evenodd" clip-rule="evenodd" d="M372.313 64.1468C375.674 64.1468 378.834 65.5128 381.218 67.99C383.619 70.4865 384.942 73.8087 384.95 77.347C384.954 80.8892 383.642 84.2153 381.246 86.7195C378.869 89.2082 375.701 90.5857 372.332 90.5896H372.313C365.356 90.5896 359.692 84.6706 359.68 77.3894C359.668 70.0968 365.325 64.1584 372.294 64.1468H372.313ZM372.313 92.6154H372.336C376.26 92.6076 379.945 91.0102 382.712 88.1163C385.467 85.2339 386.979 81.4101 386.972 77.347C386.968 73.2801 385.444 69.4601 382.681 66.5855C379.91 63.707 376.229 62.1211 372.313 62.1211H372.29C364.206 62.1327 357.639 68.9816 357.65 77.3894C357.666 85.7857 364.241 92.6154 372.313 92.6154Z" fill="#974CCD"/>
<path fill-rule="evenodd" clip-rule="evenodd" d="M339.686 69.9634C346.195 69.9634 351.493 75.5004 351.504 82.3069C351.512 89.125 346.226 94.6775 339.713 94.6891H339.693C336.552 94.6891 333.597 93.4157 331.37 91.1006C329.125 88.7623 327.886 85.6523 327.882 82.3455C327.871 75.5274 333.161 69.9749 339.674 69.9634H339.686ZM339.693 96.7187H339.716C347.345 96.7071 353.542 90.2401 353.526 82.3069H352.515H353.526C353.515 74.3814 347.306 67.9376 339.686 67.9376H339.67C332.042 67.9492 325.845 74.4123 325.857 82.3455C325.86 86.1848 327.303 89.7926 329.908 92.5013C332.524 95.2216 335.997 96.7187 339.693 96.7187Z" fill="#974CCD"/>
<path fill-rule="evenodd" clip-rule="evenodd" d="M344.911 79.3638C344.653 79.1632 344.394 78.9895 344.155 78.8506C342.886 78.1175 341.338 77.9863 339.891 78.2255C338.213 78.5033 336.48 79.3059 335.161 80.3709C334.547 80.8648 333.972 81.76 333.718 82.497C333.397 83.4269 333.992 84.2333 335.068 83.7587C336.712 83.0333 337.534 81.0461 339.417 80.5677C341.253 80.1085 343.017 80.969 344.483 82.0108C344.834 82.2616 345.22 82.4699 345.552 82.7439C346.644 83.6507 347.257 82.3928 346.864 81.3703C346.54 80.5214 345.567 79.8693 344.911 79.3638Z" fill="#2A0952"/>
<path fill-rule="evenodd" clip-rule="evenodd" d="M377.019 74.6461C376.683 74.3875 376.351 74.1599 376.039 73.9785C374.399 73.0255 372.392 72.8596 370.521 73.1682C368.349 73.5309 366.111 74.565 364.397 75.9464C363.606 76.5831 362.858 77.7445 362.53 78.7014C362.117 79.8976 362.885 80.9433 364.282 80.3336C366.408 79.396 367.469 76.8146 369.907 76.2049C372.28 75.6107 374.565 76.7181 376.463 78.0686C376.918 78.3927 377.416 78.6628 377.844 79.0217C379.264 80.1947 380.055 78.5664 379.546 77.239C379.125 76.1432 377.871 75.2982 377.019 74.6461Z" fill="#2A0952"/>
<path fill-rule="evenodd" clip-rule="evenodd" d="M490.768 168.48C511.955 227.721 518.418 362.902 441.123 371.533C393.639 376.831 376.298 296.798 389.1 131.433C388.917 128.618 388.826 127.211 388.826 127.211C388.826 127.211 469.577 109.239 490.768 168.48Z" fill="#2C2263"/>
<mask id="mask18" mask-type="alpha" maskUnits="userSpaceOnUse" x="410" y="110" width="44" height="27">
<path fill-rule="evenodd" clip-rule="evenodd" d="M453.86 110.834H410.095V136.785H453.86V110.834Z" fill="white"/>
</mask>
<g mask="url(#mask18)">
<path fill-rule="evenodd" clip-rule="evenodd" d="M448.609 136.787L453.86 135.753C453.81 135.502 452.61 129.533 449.118 123.518C444.28 115.183 437.4 110.8 429.231 110.834C423.131 110.865 418.335 112.706 414.97 116.306C409.649 122.001 410.093 129.958 410.112 130.293L415.452 129.954C415.448 129.907 415.163 123.907 418.909 119.929C421.225 117.467 424.709 116.209 429.254 116.186C444.318 116.121 448.566 136.583 448.609 136.787Z" fill="#2C2263"/>
</g>
<path fill-rule="evenodd" clip-rule="evenodd" d="M238.757 296.532C238.436 293.09 238.722 289.498 239.636 285.589C239.775 284.987 239.93 284.377 240.099 283.756C245.177 265.382 256.838 241.03 274.765 211.4C287.714 189.981 299.178 173.71 299.656 173.027C307.061 162.535 321.561 160.035 332.053 167.44C342.537 174.84 345.041 189.345 337.64 199.829C332.327 207.364 322.889 221.51 313.343 237.446C318.405 238.013 323.321 240.243 327.203 244.129C336.266 253.22 336.247 267.94 327.156 277.004C326.72 277.436 316.352 287.765 304.85 297.713C297.592 303.998 291.542 308.706 286.352 312.117C282.362 314.744 278.797 316.639 275.467 317.908C272.905 318.885 270.486 319.479 268.232 319.784C263.131 320.482 258.867 319.707 255.634 318.564C253.874 317.951 252.424 317.229 251.305 316.577C244.135 312.391 239.559 305.09 238.757 296.532Z" fill="#FED21C"/>
<path fill-rule="evenodd" clip-rule="evenodd" d="M250.991 316.317C252.106 316.969 253.561 317.686 255.316 318.304C256.227 303.56 245.99 291.533 239.319 285.328C238.404 289.233 238.119 292.83 238.443 296.271C239.241 304.826 243.818 312.13 250.991 316.317Z" fill="#AD5CEE"/>
<path fill-rule="evenodd" clip-rule="evenodd" d="M408.696 139.14C409.317 139.484 409.98 139.908 410.177 140.587C410.432 141.448 409.83 142.308 409.263 143.007C403.274 150.404 397.212 157.87 389.704 163.723C382.195 169.569 373 173.748 363.485 173.543C352.538 173.3 342.405 167.3 334.584 159.637C333.534 158.607 332.485 157.499 331.999 156.114C330.868 152.896 333.118 149.443 335.769 147.297C339.816 144.006 350.578 139.36 355.096 136.821C358.233 135.058 351.677 145.254 367.326 143.007C379.071 141.32 389.258 131.192 389.258 131.192C396.004 133.016 402.483 135.665 408.696 139.14Z" fill="#7B76DD"/>
<path fill-rule="evenodd" clip-rule="evenodd" d="M449.951 216.292C450.178 219.97 450.367 223.438 450.525 226.73C450.583 227.845 450.63 228.933 450.684 230.01C452.057 260.485 447.801 276.799 456.522 306.405C479.808 385.471 450.406 399.212 450.406 399.212C409.247 422.043 303.776 401.913 303.776 401.913C303.776 401.913 290.372 389.488 292.695 346.457C295.23 299.41 301.963 276.096 303.938 247.674C305.91 219.252 293.37 171.934 310.679 162.813C316.645 159.668 322.382 156.16 328.213 152.776C333.73 149.574 337.732 150.812 342.138 155.62C344.349 158.036 346.136 160.837 348.528 163.075C355.624 169.708 368.87 173.879 377.811 170.078C386.747 166.281 391.821 155.258 398.138 147.88C400.9 144.658 403.79 141.22 407.807 139.85C412.893 138.122 418.808 140.059 423.338 142.501C427.544 144.766 431.923 146.429 436.384 148.328C457.795 157.43 447.458 176.148 449.951 216.292Z" fill="#FED21C"/>
<path fill-rule="evenodd" clip-rule="evenodd" d="M441.085 150.662C441.085 150.662 413.828 169.982 409.252 208.008C404.679 246.035 426.596 297.377 457.206 310.222C457.206 310.222 467.921 317.58 462.515 332.984C462.515 332.984 399.713 320.976 388.689 240.085C377.665 159.19 422.475 143.3 422.475 143.3C428.135 141.271 437.489 146.117 441.085 150.662Z" fill="#2C2263"/>
<path fill-rule="evenodd" clip-rule="evenodd" d="M407.934 212.512C409.701 212.666 411.241 211.304 411.306 209.529C411.364 207.847 411.476 206.199 411.657 204.625C411.939 202.148 410.45 199.813 408.096 198.999C404.029 197.587 397.531 195.8 390.933 195.905C388.047 195.951 385.728 198.305 385.697 201.195C385.674 203.124 385.666 205.532 385.685 208.194C385.697 209.861 387.02 211.231 388.683 211.281C395.112 211.47 401.525 211.952 407.934 212.512Z" fill="#816AD8"/>
<path fill-rule="evenodd" clip-rule="evenodd" d="M328.079 153.004C328.079 153.004 324.055 208.66 319.637 237.777C315.176 267.21 297.608 308.481 295.625 307.848C295.625 307.848 290.003 260.642 298.075 234.331C306.143 208.027 306.629 173.813 311.977 163.326C317.321 152.838 328.079 153.004 328.079 153.004Z" fill="#2C2263"/>
<path fill-rule="evenodd" clip-rule="evenodd" d="M277.419 277.742C277.419 277.742 280.494 265.418 284.399 260.274C288.362 255.05 294.671 256.404 294.671 256.404L293.887 261.837C293.887 261.837 313.574 260.251 316.259 263.122C318.949 265.993 314.843 270.353 314.843 270.353C314.843 270.353 315.889 269.477 316.144 273.177C316.398 276.881 311.868 279.463 311.868 279.463C311.868 279.463 313.01 280.57 312.794 283.885C312.578 287.195 308.191 290.367 308.191 290.367C308.191 290.367 311.058 294.145 306.389 296.371C304.263 297.386 297.8 300.017 288.215 296.371C283.832 294.7 275.563 290.383 277.419 277.742Z" fill="#9F91CA"/>
<path fill-rule="evenodd" clip-rule="evenodd" d="M304.63 209.701C303.01 209.682 301.729 208.304 301.833 206.684C301.929 205.148 301.975 203.643 301.956 202.192C301.918 199.916 303.484 197.925 305.699 197.396C309.527 196.474 315.6 195.436 321.592 196.123C324.216 196.431 326.111 198.781 325.879 201.413C325.721 203.169 325.517 205.356 325.258 207.78C325.096 209.292 323.769 210.419 322.252 210.315C316.387 209.913 310.511 209.771 304.63 209.701Z" fill="#816AD8"/>
<path fill-rule="evenodd" clip-rule="evenodd" d="M296.219 388.777C296.219 388.777 293.718 402.556 301.003 410.597C301.003 410.597 395.897 429.701 454.679 406.742C454.679 406.742 459.251 399.403 458.935 385.663C458.935 385.663 388.311 413.799 296.219 388.777Z" fill="#AD5CEE"/>
<path fill-rule="evenodd" clip-rule="evenodd" d="M321.014 319.177C321.014 319.177 314.223 356.428 321.191 375.647C321.191 375.647 362.652 393.273 418.234 374.004C418.234 374.004 416.629 338.308 415.788 315.334C415.788 315.334 356.142 313.825 321.014 319.177Z" fill="#AD5CEE"/>
<path fill-rule="evenodd" clip-rule="evenodd" d="M387.704 360.11C387.264 360.172 386.855 359.874 386.774 359.435C372.876 283.749 378.61 166.603 378.671 165.426C378.695 164.967 379.088 164.616 379.543 164.638C380.003 164.662 380.358 165.052 380.331 165.507C380.273 166.684 374.547 283.641 388.41 359.137C388.495 359.589 388.194 360.025 387.743 360.106C387.731 360.106 387.716 360.11 387.704 360.11Z" fill="white"/>
<path fill-rule="evenodd" clip-rule="evenodd" d="M335.952 361.853C335.945 361.857 335.937 361.857 335.929 361.857C335.47 361.907 335.061 361.575 335.011 361.12C325.245 268.761 343.689 170.657 343.874 169.677C343.963 169.226 344.395 168.928 344.85 169.013C345.302 169.102 345.599 169.538 345.514 169.99C345.325 170.966 326.927 268.838 336.666 360.942C336.716 361.39 336.396 361.791 335.952 361.853Z" fill="white"/>
<mask id="mask19" mask-type="alpha" maskUnits="userSpaceOnUse" x="402" y="151" width="124" height="163">
<path fill-rule="evenodd" clip-rule="evenodd" d="M525.112 151.549H402.047V313.493H525.112V151.549Z" fill="white"/>
</mask>
<g mask="url(#mask19)">
<path fill-rule="evenodd" clip-rule="evenodd" d="M414.264 288.258C414.916 288.61 430.458 296.952 448.126 303.832C459.185 308.134 468.97 311.028 477.204 312.432C483.262 313.463 488.61 313.74 493.542 313.274C494.178 313.216 494.807 313.142 495.429 313.058C499.175 312.548 502.648 311.584 505.823 310.183C508.625 308.937 511.198 307.347 513.521 305.421C519.876 300.151 523.785 292.854 524.831 284.327C525.356 280.059 525.151 275.602 524.202 270.833C523.777 268.692 523.199 266.481 522.469 264.204C519.683 255.461 513.973 244.495 505.017 230.681C498.535 220.683 490.285 209.088 480.496 196.22C464.039 174.589 448.971 156.874 448.339 156.13C447 154.563 444.411 152.205 441.787 151.549C432.862 165.294 425.758 179.798 420.58 195.437C426.399 202.521 434.876 213.032 443.623 224.538C456.735 241.778 464.923 253.967 470.035 262.391C467.049 261.33 463.665 260.029 459.833 258.428C447.069 253.095 436.419 247.385 436.311 247.331C425.006 241.25 410.91 245.482 404.829 256.78C398.748 268.082 402.966 282.166 414.264 288.258Z" fill="#FED21C"/>
</g>
<path fill-rule="evenodd" clip-rule="evenodd" d="M505.822 310.133C508.628 308.891 511.197 307.301 513.524 305.375C519.875 300.101 523.784 292.808 524.83 284.281C525.354 280.009 525.15 275.553 524.205 270.787C515.7 276.506 498.31 291.022 505.822 310.133Z" fill="#AD5CEE"/>
<path fill-rule="evenodd" clip-rule="evenodd" d="M441.804 256.079C441.804 256.079 425.216 238.558 419.25 237.597C413.285 236.632 410.966 238.723 410.966 238.723L412.054 243.971C412.054 243.971 390.697 240.221 387.98 242.621C385.264 245.017 388.648 249.377 388.648 249.377C388.648 249.377 387.764 248.478 387.209 251.85C386.657 255.223 390.581 257.985 390.581 257.985C390.581 257.985 389.439 258.904 389.346 261.956C389.258 265.012 393.004 268.307 393.004 268.307C393.004 268.307 391.781 270.503 393.884 274.782C395.987 279.061 413.995 286.496 426.049 285.613C438.103 284.733 447.935 269.445 441.804 256.079Z" fill="#9F91CA"/>
</g>
</g>
<defs>
<clipPath id="clip0">
<rect width="796" height="546" fill="white"/>
</clipPath>
</defs>
</svg>
